<?xml version="1.0" standalone="no"?>
<!DOCTYPE svg PUBLIC "-//W3C//DTD SVG 20010904//EN"
 "http://www.w3.org/TR/2001/REC-SVG-20010904/DTD/svg10.dtd">
<svg version="1.0" xmlns="http://www.w3.org/2000/svg"
 width="700.000000pt" height="700.000000pt" viewBox="0 0 700.000000 700.000000"
 preserveAspectRatio="xMidYMid meet">
<metadata>
Created by potrace 1.14, written by Peter Selinger 2001-2017
</metadata>
<g transform="translate(0.000000,700.000000) scale(0.100000,-0.100000)"
fill="#000000" stroke="none">
<path d="M3299 6996 c-2 -2 -43 -6 -90 -10 -514 -36 -1103 -232 -1557 -517
-95 -59 -301 -204 -339 -237 -10 -9 -48 -42 -83 -72 -511 -431 -896 -1022
-1085 -1665 -27 -91 -61 -226 -69 -270 -8 -41 -25 -136 -30 -160 -5 -24 -19
-123 -22 -150 -15 -143 -19 -235 -19 -425 1 -217 5 -296 26 -445 21 -153 37
-238 70 -370 156 -632 463 -1178 919 -1636 172 -173 218 -213 365 -325 411
-311 914 -540 1405 -640 86 -17 192 -35 235 -40 27 -3 55 -7 62 -9 59 -19 548
-27 718 -12 877 79 1723 502 2295 1147 36 40 72 80 80 89 13 14 67 83 92 116
4 6 18 24 31 40 143 182 327 507 431 761 38 93 125 334 126 349 0 3 0 6 1 8 0
1 2 9 4 17 1 8 10 42 19 75 9 33 19 69 21 80 71 329 87 466 89 770 1 214 -8
438 -19 455 -2 3 -6 32 -10 64 -3 33 -8 62 -9 65 -2 3 -7 29 -10 56 -4 28 -12
70 -17 95 -6 25 -13 56 -15 70 -9 47 -56 215 -90 322 -65 200 -188 475 -297
663 -34 59 -155 248 -179 280 -158 209 -227 291 -374 439 -433 437 -967 746
-1569 906 -187 50 -289 69 -575 106 -48 6 -525 15 -531 10z m366 -2360 c107
-15 238 -58 355 -117 510 -259 752 -868 558 -1404 -128 -355 -427 -629 -789
-723 -179 -47 -390 -49 -564 -6 -347 87 -642 339 -781 667 -32 74 -70 206 -80
279 -15 99 -7 369 11 398 2 4 6 20 9 36 17 94 92 268 161 369 119 177 268 305
475 407 66 33 221 79 308 92 83 13 251 13 337 2z"/>
</g>
</svg>
