<svg width="470" height="295" viewBox="0 0 470 295" fill="none" xmlns="http://www.w3.org/2000/svg">
<g clip-path="url(#clip0_249_2566)">
<rect x="27.2109" width="414.961" height="273.342" rx="19.7895" fill="white"/>
<path fill-rule="evenodd" clip-rule="evenodd" d="M141.328 -97.1314C146.072 -110.433 151.382 -121.156 155.829 -128.977L155.838 -128.986H192.144C191.575 -127.412 190.737 -125.912 189.628 -124.543C189.462 -124.331 183.735 -116.324 177.729 -104.552C196.809 -107.729 216.914 -110.033 238.017 -111.456L238.007 -111.465C256.276 -112.695 273.986 -113.142 290.085 -113.142C331.952 -113.142 362.928 -110.105 364.456 -109.919C364.679 -109.891 364.901 -109.859 365.121 -109.822C368.259 -113.199 371.588 -116.629 375.105 -120.108C378.142 -123.108 381.235 -126.07 384.365 -128.977V-128.986H431.561C420.204 -119.763 408.047 -109.217 396.839 -98.1404C367.577 -69.2043 353.566 -44.6934 359.379 -32.573C361.363 -28.4273 364.382 -25.8933 369.161 -24.3468C385.427 -19.0831 413.003 -27.3373 433.843 -35.7871V-2.62142C417.689 3.12667 398.628 8.11085 381.039 8.11085C373.521 8.11085 366.273 7.20717 359.64 5.05512C346.867 0.918738 337.141 -7.46585 331.514 -19.2043C324.182 -34.4828 326.102 -52.5097 337.216 -72.7724C338.502 -75.117 339.92 -77.5051 341.468 -79.9349C323.453 -81.4448 284.983 -83.6934 239.498 -80.582C217.277 -79.0642 191.55 -76.111 164.986 -70.6209C158.96 -46.9417 157.775 -21.502 161.465 5.23211C161.522 5.64199 161.562 6.05031 161.585 6.45641C175.159 7.65185 189.304 11.5506 201.805 20.3329C225.691 37.1113 236.498 67.2772 229.343 97.1822C222.516 125.704 194.799 150.482 146.822 171.03C164.049 182.514 179.188 192.405 189.69 199.214C192.629 195.861 195.22 192.906 197.361 190.466C199.951 187.242 216.534 167.306 245.442 148.682C257.907 140.653 270.919 133.996 284.332 128.747C267.843 94.5087 255.979 61.0814 264.298 37.3449C267.819 27.2928 274.769 19.7001 284.383 15.368C289.666 12.9924 295.088 11.949 300.547 11.949V11.9583C323.251 11.9583 346.588 30.0131 363.403 45.0122C387.644 66.6258 412.071 95.2544 431.691 118.256C432.306 118.983 432.922 119.704 433.531 120.417L433.834 120.771L433.834 131.019V167.315C417.232 155.111 398.563 147.984 377.937 146.027C360.907 144.416 344.265 145.114 328.089 148.102C332.708 158.688 340.279 177.01 343.457 195.86C349.848 233.749 334.737 251.468 320.94 259.676C312.453 264.716 301.916 267.241 289.414 267.241C274.555 267.241 256.929 263.682 236.638 256.574C219.323 250.498 204.156 243.288 195.846 239.087C186.878 249.336 177.625 259.923 168.853 269.979H127.871C140.681 255.237 155.763 237.968 169.11 222.714C154.807 213.428 133.924 199.733 111.126 184.329C77.6698 195.224 47.0323 201.442 34.877 203.694V172.215C44.6438 170.273 60.3765 166.864 78.3891 161.894C63.3772 151.442 48.4717 140.81 34.877 130.693V91.8261C57.3548 109.494 87.2738 130.638 115.744 150.073C164.657 132.309 194.244 111.076 199.289 89.9901C202.475 76.6959 200.389 57.1039 184.039 45.617C170.679 36.2356 129.427 21.1247 34.877 83.0588V46.5673C69.4773 25.7735 100.947 12.852 128.626 8.08207V8.09138C129.283 7.97761 129.949 7.8668 130.623 7.75944C127.169 -18.6182 128.477 -42.2305 132.128 -62.5288C100.97 -53.5186 70.1566 -40.4714 43.8764 -21.6571C41.1561 -19.71 38.0165 -18.7691 34.9049 -18.7691H34.8863V-52.9409C64.4997 -72.3024 100.092 -87.0666 141.328 -97.1314ZM360.72 114.306C344.972 114.306 329.392 116.069 314.167 119.548C309.303 109.734 303.825 97.981 299.522 86.1245C290.541 61.3342 292.283 50.9093 293.457 47.5741C294.184 45.5059 295.162 44.4159 297.053 43.5589C302.923 40.9224 318.043 45.9717 342.833 68.0698C358.446 81.9886 374.532 99.479 389.243 116.303C386.472 115.879 383.675 115.533 380.853 115.265C374.117 114.632 367.409 114.306 360.72 114.306ZM263.133 174.05C274.436 166.86 286.079 161.006 298.028 156.495C298.149 156.77 298.274 157.054 298.404 157.347C311.13 186.18 322.626 222.719 305.158 233.106C288.838 242.807 247.534 229.78 216.868 215.087C218.219 213.547 219.543 212.037 220.838 210.561C220.979 210.398 221.126 210.219 221.266 210.049L221.278 210.034C221.318 209.985 221.358 209.937 221.397 209.89L221.4 209.885C221.704 209.505 236.455 191.017 263.133 174.05Z" fill="#005B93"/>
<path fill-rule="evenodd" clip-rule="evenodd" d="M141.328 -97.1314C146.072 -110.433 151.382 -121.156 155.829 -128.977L155.838 -128.986H192.144C191.575 -127.412 190.737 -125.912 189.628 -124.543C189.462 -124.331 183.735 -116.324 177.729 -104.552C196.809 -107.729 216.914 -110.033 238.017 -111.456L238.007 -111.465C256.276 -112.695 273.986 -113.142 290.085 -113.142C331.952 -113.142 362.928 -110.105 364.456 -109.919C364.679 -109.891 364.901 -109.859 365.121 -109.822C368.259 -113.199 371.588 -116.629 375.105 -120.108C378.142 -123.108 381.235 -126.07 384.365 -128.977V-128.986H431.561C420.204 -119.763 408.047 -109.217 396.839 -98.1404C367.577 -69.2043 353.566 -44.6934 359.379 -32.573C361.363 -28.4273 364.382 -25.8933 369.161 -24.3468C385.427 -19.0831 413.003 -27.3373 433.843 -35.7871V-2.62142C417.689 3.12667 398.628 8.11085 381.039 8.11085C373.521 8.11085 366.273 7.20717 359.64 5.05512C346.867 0.918738 337.141 -7.46585 331.514 -19.2043C324.182 -34.4828 326.102 -52.5097 337.216 -72.7724C338.502 -75.117 339.92 -77.5051 341.468 -79.9349C323.453 -81.4448 284.983 -83.6934 239.498 -80.582C217.277 -79.0642 191.55 -76.111 164.986 -70.6209C158.96 -46.9417 157.775 -21.502 161.465 5.23211C161.522 5.64199 161.562 6.05031 161.585 6.45641C175.159 7.65185 189.304 11.5506 201.805 20.3329C225.691 37.1113 236.498 67.2772 229.343 97.1822C222.516 125.704 194.799 150.482 146.822 171.03C164.049 182.514 179.188 192.405 189.69 199.214C192.629 195.861 195.22 192.906 197.361 190.466C199.951 187.242 216.534 167.306 245.442 148.682C257.907 140.653 270.919 133.996 284.332 128.747C267.843 94.5087 255.979 61.0814 264.298 37.3449C267.819 27.2928 274.769 19.7001 284.383 15.368C289.666 12.9924 295.088 11.949 300.547 11.949V11.9583C323.251 11.9583 346.588 30.0131 363.403 45.0122C387.644 66.6258 412.071 95.2544 431.691 118.256C432.306 118.983 432.922 119.704 433.531 120.417L433.834 120.771L433.834 131.019V167.315C417.232 155.111 398.563 147.984 377.937 146.027C360.907 144.416 344.265 145.114 328.089 148.102C332.708 158.688 340.279 177.01 343.457 195.86C349.848 233.749 334.737 251.468 320.94 259.676C312.453 264.716 301.916 267.241 289.414 267.241C274.555 267.241 256.929 263.682 236.638 256.574C219.323 250.498 204.156 243.288 195.846 239.087C186.878 249.336 177.625 259.923 168.853 269.979H127.871C140.681 255.237 155.763 237.968 169.11 222.714C154.807 213.428 133.924 199.733 111.126 184.329C77.6698 195.224 47.0323 201.442 34.877 203.694V172.215C44.6438 170.273 60.3765 166.864 78.3891 161.894C63.3772 151.442 48.4717 140.81 34.877 130.693V91.8261C57.3548 109.494 87.2738 130.638 115.744 150.073C164.657 132.309 194.244 111.076 199.289 89.9901C202.475 76.6959 200.389 57.1039 184.039 45.617C170.679 36.2356 129.427 21.1247 34.877 83.0588V46.5673C69.4773 25.7735 100.947 12.852 128.626 8.08207V8.09138C129.283 7.97761 129.949 7.8668 130.623 7.75944C127.169 -18.6182 128.477 -42.2305 132.128 -62.5288C100.97 -53.5186 70.1566 -40.4714 43.8764 -21.6571C41.1561 -19.71 38.0165 -18.7691 34.9049 -18.7691H34.8863V-52.9409C64.4997 -72.3024 100.092 -87.0666 141.328 -97.1314ZM360.72 114.306C344.972 114.306 329.392 116.069 314.167 119.548C309.303 109.734 303.825 97.981 299.522 86.1245C290.541 61.3342 292.283 50.9093 293.457 47.5741C294.184 45.5059 295.162 44.4159 297.053 43.5589C302.923 40.9224 318.043 45.9717 342.833 68.0698C358.446 81.9886 374.532 99.479 389.243 116.303C386.472 115.879 383.675 115.533 380.853 115.265C374.117 114.632 367.409 114.306 360.72 114.306ZM263.133 174.05C274.436 166.86 286.079 161.006 298.028 156.495C298.149 156.77 298.274 157.054 298.404 157.347C311.13 186.18 322.626 222.719 305.158 233.106C288.838 242.807 247.534 229.78 216.868 215.087C218.219 213.547 219.543 212.037 220.838 210.561C220.979 210.398 221.126 210.219 221.266 210.049L221.278 210.034C221.318 209.985 221.358 209.937 221.397 209.89L221.4 209.885C221.704 209.505 236.455 191.017 263.133 174.05Z" fill="url(#paint0_linear_249_2566)"/>
<path d="M95.9442 156.929C95.6181 156.929 95.2827 156.836 94.9846 156.631C91.2768 154.079 87.5689 151.507 83.8704 148.927C83.1065 148.396 82.9201 147.343 83.4512 146.579C83.9822 145.815 85.0349 145.629 85.7988 146.16C89.4881 148.741 93.1959 151.302 96.8944 153.855C97.6584 154.386 97.854 155.439 97.323 156.203C96.9969 156.678 96.4659 156.929 95.9349 156.929H95.9442ZM66.4398 136.238C66.1044 136.238 65.7597 136.136 65.4616 135.921C61.7537 133.266 58.0832 130.63 54.4871 128.012C53.7325 127.462 53.5648 126.41 54.1145 125.655C54.6641 124.9 55.7168 124.733 56.4715 125.282C60.0582 127.891 63.7195 130.527 67.418 133.173C68.1726 133.713 68.3496 134.766 67.8093 135.53C67.4832 135.996 66.9615 136.238 66.4305 136.238H66.4398ZM37.3826 114.941C37.0285 114.941 36.6745 114.83 36.3671 114.597C32.594 111.746 28.9794 108.97 25.6348 106.352C24.8989 105.774 24.7684 104.712 25.346 103.985C25.9236 103.259 26.9857 103.119 27.7124 103.697C31.0475 106.305 34.6436 109.072 38.4073 111.914C39.1526 112.473 39.3017 113.535 38.7334 114.28C38.398 114.718 37.895 114.951 37.3826 114.951V114.941Z" fill="white"/>
<path d="M178.542 212.091C178.225 212.091 177.908 212.008 177.62 211.821C174.219 209.613 170.427 207.145 166.3 204.443C165.518 203.93 165.304 202.887 165.816 202.104C166.328 201.322 167.372 201.108 168.154 201.62C172.281 204.322 176.073 206.791 179.464 208.998C180.247 209.502 180.47 210.554 179.958 211.337C179.632 211.831 179.091 212.11 178.542 212.11V212.091ZM148.413 192.332C148.097 192.332 147.77 192.239 147.482 192.052C143.848 189.649 140.085 187.152 136.228 184.571C135.454 184.05 135.24 183.006 135.762 182.233C136.284 181.46 137.327 181.246 138.1 181.767C141.957 184.339 145.721 186.835 149.345 189.239C150.118 189.751 150.332 190.804 149.82 191.577C149.494 192.071 148.954 192.332 148.413 192.332Z" fill="white"/>
<path d="M294.277 253.369C293.401 253.369 292.656 252.689 292.59 251.795C292.525 250.863 293.224 250.062 294.156 249.997C298.897 249.662 303.183 248.804 306.891 247.444C307.766 247.128 308.735 247.575 309.061 248.45C309.387 249.326 308.931 250.295 308.055 250.621C304.049 252.093 299.447 253.025 294.388 253.379C294.351 253.379 294.305 253.379 294.267 253.379L294.277 253.369ZM271.871 251.851C271.778 251.851 271.676 251.851 271.573 251.823C267.353 251.078 262.872 250.081 258.242 248.86C257.338 248.618 256.807 247.696 257.04 246.792C257.273 245.889 258.204 245.348 259.099 245.59C263.636 246.792 268.024 247.77 272.151 248.488C273.073 248.646 273.679 249.522 273.52 250.444C273.371 251.264 272.663 251.842 271.862 251.842L271.871 251.851ZM237.234 242.05C237.038 242.05 236.842 242.013 236.647 241.948C232.52 240.42 228.271 238.743 224.005 236.945C223.147 236.582 222.738 235.594 223.101 234.737C223.464 233.88 224.452 233.47 225.309 233.833C229.529 235.603 233.731 237.271 237.811 238.78C238.687 239.106 239.134 240.075 238.808 240.951C238.556 241.631 237.914 242.05 237.224 242.05H237.234ZM324.517 236.693C324.228 236.693 323.93 236.619 323.66 236.461C322.859 235.985 322.589 234.951 323.064 234.15C325.113 230.666 326.557 226.595 327.358 222.058C327.517 221.135 328.402 220.53 329.315 220.688C330.237 220.847 330.843 221.722 330.684 222.645C329.809 227.582 328.225 232.026 325.97 235.864C325.654 236.395 325.095 236.693 324.517 236.693V236.693ZM328.765 201.627C327.945 201.627 327.228 201.031 327.098 200.202C326.455 196.103 325.505 191.724 324.275 187.178C324.033 186.274 324.564 185.352 325.458 185.11C326.362 184.867 327.284 185.398 327.526 186.302C328.793 190.97 329.762 195.469 330.423 199.689C330.563 200.612 329.939 201.478 329.017 201.618C328.933 201.627 328.84 201.637 328.756 201.637L328.765 201.627ZM318.657 167.111C317.986 167.111 317.353 166.71 317.092 166.049C315.154 161.204 313.291 156.984 311.931 153.9L311.819 153.658C311.446 152.801 311.828 151.804 312.685 151.432C313.533 151.059 314.539 151.441 314.912 152.298L315.024 152.54C316.393 155.643 318.275 159.9 320.232 164.791C320.576 165.657 320.157 166.636 319.291 166.99C319.086 167.073 318.871 167.111 318.666 167.111H318.657Z" fill="white"/>
<path d="M298.628 124.63C298.004 124.63 297.398 124.276 297.109 123.68C295.479 120.336 294.007 117.215 292.591 114.131C292.2 113.283 292.572 112.277 293.42 111.895C294.268 111.504 295.274 111.876 295.656 112.724C297.053 115.78 298.525 118.882 300.137 122.199C300.547 123.037 300.193 124.043 299.355 124.453C299.122 124.565 298.861 124.621 298.619 124.621L298.628 124.63ZM413.888 122.879C413.413 122.879 412.938 122.674 412.602 122.292C409.751 118.957 406.808 115.528 403.789 112.053C403.174 111.345 403.258 110.283 403.957 109.668C404.665 109.054 405.727 109.137 406.342 109.836C409.36 113.32 412.313 116.749 415.164 120.093C415.77 120.801 415.686 121.863 414.978 122.478C414.661 122.748 414.27 122.888 413.879 122.888L413.888 122.879ZM390.16 95.7408C389.694 95.7408 389.237 95.5545 388.902 95.1818C385.79 91.7348 382.716 88.3903 379.772 85.2414C379.138 84.5613 379.166 83.49 379.847 82.8565C380.527 82.223 381.598 82.2509 382.231 82.9403C385.185 86.0985 388.268 89.4617 391.399 92.9273C392.023 93.6167 391.967 94.688 391.277 95.3122C390.951 95.601 390.551 95.7501 390.15 95.7501L390.16 95.7408ZM285.464 94.3247C284.775 94.3247 284.132 93.9055 283.88 93.2161C282.213 88.6977 280.769 84.3471 279.595 80.2759C279.334 79.3816 279.856 78.4406 280.75 78.1798C281.644 77.9282 282.585 78.4406 282.846 79.335C284.001 83.3316 285.418 87.6078 287.057 92.0423C287.383 92.918 286.936 93.8869 286.06 94.2129C285.865 94.2875 285.669 94.3154 285.473 94.3154L285.464 94.3247ZM365.295 69.6368C364.866 69.6368 364.438 69.4784 364.111 69.1524C360.767 65.8731 357.478 62.7614 354.339 59.9014C353.649 59.2772 353.603 58.2058 354.227 57.5164C354.851 56.827 355.923 56.7805 356.612 57.4046C359.779 60.2927 363.096 63.4322 366.468 66.7395C367.13 67.3916 367.149 68.463 366.487 69.1244C366.161 69.4598 365.723 69.6275 365.285 69.6275L365.295 69.6368ZM277.098 59.4076C276.204 59.4076 275.459 58.7089 275.412 57.8052C275.356 56.7711 275.337 55.7557 275.337 54.7775C275.337 50.7622 275.785 47.1009 276.67 43.8775C276.912 42.9738 277.843 42.4521 278.747 42.6944C279.651 42.9459 280.173 43.8682 279.93 44.7719C279.129 47.6972 278.719 51.0696 278.719 54.7775C278.719 55.6998 278.747 56.6593 278.794 57.6375C278.84 58.5692 278.123 59.361 277.191 59.4076C277.163 59.4076 277.135 59.4076 277.108 59.4076H277.098ZM338.184 45.9178C337.83 45.9178 337.476 45.806 337.178 45.5824C333.349 42.7223 329.632 40.1976 326.139 38.0828C325.337 37.5984 325.086 36.5643 325.57 35.7631C326.055 34.9619 327.089 34.7104 327.89 35.1948C331.477 37.3655 335.287 39.9461 339.209 42.8807C339.955 43.4397 340.113 44.5017 339.554 45.247C339.219 45.6942 338.715 45.9271 338.203 45.9271L338.184 45.9178ZM293.001 30.2666C292.284 30.2666 291.622 29.8101 291.399 29.0927C291.11 28.2077 291.603 27.2574 292.489 26.9686C296.727 25.5991 301.488 25.3942 306.658 26.3538C307.571 26.5214 308.177 27.4065 308.009 28.3195C307.842 29.2325 306.966 29.838 306.044 29.6703C301.432 28.8132 297.23 28.9809 293.523 30.1827C293.346 30.2386 293.178 30.2666 293.001 30.2666V30.2666Z" fill="white"/>
<path d="M148.227 271.817C147.836 271.817 147.435 271.677 147.119 271.398C146.42 270.783 146.345 269.721 146.951 269.013C149.867 265.659 152.848 262.249 155.839 258.821C156.453 258.122 157.516 258.048 158.224 258.662C158.922 259.277 158.997 260.339 158.382 261.047C155.391 264.476 152.41 267.885 149.494 271.239C149.159 271.621 148.693 271.817 148.218 271.817H148.227ZM171.946 244.642C171.555 244.642 171.154 244.502 170.838 244.222C170.139 243.607 170.064 242.545 170.679 241.837L179.586 231.655C180.2 230.956 181.263 230.882 181.971 231.496C182.669 232.111 182.744 233.173 182.129 233.881L173.223 244.064C172.887 244.446 172.421 244.642 171.946 244.642Z" fill="white"/>
<path d="M219.421 190.925C218.984 190.925 218.555 190.757 218.22 190.431C217.558 189.77 217.568 188.698 218.22 188.046C221.369 184.916 224.732 181.795 228.207 178.776C228.905 178.162 229.977 178.245 230.592 178.944C231.206 179.652 231.132 180.714 230.424 181.329C227.005 184.301 223.698 187.366 220.595 190.45C220.269 190.776 219.831 190.943 219.403 190.943L219.421 190.925ZM247.081 167.886C246.55 167.886 246.028 167.634 245.693 167.168C245.162 166.405 245.348 165.352 246.112 164.821C249.829 162.222 253.668 159.715 257.515 157.377C258.307 156.893 259.351 157.144 259.835 157.936C260.32 158.728 260.068 159.771 259.267 160.256C255.484 162.566 251.702 165.026 248.041 167.588C247.743 167.793 247.407 167.895 247.072 167.895L247.081 167.886ZM278.216 149.85C277.582 149.85 276.977 149.486 276.688 148.881C276.297 148.033 276.66 147.027 277.499 146.636C281.607 144.707 285.827 142.909 290.02 141.269C290.886 140.934 291.864 141.363 292.209 142.229C292.544 143.095 292.116 144.074 291.249 144.418C287.122 146.021 282.977 147.8 278.933 149.691C278.7 149.803 278.458 149.85 278.216 149.85V149.85Z" fill="white"/>
<path d="M440.514 154.823C440.178 154.823 439.843 154.721 439.545 154.516C435.893 151.944 432.101 149.569 428.272 147.426C427.462 146.97 427.163 145.945 427.62 145.125C428.076 144.314 429.101 144.016 429.921 144.473C433.852 146.662 437.747 149.112 441.492 151.749C442.256 152.289 442.442 153.342 441.902 154.096C441.576 154.562 441.045 154.814 440.514 154.814V154.823ZM408.578 138.52C408.401 138.52 408.214 138.492 408.037 138.427C403.873 137.011 399.569 135.799 395.237 134.84C394.324 134.635 393.756 133.731 393.961 132.828C394.165 131.915 395.06 131.346 395.973 131.551C400.426 132.548 404.851 133.787 409.127 135.24C410.012 135.539 410.478 136.498 410.18 137.383C409.938 138.082 409.286 138.529 408.578 138.529V138.52ZM324.033 134.868C323.241 134.868 322.533 134.309 322.375 133.498C322.198 132.585 322.794 131.7 323.716 131.523C328.151 130.666 332.688 129.958 337.178 129.418C338.11 129.306 338.948 129.968 339.06 130.89C339.172 131.812 338.51 132.66 337.588 132.772C333.172 133.303 328.719 133.992 324.359 134.84C324.247 134.859 324.145 134.868 324.042 134.868H324.033ZM373.344 131.84C373.344 131.84 373.269 131.84 373.232 131.84C368.965 131.561 364.652 131.421 360.432 131.421H359.845C358.913 131.421 358.158 130.666 358.158 129.735C358.158 128.803 358.913 128.048 359.845 128.039H360.432C364.736 128.039 369.114 128.179 373.456 128.458C374.387 128.514 375.095 129.325 375.03 130.256C374.974 131.151 374.229 131.84 373.344 131.84Z" fill="white"/>
<path d="M43.8858 187.841C43.1033 187.841 42.4045 187.291 42.2368 186.499C42.0412 185.587 42.6281 184.692 43.5411 184.497C47.8638 183.593 52.289 182.615 56.7049 181.59C57.6179 181.376 58.5216 181.944 58.7265 182.857C58.9315 183.77 58.3725 184.674 57.4595 184.888C53.025 185.913 48.5719 186.9 44.2212 187.813C44.1094 187.841 43.9883 187.85 43.8765 187.85L43.8858 187.841ZM78.9333 179.456C78.1881 179.456 77.508 178.963 77.303 178.208C77.0608 177.304 77.5918 176.382 78.4955 176.14C82.8741 174.957 87.2341 173.727 91.4636 172.488C92.358 172.227 93.2989 172.739 93.5598 173.634C93.8206 174.528 93.3082 175.469 92.4139 175.73C88.1564 176.978 83.7685 178.217 79.3712 179.41C79.2222 179.447 79.0731 179.466 78.9333 179.466V179.456Z" fill="white"/>
<path d="M150.91 153.947C150.277 153.947 149.671 153.593 149.382 152.978C148.982 152.13 149.345 151.124 150.193 150.733C154.366 148.767 158.4 146.736 162.183 144.696C163.003 144.249 164.027 144.556 164.474 145.385C164.912 146.205 164.605 147.23 163.785 147.677C159.956 149.736 155.866 151.795 151.637 153.789C151.404 153.9 151.162 153.947 150.919 153.947H150.91ZM182.157 136.097C181.626 136.097 181.104 135.846 180.778 135.389C180.237 134.625 180.414 133.573 181.178 133.032C184.979 130.34 188.501 127.564 191.641 124.787C192.339 124.173 193.401 124.238 194.025 124.936C194.64 125.635 194.575 126.707 193.876 127.321C190.644 130.181 187.029 133.032 183.126 135.79C182.827 136.004 182.492 136.097 182.147 136.097H182.157ZM207.553 110.869C207.245 110.869 206.928 110.785 206.649 110.608C205.866 110.105 205.633 109.062 206.127 108.279C208.568 104.441 210.459 100.481 211.745 96.5127C212.034 95.6277 212.984 95.1339 213.869 95.4227C214.754 95.7115 215.238 96.6618 214.959 97.5468C213.589 101.786 211.577 105.997 208.978 110.086C208.652 110.589 208.112 110.869 207.553 110.869V110.869ZM215.872 76.4829C214.996 76.4829 214.251 75.8028 214.186 74.9084C213.878 70.4926 213.086 66.1605 211.829 62.0241C211.559 61.1298 212.062 60.1889 212.956 59.9187C213.85 59.6485 214.791 60.1516 215.061 61.0459C216.394 65.4246 217.232 70.0175 217.558 74.6849C217.623 75.6165 216.925 76.4177 215.993 76.4829C215.956 76.4829 215.909 76.4829 215.872 76.4829ZM25.9053 72.1509C25.3557 72.1509 24.8154 71.8807 24.4893 71.3869C23.9769 70.6044 24.1912 69.5609 24.9737 69.0486C28.8027 66.5332 32.6503 64.083 36.3954 61.754C37.1873 61.2602 38.2307 61.5118 38.7244 62.3036C39.2182 63.0955 38.9667 64.1389 38.1748 64.6327C34.4483 66.9431 30.638 69.3746 26.8277 71.8807C26.5389 72.067 26.2221 72.1602 25.9053 72.1602V72.1509ZM56.7047 53.4998C56.1085 53.4998 55.5309 53.1831 55.2234 52.6241C54.7762 51.8043 55.0651 50.7795 55.8849 50.3323C59.9188 48.1057 63.962 45.9723 67.8841 43.9973C68.7133 43.5781 69.7287 43.9135 70.148 44.7426C70.5672 45.5717 70.2318 46.5872 69.4027 47.0158C65.5178 48.9815 61.5119 51.0963 57.5152 53.2949C57.2544 53.4346 56.9749 53.5091 56.7047 53.5091V53.4998ZM202.764 43.5967C202.289 43.5967 201.814 43.3918 201.478 43.0098C198.665 39.7212 195.414 36.7773 191.808 34.2619C191.044 33.7309 190.858 32.6781 191.389 31.9142C191.92 31.1503 192.973 30.964 193.737 31.495C197.575 34.1687 201.041 37.3083 204.04 40.8112C204.646 41.5192 204.562 42.5813 203.854 43.1961C203.537 43.4663 203.146 43.606 202.755 43.606L202.764 43.5967ZM89.0785 37.7648C88.417 37.7648 87.7928 37.3735 87.5227 36.7214C87.1687 35.8643 87.5693 34.8767 88.4357 34.5134C92.7211 32.734 96.9879 31.0851 101.124 29.6224C102 29.315 102.969 29.7715 103.276 30.6472C103.584 31.5229 103.127 32.4918 102.242 32.7992C98.1618 34.2433 93.9509 35.8643 89.7213 37.6157C89.507 37.6996 89.2928 37.7461 89.0692 37.7461L89.0785 37.7648ZM123.269 26.5947C122.496 26.5947 121.806 26.0636 121.62 25.2811C121.415 24.3681 121.983 23.4644 122.896 23.2595C127.48 22.216 131.998 21.3962 136.33 20.8279C137.262 20.7068 138.1 21.359 138.231 22.2813C138.361 23.2036 137.7 24.0513 136.777 24.1818C132.539 24.7407 128.123 25.5419 123.642 26.5574C123.52 26.5853 123.39 26.604 123.269 26.604V26.5947ZM172.328 25.486C172.198 25.486 172.058 25.4674 171.918 25.4395C167.819 24.424 163.431 23.7346 158.875 23.3899C157.944 23.3247 157.245 22.5142 157.32 21.5825C157.394 20.6509 158.195 19.9615 159.127 20.0267C163.869 20.3807 168.443 21.0981 172.729 22.1601C173.632 22.3837 174.182 23.2967 173.958 24.2097C173.772 24.9736 173.083 25.4953 172.319 25.4953L172.328 25.486Z" fill="white"/>
<rect x="63.2109" y="237.329" width="343.842" height="4.94737" rx="2.47368" fill="#BDD0FB"/>
<rect x="63.2109" y="237.329" width="218.303" height="4.94737" rx="2.47368" fill="white"/>
<rect x="63.2109" y="237.329" width="218.303" height="4.94737" rx="2.47368" fill="url(#paint1_linear_249_2566)"/>
<circle cx="280.586" cy="239.494" r="4.63816" fill="white"/>
<circle cx="280.586" cy="239.494" r="4.63816" fill="url(#paint2_linear_249_2566)"/>
</g>
<rect x="34.9412" y="7.73026" width="399.5" height="257.882" rx="12.0592" stroke="#0467AC" stroke-width="15.4605"/>
<path d="M459.936 294.645H10.0636C4.5289 294.645 0 289.774 0 283.822C0 277.87 4.5289 273 10.0636 273H459.936C465.471 273 470 277.87 470 283.822C470 289.774 465.471 294.645 459.936 294.645Z" fill="#0467AC"/>
<defs>
<linearGradient id="paint0_linear_249_2566" x1="35.7543" y1="55.5941" x2="628.779" y2="55.5941" gradientUnits="userSpaceOnUse">
<stop stop-color="#0E85C8"/>
<stop offset="1" stop-color="#004E84"/>
</linearGradient>
<linearGradient id="paint1_linear_249_2566" x1="63.2056" y1="239.803" x2="281.514" y2="239.803" gradientUnits="userSpaceOnUse">
<stop stop-color="#FE7062"/>
<stop offset="1" stop-color="#E3051B"/>
</linearGradient>
<linearGradient id="paint2_linear_249_2566" x1="287.698" y1="229.599" x2="275.948" y2="244.132" gradientUnits="userSpaceOnUse">
<stop stop-color="#E40E1B"/>
<stop offset="1" stop-color="#FF928E"/>
</linearGradient>
<clipPath id="clip0_249_2566">
<rect x="27.2109" width="414.961" height="273.342" rx="19.7895" fill="white"/>
</clipPath>
</defs>
</svg>
