<svg width="360" height="428" viewBox="0 0 360 428" fill="none" xmlns="http://www.w3.org/2000/svg">
<rect width="360" height="428" rx="10" fill="#E0E3EA"/>
<path d="M115.74 217.44C113.847 217.44 112.487 217.06 111.66 216.3C110.847 215.527 110.44 214.26 110.44 212.5V208.48C110.44 208.187 110.547 207.933 110.76 207.72C110.973 207.507 111.227 207.4 111.52 207.4C111.813 207.4 112.06 207.507 112.26 207.72C112.473 207.92 112.58 208.173 112.58 208.48V212.24C112.58 213.533 112.833 214.42 113.34 214.9C113.847 215.367 114.78 215.6 116.14 215.6C117.02 215.6 117.773 215.4 118.4 215C118.493 214.947 118.54 214.853 118.54 214.72V208.5C118.54 208.193 118.647 207.933 118.86 207.72C119.087 207.507 119.347 207.4 119.64 207.4C119.933 207.4 120.187 207.507 120.4 207.72C120.627 207.933 120.74 208.193 120.74 208.5V220.9C120.74 221.207 120.627 221.467 120.4 221.68C120.187 221.893 119.933 222 119.64 222C119.347 222 119.087 221.893 118.86 221.68C118.647 221.467 118.54 221.207 118.54 220.9V216.92C118.54 216.88 118.52 216.853 118.48 216.84C118.453 216.813 118.427 216.813 118.4 216.84C117.653 217.24 116.767 217.44 115.74 217.44ZM128.719 216.76C127.626 216.76 126.799 216.947 126.239 217.32C125.692 217.68 125.419 218.173 125.419 218.8C125.419 219.293 125.566 219.7 125.859 220.02C126.152 220.34 126.506 220.5 126.919 220.5C127.799 220.5 128.499 220.227 129.019 219.68C129.552 219.12 129.819 218.36 129.819 217.4V216.92C129.819 216.813 129.759 216.76 129.639 216.76H128.719ZM126.419 222.2C125.512 222.2 124.766 221.907 124.179 221.32C123.606 220.733 123.319 219.96 123.319 219C123.319 217.827 123.766 216.92 124.659 216.28C125.552 215.627 126.906 215.3 128.719 215.3H129.639C129.759 215.3 129.819 215.24 129.819 215.12V214.9C129.819 214.193 129.652 213.7 129.319 213.42C128.986 213.14 128.386 213 127.519 213C126.746 213 125.826 213.16 124.759 213.48C124.559 213.547 124.366 213.52 124.179 213.4C124.006 213.267 123.919 213.093 123.919 212.88C123.919 212.613 123.999 212.373 124.159 212.16C124.319 211.947 124.526 211.813 124.779 211.76C125.739 211.52 126.652 211.4 127.519 211.4C129.199 211.4 130.352 211.7 130.979 212.3C131.606 212.9 131.919 214 131.919 215.6V221.02C131.919 221.287 131.819 221.52 131.619 221.72C131.432 221.907 131.206 222 130.939 222C130.672 222 130.439 221.907 130.239 221.72C130.052 221.52 129.952 221.287 129.939 221.02L129.919 220.52C129.919 220.507 129.912 220.5 129.899 220.5C129.872 220.5 129.859 220.507 129.859 220.52C129.086 221.64 127.939 222.2 126.419 222.2ZM134.898 213.22C134.684 213.22 134.498 213.147 134.338 213C134.178 212.84 134.098 212.647 134.098 212.42C134.098 212.193 134.178 212 134.338 211.84C134.498 211.68 134.684 211.6 134.898 211.6H142.338C142.551 211.6 142.738 211.68 142.898 211.84C143.071 212 143.158 212.193 143.158 212.42C143.158 212.633 143.078 212.82 142.918 212.98C142.758 213.14 142.564 213.22 142.338 213.22H139.878C139.758 213.22 139.698 213.28 139.698 213.4V220.92C139.698 221.213 139.591 221.467 139.378 221.68C139.164 221.893 138.911 222 138.618 222C138.324 222 138.071 221.893 137.858 221.68C137.644 221.467 137.538 221.213 137.538 220.92V213.4C137.538 213.28 137.478 213.22 137.358 213.22H134.898ZM152.807 221.7C152.607 221.9 152.36 222 152.067 222C151.774 222 151.52 221.9 151.307 221.7C151.094 221.487 150.987 221.233 150.987 220.94V212.66C150.987 212.367 151.094 212.12 151.307 211.92C151.52 211.707 151.774 211.6 152.067 211.6C152.36 211.6 152.607 211.707 152.807 211.92C153.02 212.12 153.127 212.367 153.127 212.66V215.56C153.127 215.667 153.18 215.72 153.287 215.72H157.527C157.634 215.72 157.687 215.667 157.687 215.56V212.66C157.687 212.367 157.787 212.12 157.987 211.92C158.2 211.707 158.454 211.6 158.747 211.6C159.04 211.6 159.294 211.707 159.507 211.92C159.72 212.12 159.827 212.367 159.827 212.66V220.94C159.827 221.233 159.72 221.487 159.507 221.7C159.294 221.9 159.04 222 158.747 222C158.454 222 158.2 221.9 157.987 221.7C157.787 221.487 157.687 221.233 157.687 220.94V217.4C157.687 217.293 157.634 217.24 157.527 217.24H153.287C153.18 217.24 153.127 217.293 153.127 217.4V220.94C153.127 221.233 153.02 221.487 152.807 221.7ZM166.706 212.96C165.186 212.96 164.332 213.86 164.146 215.66C164.119 215.78 164.172 215.84 164.306 215.84H168.786C168.892 215.84 168.946 215.78 168.946 215.66C168.866 213.86 168.119 212.96 166.706 212.96ZM167.206 222.2C165.539 222.2 164.252 221.747 163.346 220.84C162.452 219.933 162.006 218.587 162.006 216.8C162.006 215.013 162.406 213.667 163.206 212.76C164.019 211.853 165.186 211.4 166.706 211.4C169.479 211.4 170.912 213.027 171.006 216.28C171.019 216.6 170.906 216.867 170.666 217.08C170.426 217.293 170.146 217.4 169.826 217.4H164.286C164.179 217.4 164.126 217.453 164.126 217.56C164.286 219.613 165.379 220.64 167.406 220.64C168.112 220.64 168.806 220.527 169.486 220.3C169.686 220.233 169.872 220.26 170.046 220.38C170.219 220.5 170.306 220.667 170.306 220.88C170.306 221.133 170.226 221.36 170.066 221.56C169.906 221.76 169.699 221.893 169.446 221.96C168.712 222.12 167.966 222.2 167.206 222.2ZM178.192 216.76C177.098 216.76 176.272 216.947 175.712 217.32C175.165 217.68 174.892 218.173 174.892 218.8C174.892 219.293 175.038 219.7 175.332 220.02C175.625 220.34 175.978 220.5 176.392 220.5C177.272 220.5 177.972 220.227 178.492 219.68C179.025 219.12 179.292 218.36 179.292 217.4V216.92C179.292 216.813 179.232 216.76 179.112 216.76H178.192ZM175.892 222.2C174.985 222.2 174.238 221.907 173.652 221.32C173.078 220.733 172.792 219.96 172.792 219C172.792 217.827 173.238 216.92 174.132 216.28C175.025 215.627 176.378 215.3 178.192 215.3H179.112C179.232 215.3 179.292 215.24 179.292 215.12V214.9C179.292 214.193 179.125 213.7 178.792 213.42C178.458 213.14 177.858 213 176.992 213C176.218 213 175.298 213.16 174.232 213.48C174.032 213.547 173.838 213.52 173.652 213.4C173.478 213.267 173.392 213.093 173.392 212.88C173.392 212.613 173.472 212.373 173.632 212.16C173.792 211.947 173.998 211.813 174.252 211.76C175.212 211.52 176.125 211.4 176.992 211.4C178.672 211.4 179.825 211.7 180.452 212.3C181.078 212.9 181.392 214 181.392 215.6V221.02C181.392 221.287 181.292 221.52 181.092 221.72C180.905 221.907 180.678 222 180.412 222C180.145 222 179.912 221.907 179.712 221.72C179.525 221.52 179.425 221.287 179.412 221.02L179.392 220.52C179.392 220.507 179.385 220.5 179.372 220.5C179.345 220.5 179.332 220.507 179.332 220.52C178.558 221.64 177.412 222.2 175.892 222.2ZM185.95 221.7C185.75 221.9 185.504 222 185.21 222C184.917 222 184.67 221.9 184.47 221.7C184.27 221.5 184.17 221.253 184.17 220.96V212.64C184.17 212.347 184.27 212.1 184.47 211.9C184.67 211.7 184.917 211.6 185.21 211.6C185.504 211.6 185.75 211.7 185.95 211.9C186.164 212.1 186.27 212.347 186.27 212.64V216.18C186.27 216.193 186.277 216.2 186.29 216.2L186.33 216.18L189.89 212.42C190.41 211.873 191.05 211.6 191.81 211.6H192.03C192.244 211.6 192.39 211.7 192.47 211.9C192.564 212.1 192.537 212.273 192.39 212.42L188.49 216.48C188.424 216.547 188.424 216.627 188.49 216.72L192.41 221.16C192.557 221.32 192.584 221.5 192.49 221.7C192.41 221.9 192.257 222 192.03 222H191.81C191.064 222 190.437 221.713 189.93 221.14L186.33 217.02C186.317 217.007 186.304 217 186.29 217C186.277 217 186.27 217.007 186.27 217.02V220.96C186.27 221.253 186.164 221.5 185.95 221.7ZM195.035 213.22C194.821 213.22 194.635 213.147 194.475 213C194.315 212.84 194.235 212.647 194.235 212.42C194.235 212.193 194.315 212 194.475 211.84C194.635 211.68 194.821 211.6 195.035 211.6H202.475C202.688 211.6 202.875 211.68 203.035 211.84C203.208 212 203.295 212.193 203.295 212.42C203.295 212.633 203.215 212.82 203.055 212.98C202.895 213.14 202.701 213.22 202.475 213.22H200.015C199.895 213.22 199.835 213.28 199.835 213.4V220.92C199.835 221.213 199.728 221.467 199.515 221.68C199.301 221.893 199.048 222 198.755 222C198.461 222 198.208 221.893 197.995 221.68C197.781 221.467 197.675 221.213 197.675 220.92V213.4C197.675 213.28 197.615 213.22 197.495 213.22H195.035ZM206.677 222C206.37 222 206.11 221.893 205.897 221.68C205.683 221.467 205.577 221.213 205.577 220.92V212.64C205.577 212.347 205.677 212.1 205.877 211.9C206.09 211.7 206.343 211.6 206.637 211.6C206.93 211.6 207.177 211.7 207.377 211.9C207.577 212.1 207.677 212.347 207.677 212.64V219.14L207.697 219.16H207.717L211.737 212.52C212.123 211.907 212.677 211.6 213.397 211.6C213.703 211.6 213.963 211.707 214.177 211.92C214.39 212.133 214.497 212.387 214.497 212.68V220.96C214.497 221.253 214.39 221.5 214.177 221.7C213.977 221.9 213.73 222 213.437 222C213.143 222 212.897 221.9 212.697 221.7C212.497 221.5 212.397 221.253 212.397 220.96V214.46L212.377 214.44H212.357L208.337 221.08C207.95 221.693 207.397 222 206.677 222ZM219.474 217.32V220.48C219.474 220.6 219.52 220.667 219.614 220.68C220.094 220.733 220.467 220.76 220.734 220.76C222.64 220.76 223.594 220.127 223.594 218.86C223.594 217.713 222.6 217.14 220.614 217.14H219.634C219.527 217.14 219.474 217.2 219.474 217.32ZM219.474 213.12V215.64C219.474 215.76 219.527 215.82 219.634 215.82H220.574C221.387 215.82 222.014 215.687 222.454 215.42C222.907 215.14 223.134 214.753 223.134 214.26C223.134 213.313 222.307 212.84 220.654 212.84C220.4 212.84 220.06 212.867 219.634 212.92C219.527 212.947 219.474 213.013 219.474 213.12ZM218.514 222.04C218.194 222.013 217.92 221.88 217.694 221.64C217.48 221.4 217.374 221.113 217.374 220.78V212.82C217.374 212.487 217.48 212.2 217.694 211.96C217.907 211.707 218.174 211.567 218.494 211.54C219.067 211.487 219.727 211.46 220.474 211.46C223.554 211.46 225.094 212.313 225.094 214.02C225.094 214.62 224.887 215.127 224.474 215.54C224.06 215.953 223.48 216.233 222.734 216.38L222.714 216.4H222.734C223.654 216.533 224.36 216.833 224.854 217.3C225.36 217.753 225.614 218.32 225.614 219C225.614 221.093 223.96 222.14 220.654 222.14C220 222.14 219.287 222.107 218.514 222.04ZM231.901 212.96C230.381 212.96 229.528 213.86 229.341 215.66C229.314 215.78 229.368 215.84 229.501 215.84H233.981C234.088 215.84 234.141 215.78 234.141 215.66C234.061 213.86 233.314 212.96 231.901 212.96ZM232.401 222.2C230.734 222.2 229.448 221.747 228.541 220.84C227.648 219.933 227.201 218.587 227.201 216.8C227.201 215.013 227.601 213.667 228.401 212.76C229.214 211.853 230.381 211.4 231.901 211.4C234.674 211.4 236.108 213.027 236.201 216.28C236.214 216.6 236.101 216.867 235.861 217.08C235.621 217.293 235.341 217.4 235.021 217.4H229.481C229.374 217.4 229.321 217.453 229.321 217.56C229.481 219.613 230.574 220.64 232.601 220.64C233.308 220.64 234.001 220.527 234.681 220.3C234.881 220.233 235.068 220.26 235.241 220.38C235.414 220.5 235.501 220.667 235.501 220.88C235.501 221.133 235.421 221.36 235.261 221.56C235.101 221.76 234.894 221.893 234.641 221.96C233.908 222.12 233.161 222.2 232.401 222.2ZM240.307 221.7C240.107 221.9 239.86 222 239.567 222C239.274 222 239.02 221.9 238.807 221.7C238.594 221.487 238.487 221.233 238.487 220.94V212.66C238.487 212.367 238.594 212.12 238.807 211.92C239.02 211.707 239.274 211.6 239.567 211.6C239.86 211.6 240.107 211.707 240.307 211.92C240.52 212.12 240.627 212.367 240.627 212.66V215.56C240.627 215.667 240.68 215.72 240.787 215.72H245.027C245.134 215.72 245.187 215.667 245.187 215.56V212.66C245.187 212.367 245.287 212.12 245.487 211.92C245.7 211.707 245.954 211.6 246.247 211.6C246.54 211.6 246.794 211.707 247.007 211.92C247.22 212.12 247.327 212.367 247.327 212.66V220.94C247.327 221.233 247.22 221.487 247.007 221.7C246.794 221.9 246.54 222 246.247 222C245.954 222 245.7 221.9 245.487 221.7C245.287 221.487 245.187 221.233 245.187 220.94V217.4C245.187 217.293 245.134 217.24 245.027 217.24H240.787C240.68 217.24 240.627 217.293 240.627 217.4V220.94C240.627 221.233 240.52 221.487 240.307 221.7Z" fill="#222429"/>
</svg>
