<svg width="138" height="46" viewBox="0 0 138 46" fill="none" xmlns="http://www.w3.org/2000/svg">
<path d="M30.2196 28.8682H25.8762L37.3655 13.7014C38.7496 11.8714 39.336 9.61597 39.0087 7.35379C38.6814 5.0916 37.4882 3.08602 35.6404 1.71521C34.1267 0.587493 32.3266 0 30.4651 0C30.281 0 30.0969 0.00675279 29.9128 0.0202584H8.79585C4.02971 0.0202584 0.149973 3.8626 0.149973 8.58279C0.149973 13.303 4.02971 17.1453 8.79585 17.1453H9.49816L13.8143 11.4662H8.78904C7.18668 11.4662 5.87753 10.1697 5.87753 8.58279C5.87753 6.99589 7.18668 5.69935 8.78904 5.69935H21.8056L1.73187 32.1973C0.34771 34.0273 -0.238683 36.2827 0.088606 38.5449C0.415895 40.8071 1.60914 42.8127 3.45695 44.1835C5.30477 45.5543 7.58216 46.135 9.86636 45.8109C12.1506 45.4868 14.1757 44.305 15.5598 42.475L21.5669 34.5473H30.2196C31.822 34.5473 33.1312 35.8438 33.1312 37.4307C33.1312 39.0176 31.822 40.3141 30.2196 40.3141H20.8374L16.5281 45.9932H30.2265C34.9926 45.9932 38.8723 42.1509 38.8723 37.4307C38.8723 32.7105 34.9926 28.8682 30.2265 28.8682H30.2196ZM10.9778 39.0649C10.5141 39.6794 9.83227 40.0778 9.06178 40.1858C8.92541 40.2061 8.78222 40.2129 8.64585 40.2129C8.01854 40.2129 7.4117 40.017 6.90712 39.6321C6.28664 39.1729 5.88435 38.4976 5.77525 37.7346C5.68661 37.1066 5.81616 36.4853 6.11618 35.9383H6.12299C6.63438 35.1077 7.55488 34.5405 8.61175 34.5405H14.4075L10.9846 39.0581L10.9778 39.0649ZM18.7032 28.8682H11.421L28.1195 6.83382C28.5832 6.21932 29.2651 5.8209 30.0355 5.71286C30.806 5.60481 31.5697 5.80065 32.197 6.25984C32.8175 6.71902 33.2198 7.3943 33.3289 8.15737C33.438 8.92043 33.2402 9.67675 32.7766 10.298L31.6106 11.8376C31.5083 11.8646 31.4129 11.8917 31.3106 11.9052C30.9833 11.9659 30.6424 12.0065 30.3083 12.0267C30.3287 12.0875 30.356 12.1483 30.3697 12.2158C30.4174 12.4656 30.1992 12.702 29.9537 12.6345C29.9537 12.9113 29.6401 13.0937 29.381 12.8843C29.3605 12.8708 29.3469 12.8506 29.3332 12.8371C29.3332 12.8573 29.3469 12.8708 29.3469 12.8911C29.3878 13.1072 29.2446 13.2692 29.0673 13.2962C29.04 13.33 29.0264 13.3638 28.9855 13.384C29.1287 13.6474 29.2651 13.9107 29.381 14.1809L29.3946 14.1944C29.3946 14.1944 29.4219 14.2484 29.4287 14.2754C29.5173 14.505 29.3537 14.6536 29.156 14.6738C29.2037 14.7548 29.2378 14.8359 29.2787 14.9169L18.7032 28.8682Z" fill="url(#paint0_linear_15_986)"/>
<path d="M8.79585 2.55957H10.405C10.5687 2.55957 10.705 2.69463 10.705 2.85669C10.705 3.01876 10.5687 3.15382 10.405 3.15382H8.79585C8.63221 3.15382 8.49584 3.01876 8.49584 2.85669C8.49584 2.69463 8.63221 2.55957 8.79585 2.55957ZM12.8188 2.55957H14.4279C14.5916 2.55957 14.728 2.69463 14.728 2.85669C14.728 3.01876 14.5916 3.15382 14.4279 3.15382H12.8188C12.6551 3.15382 12.5188 3.01876 12.5188 2.85669C12.5188 2.69463 12.6551 2.55957 12.8188 2.55957ZM16.8417 2.55957H18.4509C18.6145 2.55957 18.7509 2.69463 18.7509 2.85669C18.7509 3.01876 18.6145 3.15382 18.4509 3.15382H16.8417C16.6781 3.15382 16.5417 3.01876 16.5417 2.85669C16.5417 2.69463 16.6781 2.55957 16.8417 2.55957ZM20.8646 2.55957H22.4738C22.6374 2.55957 22.7738 2.69463 22.7738 2.85669C22.7738 3.01876 22.6374 3.15382 22.4738 3.15382H20.8646C20.701 3.15382 20.5646 3.01876 20.5646 2.85669C20.5646 2.69463 20.701 2.55957 20.8646 2.55957ZM7.3026 2.7554C7.43897 2.7554 7.55488 2.84319 7.59579 2.97824C7.6367 3.14031 7.54124 3.30238 7.38442 3.34289C6.89349 3.4712 6.42301 3.66703 5.98662 3.93039C5.84343 4.01817 5.65933 3.9709 5.57069 3.82909C5.48205 3.68729 5.52978 3.50496 5.67297 3.41717C6.15708 3.1268 6.68211 2.91072 7.22759 2.76215C7.25487 2.7554 7.28214 2.74865 7.3026 2.74865V2.7554ZM4.07062 4.99057C4.13198 4.99057 4.19335 5.01083 4.24108 5.0446C4.37745 5.13914 4.41154 5.32821 4.31608 5.46327C4.02289 5.87519 3.79106 6.32763 3.6206 6.80032C3.56605 6.95564 3.39558 7.03667 3.23876 6.98265C3.08193 6.92862 3.00011 6.7598 3.05466 6.60449C3.23876 6.07777 3.49786 5.57807 3.82515 5.11888C3.88652 5.03784 3.97516 4.99057 4.07062 4.99057ZM3.0342 8.75863C3.19103 8.75863 3.32058 8.88018 3.33422 9.03549C3.37513 9.54195 3.48423 10.0349 3.66833 10.5008C3.72969 10.6562 3.64787 10.825 3.49104 10.8858C3.33422 10.9465 3.16376 10.8655 3.10239 10.7102C2.90465 10.1902 2.78192 9.63649 2.73419 9.08276C2.72055 8.9207 2.84328 8.77214 3.01375 8.75863H3.04102H3.0342ZM4.67747 12.3038C4.75247 12.3038 4.83429 12.3309 4.89566 12.3916C5.25022 12.7495 5.65933 13.0602 6.10254 13.31C6.24573 13.391 6.30027 13.5734 6.21845 13.7152C6.13663 13.857 5.95253 13.911 5.80934 13.83C5.31841 13.5531 4.86838 13.2087 4.47291 12.8103C4.357 12.6955 4.357 12.5064 4.47291 12.3849C4.53428 12.3309 4.60928 12.2971 4.68428 12.2971L4.67747 12.3038ZM8.23673 13.9853C8.23673 13.9853 8.25719 13.9853 8.26401 13.9853C8.44129 13.9988 8.61175 14.0123 8.79585 14.0123H9.8459C10.0095 14.0123 10.1459 14.1474 10.1459 14.3094C10.1459 14.4715 10.0095 14.6065 9.8459 14.6065H8.79585C8.59811 14.6065 8.40038 14.5998 8.20946 14.5795C8.04581 14.566 7.92308 14.4175 7.93672 14.2554C7.95036 14.1001 8.07991 13.9853 8.23673 13.9853Z" fill="white"/>
<path d="M24.3557 31.4141H25.9649C26.1285 31.4141 26.2649 31.5491 26.2649 31.7112C26.2649 31.8733 26.1285 32.0083 25.9649 32.0083H24.3557C24.1921 32.0083 24.0557 31.8733 24.0557 31.7112C24.0557 31.5491 24.1921 31.4141 24.3557 31.4141ZM28.3786 31.4141H29.9878C30.1515 31.4141 30.2878 31.5491 30.2878 31.7112C30.2878 31.8733 30.1515 32.0083 29.9878 32.0083H28.3786C28.215 32.0083 28.0786 31.8733 28.0786 31.7112C28.0786 31.5491 28.215 31.4141 28.3786 31.4141ZM32.3607 31.7652C32.3948 31.7652 32.4289 31.7652 32.4629 31.7855C32.9948 31.9813 33.4925 32.2447 33.9494 32.5755C34.0858 32.6701 34.113 32.8592 34.0176 32.9942C33.9221 33.1293 33.7312 33.1563 33.5948 33.0617C33.1857 32.7646 32.7357 32.5215 32.2584 32.3459C32.1016 32.2919 32.0197 32.1164 32.0811 31.961C32.1288 31.8395 32.2379 31.7652 32.3675 31.7652H32.3607ZM35.3745 34.284C35.4767 34.284 35.579 34.338 35.6336 34.4326C35.9199 34.9188 36.1313 35.4387 36.2609 35.9857C36.3018 36.1478 36.1995 36.3098 36.0427 36.3504C35.879 36.3909 35.7154 36.2896 35.6745 36.1343C35.5517 35.6481 35.3608 35.1754 35.1085 34.7364C35.0267 34.5946 35.0744 34.4123 35.2176 34.3313C35.2654 34.3043 35.3199 34.2907 35.3676 34.2907L35.3745 34.284ZM36.0563 38.1263C36.0563 38.1263 36.0904 38.1263 36.1109 38.1263C36.2745 38.1533 36.3836 38.3087 36.3563 38.4707C36.2609 39.0245 36.0836 39.5579 35.8381 40.0644C35.7631 40.2129 35.5858 40.2737 35.4358 40.1994C35.2858 40.1252 35.2244 39.9496 35.2994 39.801C35.5245 39.3486 35.6813 38.8691 35.7699 38.3694C35.7972 38.2276 35.9199 38.1196 36.0699 38.1196L36.0563 38.1263ZM34.0926 41.5095C34.1812 41.5095 34.263 41.5432 34.3244 41.6175C34.4335 41.7458 34.413 41.9349 34.2903 42.0362C33.8607 42.4009 33.3766 42.698 32.8652 42.9276C32.7152 42.9951 32.5379 42.9276 32.4629 42.779C32.3948 42.6304 32.4629 42.4549 32.613 42.3873C33.0766 42.178 33.5062 41.9079 33.9017 41.5838C33.9562 41.5365 34.0244 41.5162 34.0994 41.5162L34.0926 41.5095ZM20.7419 42.86H22.3511C22.5147 42.86 22.6511 42.9951 22.6511 43.1572C22.6511 43.3192 22.5147 43.4543 22.3511 43.4543H20.7419C20.5783 43.4543 20.4419 43.3192 20.4419 43.1572C20.4419 42.9951 20.5783 42.86 20.7419 42.86ZM24.7648 42.86H26.374C26.5377 42.86 26.674 42.9951 26.674 43.1572C26.674 43.3192 26.5377 43.4543 26.374 43.4543H24.7648C24.6012 43.4543 24.4648 43.3192 24.4648 43.1572C24.4648 42.9951 24.6012 42.86 24.7648 42.86ZM28.7878 42.86H30.3697C30.5333 42.86 30.6833 42.9951 30.6833 43.1572C30.6833 43.3192 30.5606 43.4543 30.3969 43.4543H28.7878C28.6241 43.4543 28.4877 43.3192 28.4877 43.1572C28.4877 42.9951 28.6241 42.86 28.7878 42.86Z" fill="white"/>
<path d="M10.3027 31.4141H11.9119C12.0755 31.4141 12.2119 31.5491 12.2119 31.7112C12.2119 31.8733 12.0755 32.0083 11.9119 32.0083H10.3027C10.1391 32.0083 10.0027 31.8733 10.0027 31.7112C10.0027 31.5491 10.1391 31.4141 10.3027 31.4141ZM14.3256 31.4141H15.9348C16.0984 31.4141 16.2348 31.5491 16.2348 31.7112C16.2348 31.8733 16.0984 32.0083 15.9348 32.0083H14.3256C14.162 32.0083 14.0256 31.8733 14.0256 31.7112C14.0256 31.5491 14.162 31.4141 14.3256 31.4141Z" fill="white"/>
<path d="M30.7448 17.6787C30.8061 17.6787 30.8743 17.699 30.9289 17.7395C31.0584 17.8408 31.0857 18.0299 30.9834 18.1582L30.0015 19.4209C29.8993 19.5492 29.7084 19.5762 29.5788 19.475C29.4492 19.3737 29.422 19.1846 29.5243 19.0563L30.5061 17.7935C30.5675 17.7192 30.6561 17.6787 30.7448 17.6787ZM28.2901 20.839C28.3515 20.839 28.4196 20.8593 28.4742 20.8998C28.6037 21.0011 28.631 21.1902 28.5287 21.3185L27.5469 22.5812C27.4446 22.7095 27.2537 22.7365 27.1241 22.6353C26.9946 22.534 26.9673 22.3449 27.0696 22.2166L28.0515 20.9538C28.1128 20.8795 28.2015 20.839 28.2901 20.839ZM25.8354 23.9993C25.8968 23.9993 25.965 24.0196 26.0195 24.0601C26.1491 24.1614 26.1764 24.3505 26.0741 24.4788L25.0922 25.7415C24.9899 25.8698 24.799 25.8969 24.6695 25.7956C24.5399 25.6943 24.5126 25.5052 24.6149 25.3769L25.5968 24.1141C25.6582 24.0398 25.7468 23.9993 25.8354 23.9993ZM23.3808 27.1596C23.4421 27.1596 23.5103 27.1799 23.5649 27.2204C23.6944 27.3217 23.7217 27.5108 23.6194 27.6391L22.6375 28.9018C22.5353 29.0301 22.3444 29.0572 22.2148 28.9559C22.0852 28.8546 22.058 28.6655 22.1603 28.5372L23.1421 27.2744C23.2035 27.2001 23.2921 27.1596 23.3808 27.1596Z" fill="white"/>
<path d="M21.5398 10.5547C21.6011 10.5547 21.6693 10.5749 21.7239 10.6155C21.8602 10.7168 21.8807 10.8991 21.7852 11.0341L20.817 12.3104C20.7147 12.4455 20.5306 12.4725 20.3943 12.3712C20.2579 12.2699 20.2374 12.0876 20.3329 11.9525L21.3011 10.6762C21.3625 10.5952 21.4511 10.5547 21.5398 10.5547Z" fill="white"/>
<path d="M16.6985 16.875C16.7599 16.875 16.828 16.8952 16.8826 16.9358C17.019 17.037 17.0394 17.2194 16.944 17.3544L15.9757 18.6307C15.8735 18.7658 15.6894 18.7928 15.553 18.6915C15.4166 18.5902 15.3962 18.4079 15.4916 18.2728L16.4598 16.9965C16.5212 16.9155 16.6099 16.875 16.6985 16.875ZM14.2847 20.0623C14.3461 20.0623 14.4143 20.0826 14.4688 20.1231C14.6052 20.2244 14.6257 20.4067 14.5302 20.5417L13.562 21.818C13.4597 21.9531 13.2756 21.9801 13.1392 21.8788C13.0029 21.7775 12.9824 21.5952 13.0779 21.4601L14.0461 20.1838C14.1075 20.1028 14.1961 20.0623 14.2847 20.0623ZM19.1054 13.7012C19.1668 13.7012 19.235 13.7214 19.2895 13.7619C19.4259 13.8632 19.4464 14.0456 19.3509 14.1806L18.3827 15.4569C18.2804 15.592 18.0963 15.619 17.9599 15.5177C17.8235 15.4164 17.8031 15.2341 17.8986 15.099L18.8668 13.8227C18.9281 13.7417 19.0168 13.7012 19.1054 13.7012ZM11.8642 23.2496C11.9255 23.2496 11.9937 23.2699 12.0483 23.3104C12.1846 23.4117 12.2051 23.594 12.1096 23.7291L11.1414 25.0053C11.0391 25.1404 10.855 25.1674 10.7187 25.0661C10.5823 24.9648 10.5618 24.7825 10.6573 24.6474L11.6255 23.3712C11.6869 23.2901 11.7755 23.2496 11.8642 23.2496ZM9.45041 26.4369C9.51177 26.4369 9.57996 26.4572 9.63451 26.4977C9.77088 26.599 9.79133 26.7813 9.69587 26.9164L8.72765 28.1927C8.62537 28.3277 8.44127 28.3547 8.3049 28.2534C8.16853 28.1521 8.14807 27.9698 8.24353 27.8348L9.21176 26.5585C9.27313 26.4774 9.36177 26.4369 9.45041 26.4369Z" fill="white"/>
<path d="M4.02974 33.6015C4.0911 33.6015 4.15247 33.6217 4.20702 33.6623C4.34339 33.7635 4.37066 33.9459 4.26839 34.0809C3.98883 34.4456 3.76382 34.844 3.58653 35.2627C3.52517 35.418 3.34789 35.4855 3.19106 35.4247C3.03423 35.364 2.96605 35.1884 3.02741 35.0331C3.22515 34.5671 3.47744 34.1282 3.78427 33.7163C3.84564 33.6352 3.93428 33.5947 4.02292 33.5947L4.02974 33.6015ZM17.7418 34.5806C17.8031 34.5806 17.8713 34.6009 17.9259 34.6414C18.0622 34.7427 18.0827 34.925 17.9872 35.0601L17.019 36.3364C16.9167 36.4714 16.7326 36.4984 16.5963 36.3971C16.4599 36.2958 16.4394 36.1135 16.5349 35.9785L17.5031 34.7022C17.5645 34.6212 17.6531 34.5806 17.7418 34.5806ZM2.87741 37.1805C3.04105 37.1805 3.17742 37.3088 3.17742 37.4708C3.19106 37.9773 3.27288 38.477 3.42971 38.9564C3.47744 39.1118 3.3888 39.2806 3.23197 39.3278C3.07514 39.3751 2.90468 39.2873 2.85695 39.132C2.68649 38.5985 2.59785 38.0448 2.57739 37.4843C2.57739 37.3223 2.70694 37.1805 2.87059 37.1805H2.87741ZM15.328 37.768C15.3894 37.768 15.4576 37.7882 15.5121 37.8287C15.6485 37.93 15.6689 38.1123 15.5735 38.2474L14.6053 39.5237C14.503 39.6587 14.3189 39.6857 14.1825 39.5844C14.0461 39.4832 14.0257 39.3008 14.1211 39.1658L15.0894 37.8895C15.1507 37.8085 15.2394 37.768 15.328 37.768ZM4.31611 40.8202C4.39794 40.8202 4.47976 40.854 4.54113 40.9215C4.78659 41.1984 5.06615 41.455 5.36617 41.6778C5.47526 41.7588 5.58436 41.8331 5.69346 41.9074C5.83664 41.9952 5.87756 42.1843 5.7821 42.3193C5.69346 42.4611 5.50254 42.5017 5.36617 42.4071C5.24343 42.3261 5.1207 42.245 5.00479 42.1573C4.67068 41.9074 4.36384 41.6238 4.0911 41.3199C3.98201 41.1984 3.99564 41.0093 4.11838 40.9012C4.17293 40.854 4.24793 40.827 4.31611 40.827V40.8202ZM12.887 40.935C12.962 40.935 13.037 40.962 13.0915 41.016C13.2143 41.1308 13.2211 41.3199 13.1052 41.4415C12.7233 41.8534 12.2801 42.2045 11.796 42.4949C11.6528 42.5827 11.4687 42.5354 11.3801 42.3936C11.2915 42.2518 11.3392 42.0695 11.4824 41.9817C11.9188 41.7183 12.3142 41.4009 12.662 41.0295C12.7233 40.9688 12.8052 40.935 12.8802 40.935H12.887ZM7.7731 42.6907C7.7731 42.6907 7.80038 42.6907 7.82083 42.6907C8.10039 42.7313 8.37313 42.7583 8.65951 42.7515C8.88452 42.7515 9.11635 42.738 9.34136 42.711C9.49819 42.6907 9.65501 42.8055 9.67547 42.9676C9.69593 43.1297 9.58001 43.2782 9.41637 43.2985C9.16408 43.3323 8.91861 43.3593 8.65269 43.3458C8.34586 43.3458 8.03221 43.3255 7.73219 43.2782C7.56855 43.2512 7.45263 43.1027 7.47991 42.9406C7.50036 42.792 7.62991 42.684 7.77992 42.684L7.7731 42.6907Z" fill="white"/>
<path d="M30.5129 0C31.3448 0 32.1903 0.12155 33.0289 0.371403C37.5632 1.74897 40.1202 6.51644 38.7292 11.007C38.0542 13.1814 36.5677 14.9642 34.5426 16.0311C32.5107 17.0981 30.1856 17.3209 27.99 16.6524C23.4557 15.2748 20.8988 10.5073 22.2898 6.01674C23.4216 2.36348 26.8309 0 30.5129 0ZM31.3311 5.84792C29.8447 5.39548 28.2696 6.22607 27.8128 7.69818C27.3559 9.17029 28.1946 10.7302 29.681 11.1826C31.1675 11.6351 32.7426 10.8045 33.1994 9.33235C33.6562 7.86025 32.8176 6.30035 31.3311 5.84792Z" fill="url(#paint1_linear_15_986)"/>
<path d="M30.5948 2.57316C31.1539 2.57991 31.7198 2.6677 32.2653 2.83652C32.4221 2.88379 32.5176 3.05261 32.463 3.20792C32.4153 3.36324 32.2449 3.45102 32.088 3.40375C31.5971 3.25519 31.0925 3.17416 30.588 3.1674C30.4243 3.1674 30.2879 3.03235 30.2879 2.86353C30.2879 2.70146 30.4243 2.56641 30.588 2.56641L30.5948 2.57316ZM28.2424 3.0391C28.3583 3.0391 28.4674 3.10663 28.5219 3.22143C28.5901 3.36999 28.5219 3.54556 28.3651 3.61309C27.8946 3.81567 27.4583 4.07903 27.0696 4.39641C26.94 4.50446 26.7491 4.4842 26.6468 4.3559C26.5378 4.22759 26.5582 4.03851 26.6878 3.93722C27.1241 3.57932 27.6083 3.28895 28.1265 3.06611C28.1674 3.05261 28.2083 3.0391 28.2492 3.0391H28.2424ZM34.0108 3.7684C34.0722 3.7684 34.1404 3.78866 34.195 3.82918C34.6382 4.17357 35.0336 4.57874 35.3677 5.03117C35.4632 5.16623 35.4359 5.34855 35.2995 5.44985C35.1632 5.54439 34.9791 5.51737 34.8768 5.38232C34.5768 4.97715 34.2222 4.6125 33.8199 4.30187C33.6904 4.20058 33.6631 4.0115 33.7654 3.8832C33.8267 3.80892 33.9154 3.7684 34.004 3.7684H34.0108ZM25.3854 5.72671C25.4332 5.72671 25.4741 5.73346 25.515 5.76047C25.665 5.83476 25.7263 6.01033 25.6513 6.15889C25.5218 6.4155 25.4195 6.68561 25.3309 6.96247C25.2695 7.17181 25.215 7.38114 25.174 7.59048C25.1468 7.75255 24.9899 7.86059 24.8263 7.83358C24.6627 7.80657 24.5536 7.65126 24.5808 7.48919C24.6217 7.25959 24.6831 7.02325 24.7513 6.79365C24.8468 6.48302 24.9695 6.1859 25.1059 5.90228C25.1604 5.79424 25.2627 5.73346 25.3786 5.73346L25.3854 5.72671ZM36.0905 7.07727C36.2337 7.07727 36.3564 7.17181 36.3837 7.31362C36.4655 7.71203 36.5132 8.1172 36.5132 8.52912C36.5132 8.68443 36.5132 8.83299 36.4928 8.98831C36.4792 9.15037 36.3428 9.27192 36.1655 9.26517C36.0019 9.25167 35.8723 9.10986 35.8859 8.94104C35.8996 8.80598 35.8996 8.66417 35.8996 8.52912C35.8996 8.16447 35.8587 7.79982 35.7837 7.44192C35.7496 7.27985 35.8518 7.12454 36.0155 7.09077C36.0359 7.09077 36.0564 7.09077 36.0769 7.09077L36.0905 7.07727ZM24.9627 9.60956C25.099 9.60956 25.2218 9.69735 25.2559 9.83241C25.3786 10.3186 25.5763 10.7913 25.8286 11.2235C25.9104 11.3653 25.8627 11.5476 25.7195 11.6286C25.5763 11.7097 25.3922 11.6624 25.3104 11.5206C25.024 11.0344 24.8127 10.5144 24.6695 9.97422C24.6286 9.81215 24.724 9.65008 24.8877 9.60956C24.9149 9.60956 24.9354 9.60281 24.9627 9.60281V9.60956ZM35.5109 10.9399C35.5587 10.9399 35.6064 10.9534 35.6541 10.9736C35.7973 11.0547 35.8519 11.237 35.7768 11.3788C35.5041 11.8717 35.17 12.3242 34.7677 12.7226C34.6518 12.8374 34.4609 12.8442 34.3381 12.7226C34.2222 12.6078 34.2222 12.4187 34.3381 12.2972C34.6995 11.9393 34.9995 11.5341 35.245 11.0884C35.2995 10.9871 35.4018 10.9331 35.5109 10.9331V10.9399ZM27.1855 12.8374C27.2469 12.8374 27.3082 12.8577 27.3628 12.8914C27.7787 13.1818 28.2287 13.4181 28.7129 13.5802C28.8697 13.6342 28.9515 13.803 28.897 13.9584C28.8424 14.1137 28.6719 14.1947 28.5151 14.1407C27.9765 13.9516 27.4719 13.695 27.015 13.3709C26.8787 13.2763 26.8446 13.0873 26.9469 12.9522C27.0082 12.8712 27.0969 12.8239 27.1923 12.8239L27.1855 12.8374ZM32.5517 13.5127C32.6744 13.5127 32.7903 13.587 32.8312 13.7018C32.8926 13.8571 32.8108 14.0259 32.6608 14.0867C32.1289 14.2892 31.5766 14.4176 31.0175 14.4648C30.8471 14.4783 30.7039 14.3568 30.6902 14.1947C30.6766 14.0326 30.7993 13.8841 30.963 13.8706C31.4675 13.8301 31.9653 13.7153 32.4426 13.5329C32.4767 13.5194 32.5176 13.5127 32.5517 13.5127Z" fill="white"/>
<path d="M73.8992 27.9303C74.6696 27.12 75.7129 26.7148 77.0425 26.7148C78.3721 26.7148 79.4153 27.12 80.1858 27.9303C80.9563 28.7407 81.3382 29.8549 81.3382 31.273C81.3382 32.6911 80.9563 33.8053 80.1858 34.6156C79.4153 35.4259 78.3721 35.8311 77.0425 35.8311C75.7129 35.8311 74.6696 35.4259 73.8992 34.6156C73.1287 33.8053 72.7468 32.6911 72.7468 31.273C72.7468 29.8549 73.1287 28.7407 73.8992 27.9303ZM75.2629 31.273C75.2629 32.9747 75.8561 33.8255 77.0425 33.8255C78.2289 33.8255 78.8221 32.9747 78.8221 31.273C78.8221 29.5713 78.2289 28.7204 77.0425 28.7204C75.8561 28.7204 75.2629 29.5713 75.2629 31.273Z" fill="#E20917"/>
<path d="M58.1825 26.8232C57.6371 26.8232 56.6075 26.8367 56.6075 26.8367C55.9802 26.8705 55.4756 27.3837 55.4756 28.0185V34.5214C55.4756 35.1764 56.0143 35.7099 56.6756 35.7099C57.337 35.7099 57.8348 35.2102 57.8689 34.5822V32.9818C57.8689 32.9818 58.4962 32.9818 58.6735 32.9818C59.8735 32.9818 60.7736 32.6982 61.4418 32.0904C62.035 31.5569 62.3896 30.8006 62.3896 29.9295C62.3896 28.7343 61.6873 27.5255 60.2485 27.0663C59.6758 26.884 58.9803 26.83 58.1825 26.83V26.8232ZM58.6189 31.1788C58.5098 31.1788 57.8757 31.1788 57.8757 31.1788V28.579C57.8757 28.579 58.2712 28.579 58.428 28.579C59.2121 28.5655 59.7508 28.6735 60.0917 28.9909C60.3304 29.207 60.5008 29.5514 60.494 29.9295C60.494 30.4765 60.1735 30.9019 59.6553 31.091C59.369 31.199 59.0553 31.1788 58.6189 31.1788Z" fill="#E20917"/>
<path d="M85.361 26.8232C84.8155 26.8232 83.7859 26.8367 83.7859 26.8367C83.1586 26.8705 82.6541 27.3837 82.6541 28.0185V34.5214C82.6541 35.1764 83.1927 35.7099 83.8541 35.7099C84.5155 35.7099 85.0133 35.2102 85.0474 34.5822V32.9818C85.0474 32.9818 85.6747 32.9818 85.8519 32.9818C87.052 32.9818 87.952 32.6982 88.6203 32.0904C89.2135 31.5569 89.568 30.8006 89.568 29.9295C89.568 28.7343 88.8657 27.5255 87.427 27.0663C86.8543 26.884 86.1588 26.83 85.361 26.83V26.8232ZM85.7974 31.1788C85.6883 31.1788 85.0542 31.1788 85.0542 31.1788V28.579C85.0542 28.579 85.4496 28.579 85.6065 28.579C86.3906 28.5655 86.9293 28.6735 87.2702 28.9909C87.5088 29.207 87.6793 29.5514 87.6725 29.9295C87.6725 30.4765 87.352 30.9019 86.8338 31.091C86.5474 31.199 86.2338 31.1788 85.7974 31.1788Z" fill="#E20917"/>
<path d="M128.079 35.4736C129.525 35.0145 130.22 33.8057 130.22 32.6105C130.22 31.7394 129.866 30.983 129.272 30.4496C128.604 29.8418 127.704 29.5582 126.504 29.5582C126.327 29.5582 125.706 29.5582 125.706 29.5582V27.9578C125.665 27.3298 125.147 26.8301 124.506 26.8301C123.865 26.8301 123.306 27.3635 123.306 28.0186V34.5215C123.306 35.1563 123.804 35.6627 124.438 35.7032C124.438 35.7032 125.468 35.7167 126.013 35.7167C126.811 35.7167 127.506 35.6627 128.079 35.4804V35.4736ZM127.493 31.4422C128.004 31.6313 128.325 32.0635 128.331 32.6105C128.331 32.9886 128.168 33.333 127.929 33.5491C127.588 33.8665 127.05 33.9678 126.265 33.961C126.109 33.961 125.713 33.961 125.713 33.961V31.3612C125.713 31.3612 126.354 31.3612 126.456 31.3612C126.9 31.3612 127.206 31.3477 127.493 31.449V31.4422Z" fill="#E20917"/>
<path d="M53.7504 28.0118C53.7504 27.3703 53.239 26.8503 52.5981 26.8301C52.5981 26.8301 47.8592 26.8301 47.8456 26.8301C47.1842 26.8301 46.6455 27.3635 46.6455 28.0186V34.535C46.666 35.1833 47.2046 35.71 47.866 35.71C48.5274 35.71 49.0388 35.2103 49.0865 34.5755V28.7884H51.3026C51.3026 28.7884 51.3026 34.4877 51.3026 34.5012C51.3026 35.1698 51.8549 35.7167 52.5299 35.7167C53.2049 35.7167 53.7504 35.1765 53.7572 34.508V28.0321L53.7504 28.0118Z" fill="#E20917"/>
<path d="M105.346 26.8301H100.219C99.6732 26.8436 99.23 27.2825 99.23 27.8295C99.23 28.3765 99.68 28.8289 100.239 28.8289C100.246 28.8289 100.253 28.8289 100.26 28.8289H101.426C101.501 28.8289 101.535 28.8694 101.535 28.9369V34.5012C101.562 35.163 102.107 35.6897 102.782 35.6897C103.457 35.6897 103.982 35.1765 104.03 34.5283V34.4945C104.03 34.4945 104.03 34.4675 104.03 34.4472C104.03 34.427 104.03 34.4202 104.03 34.4V28.9369C104.03 28.8627 104.064 28.8289 104.139 28.8289H105.292C105.292 28.8289 105.312 28.8289 105.326 28.8289C105.885 28.8289 106.335 28.3832 106.335 27.8295C106.335 27.2758 105.885 26.8301 105.333 26.8301H105.346Z" fill="#E20917"/>
<path d="M121.172 26.8301H116.044C115.499 26.8436 115.056 27.2825 115.056 27.8295C115.056 28.3765 115.506 28.8289 116.065 28.8289C116.072 28.8289 116.078 28.8289 116.085 28.8289H117.251C117.326 28.8289 117.36 28.8694 117.36 28.9369V34.5012C117.388 35.163 117.933 35.6897 118.608 35.6897C119.283 35.6897 119.808 35.1765 119.856 34.5283V34.4945C119.856 34.4945 119.856 34.4675 119.856 34.4472C119.856 34.427 119.856 34.4202 119.856 34.4V28.9369C119.856 28.8627 119.89 28.8289 119.965 28.8289H121.117C121.117 28.8289 121.138 28.8289 121.151 28.8289C121.711 28.8289 122.161 28.3832 122.161 27.8295C122.161 27.2758 121.711 26.8301 121.158 26.8301H121.172Z" fill="#E20917"/>
<path d="M112.758 33.7643L110.371 33.7508C110.296 33.7508 110.262 33.717 110.262 33.6427V32.1504C110.262 32.0829 110.296 32.0558 110.371 32.0558H112.56C113.051 32.0288 113.447 31.6372 113.447 31.1442C113.447 30.6513 113.044 30.2528 112.553 30.2393H110.371C110.296 30.2393 110.262 30.1988 110.262 30.1245V28.8753C110.262 28.8077 110.296 28.7807 110.371 28.7807H112.731C113.269 28.7807 113.699 28.3418 113.699 27.8083C113.699 27.2749 113.262 26.8359 112.717 26.8359H108.769C108.23 26.8359 107.794 27.2749 107.794 27.8083V34.7435C107.794 35.2769 108.23 35.7159 108.776 35.7159H112.717C113.256 35.7159 113.699 35.2837 113.699 34.7435C113.699 34.2032 113.283 33.7981 112.758 33.7778V33.7643Z" fill="#E20917"/>
<path d="M70.9672 28.2481C70.9672 27.4648 70.3262 26.8232 69.5285 26.8232C68.9966 26.8232 68.5398 27.1136 68.2875 27.539L66.201 31.6785C66.201 31.6785 66.201 31.692 66.1874 31.692C66.1806 31.692 66.1738 31.692 66.1738 31.6785C66.1738 31.6785 66.1738 27.9915 66.1738 27.978C66.1738 27.3432 65.6487 26.8232 65.0078 26.8232C65.001 26.8232 64.9941 26.8232 64.9873 26.8232C64.3668 26.8367 63.8623 27.3365 63.8486 27.951V34.2783C63.8486 35.0616 64.4896 35.7032 65.2805 35.7032C65.8124 35.7032 66.276 35.4128 66.5215 34.9806L68.608 30.8479C68.608 30.8479 68.608 30.8344 68.6216 30.8344C68.6284 30.8344 68.6352 30.8344 68.6352 30.8479V34.6227C68.683 35.2237 69.1875 35.7032 69.8012 35.7032C70.4149 35.7032 70.9603 35.1899 70.9672 34.5619V28.2481Z" fill="#E20917"/>
<path d="M97.8866 28.2481C97.8866 27.4648 97.2457 26.8232 96.4479 26.8232C95.916 26.8232 95.4592 27.1136 95.2069 27.539L93.1205 31.6785C93.1205 31.6785 93.1205 31.692 93.1068 31.692C93.1 31.692 93.0932 31.692 93.0932 31.6785C93.0932 31.6785 93.0932 27.9915 93.0932 27.978C93.0932 27.3432 92.5682 26.8232 91.9272 26.8232C91.9204 26.8232 91.9136 26.8232 91.9068 26.8232C91.2863 26.8367 90.7817 27.3365 90.7681 27.951V34.2783C90.7681 35.0616 91.409 35.7032 92.2 35.7032C92.7318 35.7032 93.1955 35.4128 93.4409 34.9806L95.5274 30.8479C95.5274 30.8479 95.5274 30.8344 95.541 30.8344C95.5478 30.8344 95.5547 30.8344 95.5547 30.8479V34.6227C95.6024 35.2237 96.107 35.7032 96.7206 35.7032C97.3343 35.7032 97.8798 35.1899 97.8866 34.5619V28.2481Z" fill="#E20917"/>
<path d="M132.129 35.71C131.454 35.71 130.902 35.163 130.902 34.4945V28.0456C130.902 27.3771 131.454 26.8301 132.129 26.8301C132.804 26.8301 133.357 27.3771 133.357 28.0456V34.4945C133.357 35.163 132.804 35.71 132.129 35.71Z" fill="#E20917"/>
<path d="M136.588 35.7095C137.263 35.7095 137.809 35.1683 137.809 34.5007C137.809 33.8332 137.263 33.292 136.588 33.292C135.914 33.292 135.368 33.8332 135.368 34.5007C135.368 35.1683 135.914 35.7095 136.588 35.7095Z" fill="#E20917"/>
<path d="M136.602 32.7995C135.988 32.7995 135.47 32.3268 135.429 31.719L135.184 28.3156C135.129 27.5053 135.77 26.8232 136.589 26.8232C137.4 26.8232 138.048 27.5053 137.993 28.3089L137.775 31.7123C137.734 32.3268 137.223 32.7995 136.602 32.7995Z" fill="#E20917"/>
<path d="M69.6784 21.1771C69.6784 20.6504 69.2488 20.225 68.717 20.225C68.6215 20.225 68.5329 20.2385 68.4442 20.2655H68.4238C67.9397 20.4073 67.4419 20.4816 66.9237 20.4816C66.2555 20.4816 65.7168 20.252 65.3145 19.7928C64.9123 19.3336 64.7145 18.6854 64.7145 17.8413C64.7145 16.9972 64.8986 16.3354 65.2668 15.8897C65.635 15.444 66.1464 15.2279 66.801 15.2279C67.2851 15.2279 67.7829 15.3022 68.2806 15.444C68.3556 15.4643 68.4306 15.471 68.5124 15.471C69.0511 15.471 69.4943 15.0388 69.4943 14.4986C69.4943 14.1205 69.2761 13.7963 68.9556 13.6343C68.792 13.5465 68.4443 13.4587 68.267 13.4249C68.2397 13.4249 68.1579 13.4114 68.1579 13.4114C67.6328 13.3236 67.0805 13.2764 66.4942 13.2764C65.1373 13.2764 64.0804 13.6748 63.3304 14.4649C62.5803 15.2617 62.1985 16.3826 62.1985 17.8345C62.1985 19.2863 62.5871 20.4478 63.3645 21.2244C64.1418 22.001 65.2259 22.3926 66.6169 22.3926C67.2033 22.3926 67.7556 22.3454 68.2806 22.2576C68.2806 22.2576 68.3965 22.2373 68.4102 22.2373C68.5397 22.2103 68.7511 22.163 68.9556 22.0955H68.9761C69.3852 21.9807 69.6784 21.6093 69.6784 21.1704V21.1771Z" fill="#E20917"/>
<path d="M49.3388 13.4043C48.7933 13.4043 47.7637 13.4178 47.7637 13.4178C47.1364 13.4516 46.6318 13.9648 46.6318 14.5995V21.1025C46.6318 21.7575 47.1705 22.291 47.8319 22.291C48.4933 22.291 48.991 21.7913 49.0251 21.1633V19.5628C49.0251 19.5628 49.6524 19.5628 49.8297 19.5628C51.0298 19.5628 51.9298 19.2792 52.598 18.6715C53.1913 18.138 53.5458 17.3817 53.5458 16.5106C53.5458 15.3153 52.8435 14.1066 51.4048 13.6474C50.832 13.4651 50.1366 13.411 49.3388 13.411V13.4043ZM49.7752 17.7598C49.6661 17.7598 49.032 17.7598 49.032 17.7598V15.16C49.032 15.16 49.4274 15.16 49.5843 15.16C50.3684 15.1465 50.9071 15.2546 51.248 15.5719C51.4866 15.788 51.6571 16.1324 51.6503 16.5106C51.6503 17.0576 51.3298 17.483 50.8116 17.6788C50.5252 17.7869 50.2116 17.7666 49.7752 17.7666V17.7598Z" fill="#E20917"/>
<path d="M108.196 22.0479C109.642 21.5887 110.337 20.3799 110.337 19.1847C110.337 18.3136 109.983 17.5573 109.39 17.0238C108.721 16.416 107.821 16.1324 106.621 16.1324C106.444 16.1324 105.823 16.1324 105.823 16.1324V14.532C105.783 13.904 105.264 13.4043 104.623 13.4043C103.982 13.4043 103.423 13.9378 103.423 14.5928V21.0957C103.423 21.7305 103.921 22.2369 104.555 22.2775C104.555 22.2775 105.585 22.291 106.13 22.291C106.928 22.291 107.624 22.2369 108.196 22.0546V22.0479ZM107.61 18.0165C108.121 18.2055 108.442 18.6377 108.449 19.1847C108.449 19.5628 108.285 19.9072 108.046 20.1233C107.705 20.4407 107.167 20.542 106.383 20.5352C106.226 20.5352 105.83 20.5352 105.83 20.5352V17.9354C105.83 17.9354 106.471 17.9354 106.574 17.9354C107.017 17.9354 107.324 17.9219 107.61 18.0232V18.0165Z" fill="#E20917"/>
<path d="M61.2165 20.623L59.3005 14.5995H59.2869C59.0551 13.9108 58.4005 13.4043 57.63 13.4043C56.8595 13.4043 56.1845 13.9243 55.9595 14.6333L54.0162 20.7446C53.9753 20.8594 53.948 20.9809 53.948 21.1092C53.948 21.7575 54.473 22.2775 55.1276 22.2775C55.7072 22.2775 56.1913 21.8588 56.2868 21.3118L56.4299 20.6703C56.4368 20.6028 56.4777 20.5758 56.5527 20.5758H58.6664C58.7346 20.5758 58.7755 20.6095 58.7891 20.6703L58.946 21.3793H58.9596C59.0892 21.8926 59.5596 22.2775 60.1188 22.2775C60.7802 22.2775 61.3188 21.744 61.3188 21.089C61.3188 20.9201 61.2847 20.7648 61.2234 20.623H61.2165ZM58.3118 18.7187C58.3118 18.7187 58.2709 18.7525 58.2437 18.7525H56.9686C56.9686 18.7525 56.9209 18.739 56.9004 18.7187C56.88 18.6985 56.8731 18.6782 56.88 18.6512L57.5891 15.4774C57.5891 15.4774 57.5891 15.4639 57.6027 15.4639C57.6095 15.4639 57.6164 15.4639 57.6164 15.4774L58.3255 18.6512C58.3255 18.6512 58.3255 18.6985 58.305 18.7187H58.3118Z" fill="#E20917"/>
<path d="M93.6047 20.6162L91.6887 14.5927H91.6751C91.4432 13.9039 90.7887 13.3975 90.0182 13.3975C89.2477 13.3975 88.5727 13.9174 88.3476 14.6265L86.4044 20.7377C86.3635 20.8525 86.3362 20.9741 86.3362 21.1024C86.3362 21.7507 86.8612 22.2706 87.5158 22.2706C88.0954 22.2706 88.5795 21.852 88.6749 21.305L88.8181 20.6635C88.8249 20.5959 88.8659 20.5689 88.9409 20.5689H91.0546C91.1228 20.5689 91.1637 20.6027 91.1773 20.6635L91.3342 21.3725H91.3478C91.4773 21.8857 91.9478 22.2706 92.5069 22.2706C93.1683 22.2706 93.707 21.7372 93.707 21.0821C93.707 20.9133 93.6729 20.758 93.6115 20.6162H93.6047ZM90.7 18.7119C90.7 18.7119 90.6591 18.7457 90.6318 18.7457H89.3568C89.3568 18.7457 89.3091 18.7322 89.2886 18.7119C89.2681 18.6916 89.2613 18.6714 89.2681 18.6444L89.9773 15.4706C89.9773 15.4706 89.9773 15.4571 89.9909 15.4571C89.9977 15.4571 90.0045 15.4571 90.0045 15.4706L90.7137 18.6444C90.7137 18.6444 90.7137 18.6916 90.6932 18.7119H90.7Z" fill="#E20917"/>
<path d="M101.194 18.3207C100.819 17.9223 100.314 17.6859 99.6866 17.6049C99.6798 17.6049 99.673 17.6049 99.673 17.5914C99.673 17.5846 99.673 17.5779 99.6866 17.5779C100.246 17.4901 100.689 17.2673 101.016 16.9026C101.35 16.5447 101.514 16.099 101.514 15.5858C101.514 14.0462 100.287 13.2764 97.832 13.2764C97.7843 13.2764 97.7297 13.2764 97.682 13.2764H96.0796C95.5614 13.2764 95.1387 13.695 95.1387 14.2083V14.5121V14.5256V21.1974C95.1387 21.1974 95.1387 21.2041 95.1387 21.2109V21.4C95.1387 21.9402 95.5819 22.3724 96.1205 22.3724H97.7229C97.7979 22.3724 97.8729 22.3724 97.9479 22.3724C99.2843 22.3724 100.253 22.1563 100.853 21.7241C101.453 21.2919 101.753 20.6166 101.753 19.6983C101.753 19.1648 101.562 18.6989 101.187 18.3004L101.194 18.3207ZM98.0775 15.0996C98.8957 15.0996 99.3048 15.3832 99.3048 15.9505C99.3048 16.5582 98.8343 16.8621 97.8934 16.8621H97.5252V15.0996C97.5252 15.0996 97.9206 15.0996 98.0775 15.0996ZM99.1548 20.2993C98.9298 20.4748 98.5684 20.5694 98.0775 20.5694C97.9206 20.5694 97.6411 20.5694 97.5252 20.5694V18.5638C97.6683 18.5638 98.1388 18.5638 98.1388 18.5638C99.0389 18.5638 99.4889 18.8677 99.4889 19.4754C99.4889 19.8468 99.3798 20.1237 99.1548 20.2993Z" fill="#E20917"/>
<path d="M85.061 13.4043H79.9335C79.388 13.4178 78.9448 13.8567 78.9448 14.4037C78.9448 14.9507 79.3948 15.4031 79.954 15.4031C79.9608 15.4031 79.9676 15.4031 79.9744 15.4031H81.1404C81.2154 15.4031 81.2495 15.4369 81.2495 15.5112V21.0755C81.2768 21.7372 81.8222 22.264 82.4973 22.264C83.1723 22.264 83.6973 21.7507 83.7451 21.1025V21.0687C83.7451 21.0687 83.7451 21.0417 83.7451 21.0214C83.7451 21.0012 83.7451 20.9944 83.7451 20.9742V15.5112C83.7451 15.4369 83.7792 15.4031 83.8542 15.4031H85.0065C85.0065 15.4031 85.0269 15.4031 85.0406 15.4031C85.5997 15.4031 86.0497 14.9574 86.0497 14.4037C86.0497 13.85 85.5997 13.4043 85.0474 13.4043H85.061Z" fill="#E20917"/>
<path d="M77.881 21.1771C77.881 20.6504 77.4515 20.225 76.9196 20.225C76.8242 20.225 76.7355 20.2385 76.6469 20.2655H76.6264C76.1423 20.4073 75.6446 20.4816 75.1264 20.4816C74.4581 20.4816 73.9195 20.252 73.5172 19.7928C73.1149 19.3336 72.9172 18.6854 72.9172 17.8413C72.9172 16.9972 73.1013 16.3354 73.4695 15.8897C73.8377 15.444 74.349 15.2279 75.0036 15.2279C75.4877 15.2279 75.9855 15.3022 76.4832 15.444C76.5582 15.4643 76.6333 15.471 76.7151 15.471C77.2537 15.471 77.6969 15.0388 77.6969 14.4986C77.6969 14.1205 77.4787 13.7963 77.1583 13.6343C76.9946 13.5465 76.6469 13.4587 76.4696 13.4249C76.4423 13.4249 76.3605 13.4114 76.3605 13.4114C75.8355 13.3236 75.2832 13.2764 74.6968 13.2764C73.3399 13.2764 72.283 13.6748 71.533 14.4649C70.783 15.2617 70.4011 16.3826 70.4011 17.8345C70.4011 19.2863 70.7898 20.4478 71.5671 21.2244C72.3444 22.001 73.4285 22.3926 74.8195 22.3926C75.4059 22.3926 75.9582 22.3454 76.4832 22.2576C76.4832 22.2576 76.5992 22.2373 76.6128 22.2373C76.7423 22.2103 76.9537 22.163 77.1583 22.0955H77.1787C77.5878 21.9807 77.881 21.6093 77.881 21.1704V21.1771Z" fill="#E20917"/>
<defs>
<linearGradient id="paint0_linear_15_986" x1="-3.47927e-05" y1="23" x2="39.0974" y2="23" gradientUnits="userSpaceOnUse">
<stop stop-color="#004D82"/>
<stop offset="1" stop-color="#0085CC"/>
</linearGradient>
<linearGradient id="paint1_linear_15_986" x1="21.9079" y1="8.52202" x2="39.111" y2="8.52202" gradientUnits="userSpaceOnUse">
<stop stop-color="#004D82"/>
<stop offset="1" stop-color="#0085CC"/>
</linearGradient>
</defs>
</svg>
