<svg width="760" height="428" viewBox="0 0 760 428" fill="none" xmlns="http://www.w3.org/2000/svg">
<g clip-path="url(#clip0_104_3115)">
<rect width="760" height="427.5" rx="18" fill="#2477D9"/>
<rect width="760" height="427.5" rx="18" fill="url(#paint0_linear_104_3115)"/>
<path d="M62.32 87C61.7067 87 61.1733 86.7733 60.72 86.32C60.2667 85.8667 60.04 85.3333 60.04 84.72V60.08C60.04 59.4667 60.2667 58.9333 60.72 58.48C61.1733 58.0267 61.7067 57.8 62.32 57.8H80.32C80.9333 57.8 81.4667 58.0267 81.92 58.48C82.3733 58.9333 82.6 59.4667 82.6 60.08V84.72C82.6 85.3333 82.3733 85.8667 81.92 86.32C81.4667 86.7733 80.9333 87 80.32 87H78.04C77.4267 87 76.8933 86.7733 76.44 86.32C76.0133 85.8667 75.8 85.3333 75.8 84.72V63.6C75.8 63.3867 75.68 63.28 75.44 63.28H67.2C66.96 63.28 66.84 63.3867 66.84 63.6V84.72C66.84 85.3333 66.6133 85.8667 66.16 86.32C65.7333 86.7733 65.2133 87 64.6 87H62.32ZM97.1928 70.16C95.9928 70.16 95.0861 70.48 94.4728 71.12C93.8595 71.7333 93.4728 72.8 93.3128 74.32C93.3128 74.5333 93.4061 74.64 93.5928 74.64H100.353C100.593 74.64 100.713 74.52 100.713 74.28C100.606 71.5333 99.4328 70.16 97.1928 70.16ZM98.1928 87.4C94.5661 87.4 91.7661 86.48 89.7928 84.64C87.8461 82.8 86.8728 80.12 86.8728 76.6C86.8728 73.1067 87.7395 70.44 89.4728 68.6C91.2328 66.7333 93.7661 65.8 97.0728 65.8C103.419 65.8 106.646 69.2667 106.753 76.2C106.753 76.84 106.499 77.3867 105.993 77.84C105.513 78.2667 104.953 78.48 104.313 78.48H93.6328C93.3661 78.48 93.2595 78.6 93.3128 78.84C93.5261 80.3067 94.0861 81.36 94.9928 82C95.9261 82.6133 97.3128 82.92 99.1528 82.92C100.353 82.92 101.646 82.7467 103.033 82.4C103.593 82.2667 104.086 82.3733 104.513 82.72C104.966 83.0667 105.193 83.52 105.193 84.08V84.16C105.193 84.8267 104.979 85.44 104.553 86C104.153 86.5333 103.633 86.8533 102.993 86.96C101.446 87.2533 99.8461 87.4 98.1928 87.4ZM117.171 74.12V79.08C117.171 79.96 117.571 80.7733 118.371 81.52C119.198 82.24 120.131 82.6 121.171 82.6C122.398 82.6 123.371 82.1067 124.091 81.12C124.811 80.1067 125.171 78.6 125.171 76.6C125.171 72.6 123.838 70.6 121.171 70.6C120.131 70.6 119.198 70.9733 118.371 71.72C117.571 72.44 117.171 73.24 117.171 74.12ZM113.131 95.8C112.518 95.8 111.984 95.5733 111.531 95.12C111.078 94.6667 110.851 94.1333 110.851 93.52V68.48C110.851 67.8667 111.078 67.3333 111.531 66.88C111.984 66.4267 112.518 66.2 113.131 66.2H114.731C115.371 66.2 115.918 66.4267 116.371 66.88C116.824 67.3067 117.064 67.84 117.091 68.48V68.8C117.091 68.8267 117.104 68.84 117.131 68.84L117.211 68.76C118.918 66.7867 120.971 65.8 123.371 65.8C125.851 65.8 127.824 66.7333 129.291 68.6C130.784 70.4667 131.531 73.1333 131.531 76.6C131.531 79.96 130.758 82.6 129.211 84.52C127.691 86.44 125.744 87.4 123.371 87.4C121.158 87.4 119.184 86.5867 117.451 84.96C117.424 84.9333 117.398 84.92 117.371 84.92C117.344 84.92 117.331 84.9333 117.331 84.96V93.52C117.331 94.1333 117.104 94.6667 116.651 95.12C116.198 95.5733 115.664 95.8 115.051 95.8H113.131ZM142.057 78.48V82.76C142.057 83.0267 142.177 83.16 142.417 83.16C142.603 83.1867 142.883 83.2 143.257 83.2C145.79 83.2 147.057 82.3067 147.057 80.52C147.057 78.92 145.803 78.12 143.297 78.12H142.417C142.177 78.12 142.057 78.24 142.057 78.48ZM142.057 70.44V73.92C142.057 74.1333 142.177 74.24 142.417 74.24H143.137C144.15 74.24 144.95 74.04 145.537 73.64C146.123 73.24 146.417 72.6933 146.417 72C146.417 70.6667 145.35 70 143.217 70C142.843 70 142.577 70.0133 142.417 70.04C142.177 70.04 142.057 70.1733 142.057 70.44ZM137.897 87.08C137.257 87.0267 136.71 86.76 136.257 86.28C135.83 85.8 135.617 85.24 135.617 84.6V68.6C135.617 67.96 135.83 67.4 136.257 66.92C136.71 66.44 137.257 66.1733 137.897 66.12C139.577 65.9867 141.163 65.92 142.657 65.92C149.163 65.92 152.417 67.6933 152.417 71.24C152.417 72.44 151.977 73.4667 151.097 74.32C150.217 75.1467 149.017 75.68 147.497 75.92V75.96C147.497 75.9867 147.51 76 147.537 76C149.297 76.2133 150.683 76.7867 151.697 77.72C152.71 78.6267 153.217 79.72 153.217 81C153.217 83.08 152.403 84.6533 150.777 85.72C149.177 86.76 146.577 87.28 142.977 87.28C141.403 87.28 139.71 87.2133 137.897 87.08ZM167.096 77.48C163.843 77.48 162.216 78.48 162.216 80.48C162.216 81.2 162.43 81.7733 162.856 82.2C163.283 82.6 163.856 82.8 164.576 82.8C165.856 82.8 166.896 82.4 167.696 81.6C168.496 80.7733 168.896 79.68 168.896 78.32V77.84C168.896 77.6 168.776 77.48 168.536 77.48H167.096ZM162.616 87.4C160.776 87.4 159.256 86.8133 158.056 85.64C156.883 84.44 156.296 82.8933 156.296 81C156.296 76.1467 159.896 73.72 167.096 73.72H168.536C168.776 73.72 168.896 73.6133 168.896 73.4V73.2C168.896 72.1867 168.63 71.4533 168.096 71C167.59 70.5467 166.723 70.32 165.496 70.32C163.87 70.32 161.923 70.5733 159.656 71.08C159.096 71.1867 158.59 71.0667 158.136 70.72C157.71 70.3733 157.496 69.92 157.496 69.36V69.28C157.496 68.6133 157.696 68.0133 158.096 67.48C158.523 66.92 159.056 66.5867 159.696 66.48C162.043 66.0267 164.07 65.8 165.776 65.8C169.27 65.8 171.736 66.4267 173.176 67.68C174.643 68.9333 175.376 71.0133 175.376 73.92V84.72C175.376 85.3333 175.15 85.8667 174.696 86.32C174.243 86.7733 173.71 87 173.096 87H171.616C170.976 87 170.43 86.7867 169.976 86.36C169.523 85.9067 169.283 85.36 169.256 84.72V84.28C169.256 84.2533 169.243 84.24 169.216 84.24C169.163 84.24 169.136 84.2533 169.136 84.28C167.456 86.36 165.283 87.4 162.616 87.4ZM189.34 70.44C186.647 70.44 185.3 71.24 185.3 72.84C185.3 73.5867 185.647 74.1867 186.34 74.64C187.06 75.0667 188.1 75.28 189.46 75.28H190.46C190.7 75.28 190.82 75.1733 190.82 74.96V70.88C190.82 70.6133 190.687 70.48 190.42 70.48C190.18 70.4533 189.82 70.44 189.34 70.44ZM183.98 77.64C182.567 77.24 181.407 76.5467 180.5 75.56C179.594 74.5733 179.14 73.4533 179.14 72.2C179.14 68.0133 182.447 65.92 189.06 65.92C191.407 65.92 193.38 65.9867 194.98 66.12C195.62 66.1467 196.154 66.4133 196.58 66.92C197.007 67.4 197.22 67.96 197.22 68.6V84.72C197.22 85.3333 196.994 85.8667 196.54 86.32C196.114 86.7733 195.594 87 194.98 87H193.06C192.447 87 191.914 86.7733 191.46 86.32C191.034 85.8667 190.82 85.3333 190.82 84.72V80.04C190.82 79.8 190.7 79.68 190.46 79.68H189.74C188.914 79.68 188.34 79.7867 188.02 80C187.7 80.2133 187.367 80.72 187.02 81.52L185.62 84.92C185.354 85.56 184.94 86.0667 184.38 86.44C183.82 86.8133 183.194 87 182.5 87H180.74C180.207 87 179.794 86.7733 179.5 86.32C179.207 85.8667 179.167 85.4 179.38 84.92L181.02 81.24C181.474 80.2533 181.914 79.5067 182.34 79C182.794 78.4933 183.34 78.08 183.98 77.76C184.034 77.76 184.06 77.7333 184.06 77.68C184.06 77.6533 184.034 77.64 183.98 77.64ZM215.134 71.08C214.521 71.08 213.987 70.8533 213.534 70.4C213.081 69.9467 212.854 69.4133 212.854 68.8V68.48C212.854 67.8667 213.081 67.3333 213.534 66.88C213.987 66.4267 214.521 66.2 215.134 66.2H229.614C230.227 66.2 230.761 66.4267 231.214 66.88C231.667 67.3333 231.894 67.8667 231.894 68.48V68.8C231.894 69.4133 231.667 69.9467 231.214 70.4C230.761 70.8533 230.227 71.08 229.614 71.08H226.054C225.841 71.08 225.734 71.2 225.734 71.44V84.72C225.734 85.3333 225.507 85.8667 225.054 86.32C224.601 86.7733 224.067 87 223.454 87H221.294C220.681 87 220.147 86.7733 219.694 86.32C219.241 85.8667 219.014 85.3333 219.014 84.72V71.44C219.014 71.2 218.907 71.08 218.694 71.08H215.134ZM242.288 74.12V79.08C242.288 79.96 242.688 80.7733 243.488 81.52C244.315 82.24 245.248 82.6 246.288 82.6C247.515 82.6 248.488 82.1067 249.208 81.12C249.928 80.1067 250.288 78.6 250.288 76.6C250.288 72.6 248.955 70.6 246.288 70.6C245.248 70.6 244.315 70.9733 243.488 71.72C242.688 72.44 242.288 73.24 242.288 74.12ZM238.248 95.8C237.635 95.8 237.101 95.5733 236.648 95.12C236.195 94.6667 235.968 94.1333 235.968 93.52V68.48C235.968 67.8667 236.195 67.3333 236.648 66.88C237.101 66.4267 237.635 66.2 238.248 66.2H239.848C240.488 66.2 241.035 66.4267 241.488 66.88C241.941 67.3067 242.181 67.84 242.208 68.48V68.8C242.208 68.8267 242.221 68.84 242.248 68.84L242.328 68.76C244.035 66.7867 246.088 65.8 248.488 65.8C250.968 65.8 252.941 66.7333 254.408 68.6C255.901 70.4667 256.648 73.1333 256.648 76.6C256.648 79.96 255.875 82.6 254.328 84.52C252.808 86.44 250.861 87.4 248.488 87.4C246.275 87.4 244.301 86.5867 242.568 84.96C242.541 84.9333 242.515 84.92 242.488 84.92C242.461 84.92 242.448 84.9333 242.448 84.96V93.52C242.448 94.1333 242.221 94.6667 241.768 95.12C241.315 95.5733 240.781 95.8 240.168 95.8H238.248ZM270.534 77.48C267.28 77.48 265.654 78.48 265.654 80.48C265.654 81.2 265.867 81.7733 266.294 82.2C266.72 82.6 267.294 82.8 268.014 82.8C269.294 82.8 270.334 82.4 271.134 81.6C271.934 80.7733 272.334 79.68 272.334 78.32V77.84C272.334 77.6 272.214 77.48 271.974 77.48H270.534ZM266.054 87.4C264.214 87.4 262.694 86.8133 261.494 85.64C260.32 84.44 259.734 82.8933 259.734 81C259.734 76.1467 263.334 73.72 270.534 73.72H271.974C272.214 73.72 272.334 73.6133 272.334 73.4V73.2C272.334 72.1867 272.067 71.4533 271.534 71C271.027 70.5467 270.16 70.32 268.934 70.32C267.307 70.32 265.36 70.5733 263.094 71.08C262.534 71.1867 262.027 71.0667 261.574 70.72C261.147 70.3733 260.934 69.92 260.934 69.36V69.28C260.934 68.6133 261.134 68.0133 261.534 67.48C261.96 66.92 262.494 66.5867 263.134 66.48C265.48 66.0267 267.507 65.8 269.214 65.8C272.707 65.8 275.174 66.4267 276.614 67.68C278.08 68.9333 278.814 71.0133 278.814 73.92V84.72C278.814 85.3333 278.587 85.8667 278.134 86.32C277.68 86.7733 277.147 87 276.534 87H275.054C274.414 87 273.867 86.7867 273.414 86.36C272.96 85.9067 272.72 85.36 272.694 84.72V84.28C272.694 84.2533 272.68 84.24 272.654 84.24C272.6 84.24 272.574 84.2533 272.574 84.28C270.894 86.36 268.72 87.4 266.054 87.4ZM286.178 87C285.564 87 285.031 86.7733 284.578 86.32C284.124 85.8667 283.898 85.3333 283.898 84.72V68.48C283.898 67.8667 284.124 67.3333 284.578 66.88C285.031 66.4267 285.564 66.2 286.178 66.2H288.218C288.831 66.2 289.351 66.4267 289.778 66.88C290.231 67.3333 290.458 67.8667 290.458 68.48V73.6C290.458 73.8133 290.578 73.92 290.818 73.92H295.858C296.098 73.92 296.218 73.8133 296.218 73.6V68.48C296.218 67.8667 296.431 67.3333 296.858 66.88C297.311 66.4267 297.844 66.2 298.458 66.2H300.498C301.111 66.2 301.644 66.4267 302.098 66.88C302.551 67.3333 302.778 67.8667 302.778 68.48V84.72C302.778 85.3333 302.551 85.8667 302.098 86.32C301.644 86.7733 301.111 87 300.498 87H298.458C297.844 87 297.311 86.7733 296.858 86.32C296.431 85.8667 296.218 85.3333 296.218 84.72V78.8C296.218 78.56 296.098 78.44 295.858 78.44H290.818C290.578 78.44 290.458 78.56 290.458 78.8V84.72C290.458 85.3333 290.231 85.8667 289.778 86.32C289.351 86.7733 288.831 87 288.218 87H286.178ZM317.318 87.4C313.878 87.4 311.238 86.4933 309.398 84.68C307.558 82.8667 306.638 80.1733 306.638 76.6C306.638 73.1067 307.518 70.44 309.278 68.6C311.065 66.7333 313.612 65.8 316.918 65.8C318.012 65.8 319.465 65.92 321.278 66.16C321.945 66.2667 322.478 66.5733 322.878 67.08C323.305 67.56 323.518 68.1333 323.518 68.8V69.2C323.518 69.76 323.292 70.2133 322.838 70.56C322.385 70.9067 321.878 71.0267 321.318 70.92C320.225 70.7333 319.105 70.64 317.958 70.64C316.438 70.64 315.305 71.12 314.558 72.08C313.812 73.0133 313.438 74.52 313.438 76.6C313.438 78.7067 313.838 80.2267 314.638 81.16C315.438 82.0933 316.678 82.56 318.358 82.56C319.585 82.56 320.692 82.4533 321.678 82.24C322.238 82.1067 322.732 82.2133 323.158 82.56C323.612 82.9067 323.838 83.36 323.838 83.92V84.32C323.838 84.9867 323.625 85.5867 323.198 86.12C322.772 86.6267 322.238 86.9333 321.598 87.04C320.132 87.28 318.705 87.4 317.318 87.4ZM329.177 87.2C328.59 87.28 328.07 87.1067 327.617 86.68C327.164 86.2533 326.937 85.7333 326.937 85.12V84.96C326.937 83.7333 327.684 82.8667 329.177 82.36C330.11 82.04 330.737 81.44 331.057 80.56C331.404 79.6533 331.577 78.16 331.577 76.08V68.48C331.577 67.8667 331.804 67.3333 332.257 66.88C332.71 66.4267 333.244 66.2 333.857 66.2H347.017C347.63 66.2 348.15 66.4267 348.577 66.88C349.03 67.3333 349.257 67.8667 349.257 68.48V84.72C349.257 85.3333 349.03 85.8667 348.577 86.32C348.15 86.7733 347.63 87 347.017 87H345.017C344.404 87 343.87 86.7733 343.417 86.32C342.964 85.8667 342.737 85.3333 342.737 84.72V71.24C342.737 71.0267 342.617 70.92 342.377 70.92H338.297C338.057 70.92 337.937 71.0267 337.937 71.24V76.84C337.937 80.2533 337.297 82.7333 336.017 84.28C334.764 85.8 332.484 86.7733 329.177 87.2ZM363.403 70.44C360.709 70.44 359.363 71.24 359.363 72.84C359.363 73.5867 359.709 74.1867 360.403 74.64C361.123 75.0667 362.163 75.28 363.523 75.28H364.523C364.763 75.28 364.883 75.1733 364.883 74.96V70.88C364.883 70.6133 364.749 70.48 364.483 70.48C364.243 70.4533 363.883 70.44 363.403 70.44ZM358.043 77.64C356.629 77.24 355.469 76.5467 354.563 75.56C353.656 74.5733 353.203 73.4533 353.203 72.2C353.203 68.0133 356.509 65.92 363.123 65.92C365.469 65.92 367.443 65.9867 369.043 66.12C369.683 66.1467 370.216 66.4133 370.643 66.92C371.069 67.4 371.283 67.96 371.283 68.6V84.72C371.283 85.3333 371.056 85.8667 370.603 86.32C370.176 86.7733 369.656 87 369.043 87H367.123C366.509 87 365.976 86.7733 365.523 86.32C365.096 85.8667 364.883 85.3333 364.883 84.72V80.04C364.883 79.8 364.763 79.68 364.523 79.68H363.803C362.976 79.68 362.403 79.7867 362.083 80C361.763 80.2133 361.429 80.72 361.083 81.52L359.683 84.92C359.416 85.56 359.003 86.0667 358.443 86.44C357.883 86.8133 357.256 87 356.563 87H354.803C354.269 87 353.856 86.7733 353.563 86.32C353.269 85.8667 353.229 85.4 353.443 84.92L355.083 81.24C355.536 80.2533 355.976 79.5067 356.403 79C356.856 78.4933 357.403 78.08 358.043 77.76C358.096 77.76 358.123 77.7333 358.123 77.68C358.123 77.6533 358.096 77.64 358.043 77.64ZM378.756 87C378.143 87 377.609 86.7733 377.156 86.32C376.703 85.8667 376.476 85.3333 376.476 84.72V68.48C376.476 67.8667 376.703 67.3333 377.156 66.88C377.609 66.4267 378.143 66.2 378.756 66.2H380.756C381.369 66.2 381.889 66.4267 382.316 66.88C382.769 67.3333 382.996 67.8667 382.996 68.48V82.24C382.996 82.4533 383.116 82.56 383.356 82.56H388.516C388.756 82.56 388.876 82.4533 388.876 82.24V68.48C388.876 67.8667 389.103 67.3333 389.556 66.88C390.009 66.4267 390.543 66.2 391.156 66.2H393.156C393.769 66.2 394.289 66.4267 394.716 66.88C395.169 67.3333 395.396 67.8667 395.396 68.48V82.24C395.396 82.4533 395.516 82.56 395.756 82.56H397.276C397.889 82.56 398.423 82.7867 398.876 83.24C399.329 83.6933 399.556 84.2267 399.556 84.84V89.52C399.556 90.1333 399.329 90.6667 398.876 91.12C398.423 91.5733 397.889 91.8 397.276 91.8H396.076C395.463 91.8 394.929 91.5733 394.476 91.12C394.023 90.6667 393.796 90.1333 393.796 89.52V87.36C393.796 87.12 393.689 87 393.476 87H378.756ZM405.514 87C404.9 87 404.367 86.7733 403.914 86.32C403.46 85.8667 403.234 85.3333 403.234 84.72V68.48C403.234 67.8667 403.46 67.3333 403.914 66.88C404.367 66.4267 404.9 66.2 405.514 66.2H407.394C408.007 66.2 408.54 66.4267 408.994 66.88C409.447 67.3333 409.674 67.8667 409.674 68.48V78.16H409.714H409.754L414.674 68.24C415.34 66.88 416.434 66.2 417.954 66.2H419.914C420.527 66.2 421.06 66.4267 421.514 66.88C421.967 67.3333 422.194 67.8667 422.194 68.48V84.72C422.194 85.3333 421.967 85.8667 421.514 86.32C421.06 86.7733 420.527 87 419.914 87H418.034C417.42 87 416.887 86.7733 416.434 86.32C415.98 85.8667 415.754 85.3333 415.754 84.72V75.04H415.714H415.674L410.754 84.96C410.087 86.32 408.994 87 407.474 87H405.514ZM436.372 70.44C433.678 70.44 432.332 71.24 432.332 72.84C432.332 73.5867 432.678 74.1867 433.372 74.64C434.092 75.0667 435.132 75.28 436.492 75.28H437.492C437.732 75.28 437.852 75.1733 437.852 74.96V70.88C437.852 70.6133 437.718 70.48 437.452 70.48C437.212 70.4533 436.852 70.44 436.372 70.44ZM431.012 77.64C429.598 77.24 428.438 76.5467 427.532 75.56C426.625 74.5733 426.172 73.4533 426.172 72.2C426.172 68.0133 429.478 65.92 436.092 65.92C438.438 65.92 440.412 65.9867 442.012 66.12C442.652 66.1467 443.185 66.4133 443.612 66.92C444.038 67.4 444.252 67.96 444.252 68.6V84.72C444.252 85.3333 444.025 85.8667 443.572 86.32C443.145 86.7733 442.625 87 442.012 87H440.092C439.478 87 438.945 86.7733 438.492 86.32C438.065 85.8667 437.852 85.3333 437.852 84.72V80.04C437.852 79.8 437.732 79.68 437.492 79.68H436.772C435.945 79.68 435.372 79.7867 435.052 80C434.732 80.2133 434.398 80.72 434.052 81.52L432.652 84.92C432.385 85.56 431.972 86.0667 431.412 86.44C430.852 86.8133 430.225 87 429.532 87H427.772C427.238 87 426.825 86.7733 426.532 86.32C426.238 85.8667 426.198 85.4 426.412 84.92L428.052 81.24C428.505 80.2533 428.945 79.5067 429.372 79C429.825 78.4933 430.372 78.08 431.012 77.76C431.065 77.76 431.092 77.7333 431.092 77.68C431.092 77.6533 431.065 77.64 431.012 77.64ZM68.56 129.16C67.36 129.16 66.4533 129.48 65.84 130.12C65.2267 130.733 64.84 131.8 64.68 133.32C64.68 133.533 64.7733 133.64 64.96 133.64H71.72C71.96 133.64 72.08 133.52 72.08 133.28C71.9733 130.533 70.8 129.16 68.56 129.16ZM69.56 146.4C65.9333 146.4 63.1333 145.48 61.16 143.64C59.2133 141.8 58.24 139.12 58.24 135.6C58.24 132.107 59.1067 129.44 60.84 127.6C62.6 125.733 65.1333 124.8 68.44 124.8C74.7867 124.8 78.0133 128.267 78.12 135.2C78.12 135.84 77.8667 136.387 77.36 136.84C76.88 137.267 76.32 137.48 75.68 137.48H65C64.7333 137.48 64.6267 137.6 64.68 137.84C64.8933 139.307 65.4533 140.36 66.36 141C67.2933 141.613 68.68 141.92 70.52 141.92C71.72 141.92 73.0133 141.747 74.4 141.4C74.96 141.267 75.4533 141.373 75.88 141.72C76.3333 142.067 76.56 142.52 76.56 143.08V143.16C76.56 143.827 76.3467 144.44 75.92 145C75.52 145.533 75 145.853 74.36 145.96C72.8133 146.253 71.2133 146.4 69.56 146.4ZM84.4981 146C83.8848 146 83.3515 145.773 82.8981 145.32C82.4448 144.867 82.2181 144.333 82.2181 143.72V127.48C82.2181 126.867 82.4448 126.333 82.8981 125.88C83.3515 125.427 83.8848 125.2 84.4981 125.2H86.2981C86.9115 125.2 87.4448 125.427 87.8981 125.88C88.3515 126.333 88.5781 126.867 88.5781 127.48V141.24C88.5781 141.453 88.6981 141.56 88.9381 141.56H92.0181C92.2315 141.56 92.3381 141.453 92.3381 141.24V127.48C92.3381 126.867 92.5648 126.333 93.0181 125.88C93.4715 125.427 94.0048 125.2 94.6181 125.2H96.2981C96.9115 125.2 97.4315 125.427 97.8581 125.88C98.3115 126.333 98.5381 126.867 98.5381 127.48V141.24C98.5381 141.453 98.6581 141.56 98.8981 141.56H101.978C102.218 141.56 102.338 141.453 102.338 141.24V127.48C102.338 126.867 102.565 126.333 103.018 125.88C103.471 125.427 104.005 125.2 104.618 125.2H106.418C107.031 125.2 107.565 125.427 108.018 125.88C108.471 126.333 108.698 126.867 108.698 127.48V141.24C108.698 141.453 108.818 141.56 109.058 141.56H109.898C110.511 141.56 111.045 141.787 111.498 142.24C111.951 142.693 112.178 143.227 112.178 143.84V148.52C112.178 149.133 111.951 149.667 111.498 150.12C111.045 150.573 110.511 150.8 109.898 150.8H108.698C108.085 150.8 107.551 150.573 107.098 150.12C106.645 149.667 106.418 149.133 106.418 148.52V146.36C106.418 146.12 106.311 146 106.098 146H84.4981ZM124.771 129.16C123.571 129.16 122.664 129.48 122.051 130.12C121.438 130.733 121.051 131.8 120.891 133.32C120.891 133.533 120.984 133.64 121.171 133.64H127.931C128.171 133.64 128.291 133.52 128.291 133.28C128.184 130.533 127.011 129.16 124.771 129.16ZM125.771 146.4C122.144 146.4 119.344 145.48 117.371 143.64C115.424 141.8 114.451 139.12 114.451 135.6C114.451 132.107 115.318 129.44 117.051 127.6C118.811 125.733 121.344 124.8 124.651 124.8C130.998 124.8 134.224 128.267 134.331 135.2C134.331 135.84 134.078 136.387 133.571 136.84C133.091 137.267 132.531 137.48 131.891 137.48H121.211C120.944 137.48 120.838 137.6 120.891 137.84C121.104 139.307 121.664 140.36 122.571 141C123.504 141.613 124.891 141.92 126.731 141.92C127.931 141.92 129.224 141.747 130.611 141.4C131.171 141.267 131.664 141.373 132.091 141.72C132.544 142.067 132.771 142.52 132.771 143.08V143.16C132.771 143.827 132.558 144.44 132.131 145C131.731 145.533 131.211 145.853 130.571 145.96C129.024 146.253 127.424 146.4 125.771 146.4ZM152.35 146C151.736 146 151.203 145.773 150.75 145.32C150.296 144.867 150.07 144.333 150.07 143.72V127.48C150.07 126.867 150.296 126.333 150.75 125.88C151.203 125.427 151.736 125.2 152.35 125.2H154.39C155.003 125.2 155.523 125.427 155.95 125.88C156.403 126.333 156.63 126.867 156.63 127.48V132.6C156.63 132.813 156.75 132.92 156.99 132.92H162.03C162.27 132.92 162.39 132.813 162.39 132.6V127.48C162.39 126.867 162.603 126.333 163.03 125.88C163.483 125.427 164.016 125.2 164.63 125.2H166.67C167.283 125.2 167.816 125.427 168.27 125.88C168.723 126.333 168.95 126.867 168.95 127.48V143.72C168.95 144.333 168.723 144.867 168.27 145.32C167.816 145.773 167.283 146 166.67 146H164.63C164.016 146 163.483 145.773 163.03 145.32C162.603 144.867 162.39 144.333 162.39 143.72V137.8C162.39 137.56 162.27 137.44 162.03 137.44H156.99C156.75 137.44 156.63 137.56 156.63 137.8V143.72C156.63 144.333 156.403 144.867 155.95 145.32C155.523 145.773 155.003 146 154.39 146H152.35ZM183.13 129.16C181.93 129.16 181.024 129.48 180.41 130.12C179.797 130.733 179.41 131.8 179.25 133.32C179.25 133.533 179.344 133.64 179.53 133.64H186.29C186.53 133.64 186.65 133.52 186.65 133.28C186.544 130.533 185.37 129.16 183.13 129.16ZM184.13 146.4C180.504 146.4 177.704 145.48 175.73 143.64C173.784 141.8 172.81 139.12 172.81 135.6C172.81 132.107 173.677 129.44 175.41 127.6C177.17 125.733 179.704 124.8 183.01 124.8C189.357 124.8 192.584 128.267 192.69 135.2C192.69 135.84 192.437 136.387 191.93 136.84C191.45 137.267 190.89 137.48 190.25 137.48H179.57C179.304 137.48 179.197 137.6 179.25 137.84C179.464 139.307 180.024 140.36 180.93 141C181.864 141.613 183.25 141.92 185.09 141.92C186.29 141.92 187.584 141.747 188.97 141.4C189.53 141.267 190.024 141.373 190.45 141.72C190.904 142.067 191.13 142.52 191.13 143.08V143.16C191.13 143.827 190.917 144.44 190.49 145C190.09 145.533 189.57 145.853 188.93 145.96C187.384 146.253 185.784 146.4 184.13 146.4ZM210.709 146C210.096 146 209.562 145.773 209.109 145.32C208.656 144.867 208.429 144.333 208.429 143.72V127.48C208.429 126.867 208.656 126.333 209.109 125.88C209.562 125.427 210.096 125.2 210.709 125.2H212.749C213.362 125.2 213.882 125.427 214.309 125.88C214.762 126.333 214.989 126.867 214.989 127.48V132.6C214.989 132.813 215.109 132.92 215.349 132.92H220.389C220.629 132.92 220.749 132.813 220.749 132.6V127.48C220.749 126.867 220.962 126.333 221.389 125.88C221.842 125.427 222.376 125.2 222.989 125.2H225.029C225.642 125.2 226.176 125.427 226.629 125.88C227.082 126.333 227.309 126.867 227.309 127.48V143.72C227.309 144.333 227.082 144.867 226.629 145.32C226.176 145.773 225.642 146 225.029 146H222.989C222.376 146 221.842 145.773 221.389 145.32C220.962 144.867 220.749 144.333 220.749 143.72V137.8C220.749 137.56 220.629 137.44 220.389 137.44H215.349C215.109 137.44 214.989 137.56 214.989 137.8V143.72C214.989 144.333 214.762 144.867 214.309 145.32C213.882 145.773 213.362 146 212.749 146H210.709ZM242.37 136.48C239.116 136.48 237.49 137.48 237.49 139.48C237.49 140.2 237.703 140.773 238.13 141.2C238.556 141.6 239.13 141.8 239.85 141.8C241.13 141.8 242.17 141.4 242.97 140.6C243.77 139.773 244.17 138.68 244.17 137.32V136.84C244.17 136.6 244.05 136.48 243.81 136.48H242.37ZM237.89 146.4C236.05 146.4 234.53 145.813 233.33 144.64C232.156 143.44 231.57 141.893 231.57 140C231.57 135.147 235.17 132.72 242.37 132.72H243.81C244.05 132.72 244.17 132.613 244.17 132.4V132.2C244.17 131.187 243.903 130.453 243.37 130C242.863 129.547 241.996 129.32 240.77 129.32C239.143 129.32 237.196 129.573 234.93 130.08C234.37 130.187 233.863 130.067 233.41 129.72C232.983 129.373 232.77 128.92 232.77 128.36V128.28C232.77 127.613 232.97 127.013 233.37 126.48C233.796 125.92 234.33 125.587 234.97 125.48C237.316 125.027 239.343 124.8 241.05 124.8C244.543 124.8 247.01 125.427 248.45 126.68C249.916 127.933 250.65 130.013 250.65 132.92V143.72C250.65 144.333 250.423 144.867 249.97 145.32C249.516 145.773 248.983 146 248.37 146H246.89C246.25 146 245.703 145.787 245.25 145.36C244.796 144.907 244.556 144.36 244.53 143.72V143.28C244.53 143.253 244.516 143.24 244.49 143.24C244.436 143.24 244.41 143.253 244.41 143.28C242.73 145.36 240.556 146.4 237.89 146.4ZM263.494 140.52C260.48 140.52 258.36 139.987 257.134 138.92C255.934 137.853 255.334 136.013 255.334 133.4V127.48C255.334 126.867 255.56 126.333 256.014 125.88C256.467 125.427 257 125.2 257.614 125.2H259.374C259.987 125.2 260.52 125.427 260.974 125.88C261.427 126.333 261.654 126.867 261.654 127.48V132.12C261.654 133.667 261.84 134.653 262.214 135.08C262.587 135.507 263.4 135.72 264.654 135.72C265.747 135.72 266.774 135.507 267.734 135.08C267.947 135 268.054 134.84 268.054 134.6V127.48C268.054 126.867 268.28 126.333 268.734 125.88C269.187 125.427 269.72 125.2 270.334 125.2H272.174C272.787 125.2 273.32 125.427 273.774 125.88C274.227 126.333 274.454 126.867 274.454 127.48V143.72C274.454 144.333 274.227 144.867 273.774 145.32C273.32 145.773 272.787 146 272.174 146H270.334C269.72 146 269.187 145.773 268.734 145.32C268.28 144.867 268.054 144.333 268.054 143.72V139.96C268.054 139.72 267.947 139.653 267.734 139.76C266.4 140.267 264.987 140.52 263.494 140.52ZM289.518 136.48C286.265 136.48 284.638 137.48 284.638 139.48C284.638 140.2 284.851 140.773 285.278 141.2C285.705 141.6 286.278 141.8 286.998 141.8C288.278 141.8 289.318 141.4 290.118 140.6C290.918 139.773 291.318 138.68 291.318 137.32V136.84C291.318 136.6 291.198 136.48 290.958 136.48H289.518ZM285.038 146.4C283.198 146.4 281.678 145.813 280.478 144.64C279.305 143.44 278.718 141.893 278.718 140C278.718 135.147 282.318 132.72 289.518 132.72H290.958C291.198 132.72 291.318 132.613 291.318 132.4V132.2C291.318 131.187 291.051 130.453 290.518 130C290.011 129.547 289.145 129.32 287.918 129.32C286.291 129.32 284.345 129.573 282.078 130.08C281.518 130.187 281.011 130.067 280.558 129.72C280.131 129.373 279.918 128.92 279.918 128.36V128.28C279.918 127.613 280.118 127.013 280.518 126.48C280.945 125.92 281.478 125.587 282.118 125.48C284.465 125.027 286.491 124.8 288.198 124.8C291.691 124.8 294.158 125.427 295.598 126.68C297.065 127.933 297.798 130.013 297.798 132.92V143.72C297.798 144.333 297.571 144.867 297.118 145.32C296.665 145.773 296.131 146 295.518 146H294.038C293.398 146 292.851 145.787 292.398 145.36C291.945 144.907 291.705 144.36 291.678 143.72V143.28C291.678 143.253 291.665 143.24 291.638 143.24C291.585 143.24 291.558 143.253 291.558 143.28C289.878 145.36 287.705 146.4 285.038 146.4ZM303.122 146.2C302.536 146.28 302.016 146.107 301.562 145.68C301.109 145.253 300.882 144.733 300.882 144.12V143.96C300.882 142.733 301.629 141.867 303.122 141.36C304.056 141.04 304.682 140.44 305.002 139.56C305.349 138.653 305.522 137.16 305.522 135.08V127.48C305.522 126.867 305.749 126.333 306.202 125.88C306.656 125.427 307.189 125.2 307.802 125.2H320.962C321.576 125.2 322.096 125.427 322.522 125.88C322.976 126.333 323.202 126.867 323.202 127.48V143.72C323.202 144.333 322.976 144.867 322.522 145.32C322.096 145.773 321.576 146 320.962 146H318.962C318.349 146 317.816 145.773 317.362 145.32C316.909 144.867 316.682 144.333 316.682 143.72V130.24C316.682 130.027 316.562 129.92 316.322 129.92H312.242C312.002 129.92 311.882 130.027 311.882 130.24V135.84C311.882 139.253 311.242 141.733 309.962 143.28C308.709 144.8 306.429 145.773 303.122 146.2ZM338.268 136.48C335.015 136.48 333.388 137.48 333.388 139.48C333.388 140.2 333.601 140.773 334.028 141.2C334.455 141.6 335.028 141.8 335.748 141.8C337.028 141.8 338.068 141.4 338.868 140.6C339.668 139.773 340.068 138.68 340.068 137.32V136.84C340.068 136.6 339.948 136.48 339.708 136.48H338.268ZM333.788 146.4C331.948 146.4 330.428 145.813 329.228 144.64C328.055 143.44 327.468 141.893 327.468 140C327.468 135.147 331.068 132.72 338.268 132.72H339.708C339.948 132.72 340.068 132.613 340.068 132.4V132.2C340.068 131.187 339.801 130.453 339.268 130C338.761 129.547 337.895 129.32 336.668 129.32C335.041 129.32 333.095 129.573 330.828 130.08C330.268 130.187 329.761 130.067 329.308 129.72C328.881 129.373 328.668 128.92 328.668 128.36V128.28C328.668 127.613 328.868 127.013 329.268 126.48C329.695 125.92 330.228 125.587 330.868 125.48C333.215 125.027 335.241 124.8 336.948 124.8C340.441 124.8 342.908 125.427 344.348 126.68C345.815 127.933 346.548 130.013 346.548 132.92V143.72C346.548 144.333 346.321 144.867 345.868 145.32C345.415 145.773 344.881 146 344.268 146H342.788C342.148 146 341.601 145.787 341.148 145.36C340.695 144.907 340.455 144.36 340.428 143.72V143.28C340.428 143.253 340.415 143.24 340.388 143.24C340.335 143.24 340.308 143.253 340.308 143.28C338.628 145.36 336.455 146.4 333.788 146.4ZM360.912 146.4C357.472 146.4 354.832 145.493 352.992 143.68C351.152 141.867 350.232 139.173 350.232 135.6C350.232 132.107 351.112 129.44 352.872 127.6C354.659 125.733 357.206 124.8 360.512 124.8C361.606 124.8 363.059 124.92 364.872 125.16C365.539 125.267 366.072 125.573 366.472 126.08C366.899 126.56 367.112 127.133 367.112 127.8V128.2C367.112 128.76 366.886 129.213 366.432 129.56C365.979 129.907 365.472 130.027 364.912 129.92C363.819 129.733 362.699 129.64 361.552 129.64C360.032 129.64 358.899 130.12 358.152 131.08C357.406 132.013 357.032 133.52 357.032 135.6C357.032 137.707 357.432 139.227 358.232 140.16C359.032 141.093 360.272 141.56 361.952 141.56C363.179 141.56 364.286 141.453 365.272 141.24C365.832 141.107 366.326 141.213 366.752 141.56C367.206 141.907 367.432 142.36 367.432 142.92V143.32C367.432 143.987 367.219 144.587 366.792 145.12C366.366 145.627 365.832 145.933 365.192 146.04C363.726 146.28 362.299 146.4 360.912 146.4ZM378.931 135.56V141.28C378.931 141.547 379.024 141.693 379.211 141.72C379.611 141.827 380.064 141.88 380.571 141.88C381.904 141.88 382.877 141.587 383.491 141C384.104 140.413 384.411 139.507 384.411 138.28C384.411 137.24 384.077 136.44 383.411 135.88C382.771 135.293 381.811 135 380.531 135C380.211 135 379.784 135.053 379.251 135.16C379.037 135.213 378.931 135.347 378.931 135.56ZM374.731 146.12C374.091 146.04 373.557 145.76 373.131 145.28C372.731 144.773 372.531 144.187 372.531 143.52V127.48C372.531 126.867 372.744 126.333 373.171 125.88C373.624 125.427 374.157 125.2 374.771 125.2H376.651C377.264 125.2 377.797 125.427 378.251 125.88C378.704 126.333 378.931 126.867 378.931 127.48V130.36C378.931 130.44 378.957 130.52 379.011 130.6C379.064 130.653 379.131 130.667 379.211 130.64C379.851 130.533 380.624 130.48 381.531 130.48C384.384 130.48 386.597 131.187 388.171 132.6C389.744 133.987 390.531 135.88 390.531 138.28C390.531 141.027 389.677 143.067 387.971 144.4C386.264 145.733 383.584 146.4 379.931 146.4C378.037 146.4 376.304 146.307 374.731 146.12Z" fill="white"/>
<path d="M60.84 191.24V196.12C60.84 196.227 60.8933 196.293 61 196.32C61.52 196.4 62.0667 196.44 62.64 196.44C63.8933 196.44 64.8133 196.207 65.4 195.74C65.9867 195.273 66.28 194.56 66.28 193.6C66.28 192.733 65.9267 192.1 65.22 191.7C64.5133 191.287 63.32 191.08 61.64 191.08H61.02C60.9 191.08 60.84 191.133 60.84 191.24ZM60.84 185.26V189.18C60.84 189.3 60.9 189.36 61.02 189.36H61.64C63.1067 189.36 64.16 189.173 64.8 188.8C65.4533 188.427 65.78 187.86 65.78 187.1C65.78 186.367 65.52 185.827 65 185.48C64.48 185.133 63.6267 184.96 62.44 184.96C61.9333 184.96 61.4533 185 61 185.08C60.8933 185.107 60.84 185.167 60.84 185.26ZM59.78 198.06C59.4467 198.02 59.1733 197.88 58.96 197.64C58.7467 197.387 58.64 197.093 58.64 196.76V184.64C58.64 184.307 58.7467 184.02 58.96 183.78C59.1733 183.527 59.4467 183.38 59.78 183.34C60.58 183.247 61.4667 183.2 62.44 183.2C66.04 183.2 67.84 184.4 67.84 186.8C67.84 187.6 67.5667 188.307 67.02 188.92C66.4733 189.52 65.7533 189.907 64.86 190.08C64.8467 190.08 64.84 190.087 64.84 190.1C64.84 190.113 64.8467 190.12 64.86 190.12C65.98 190.293 66.8533 190.707 67.48 191.36C68.12 192.013 68.44 192.827 68.44 193.8C68.44 196.733 66.5067 198.2 62.64 198.2C61.5867 198.2 60.6333 198.153 59.78 198.06ZM82.1875 197.72C82.0008 197.907 81.7742 198 81.5075 198C81.2408 198 81.0142 197.907 80.8275 197.72C80.6408 197.52 80.5475 197.287 80.5475 197.02V188.58C80.5475 188.313 80.6408 188.087 80.8275 187.9C81.0142 187.7 81.2408 187.6 81.5075 187.6C81.7742 187.6 82.0008 187.7 82.1875 187.9C82.3875 188.087 82.4875 188.313 82.4875 188.58V197.02C82.4875 197.287 82.3875 197.52 82.1875 197.72ZM74.0875 196.6C75.1142 196.6 75.8675 196.407 76.3475 196.02C76.8275 195.62 77.0675 195.013 77.0675 194.2C77.0675 193.533 76.8142 193.02 76.3075 192.66C75.8008 192.287 75.0408 192.1 74.0275 192.1C73.5742 192.1 73.1608 192.14 72.7875 192.22C72.6808 192.247 72.6275 192.313 72.6275 192.42V196.28C72.6275 196.387 72.6875 196.453 72.8075 196.48C73.2208 196.56 73.6475 196.6 74.0875 196.6ZM74.3475 190.5C75.8675 190.5 77.0275 190.827 77.8275 191.48C78.6275 192.133 79.0275 193.04 79.0275 194.2C79.0275 195.547 78.6142 196.553 77.7875 197.22C76.9608 197.873 75.6808 198.2 73.9475 198.2C73.1742 198.2 72.4408 198.16 71.7475 198.08C71.4275 198.04 71.1608 197.893 70.9475 197.64C70.7342 197.387 70.6275 197.093 70.6275 196.76V188.6C70.6275 188.32 70.7208 188.087 70.9075 187.9C71.1075 187.7 71.3475 187.6 71.6275 187.6C71.9075 187.6 72.1408 187.7 72.3275 187.9C72.5275 188.087 72.6275 188.32 72.6275 188.6V190.48C72.6275 190.52 72.6475 190.56 72.6875 190.6C72.7275 190.627 72.7675 190.633 72.8075 190.62C73.2742 190.54 73.7875 190.5 74.3475 190.5ZM92.6405 197.7C92.4538 197.9 92.2205 198 91.9405 198C91.6605 198 91.4205 197.9 91.2205 197.7C91.0205 197.5 90.9205 197.26 90.9205 196.98V188.74C90.9205 188.433 91.0271 188.167 91.2405 187.94C91.4671 187.713 91.7338 187.6 92.0405 187.6H92.1005C92.8605 187.6 93.4205 187.933 93.7805 188.6L96.5005 193.64C96.5005 193.653 96.5071 193.66 96.5205 193.66L96.5405 193.64L99.2805 188.6C99.6405 187.933 100.194 187.6 100.94 187.6H101.04C101.347 187.6 101.607 187.713 101.82 187.94C102.047 188.167 102.16 188.433 102.16 188.74V196.96C102.16 197.24 102.06 197.487 101.86 197.7C101.66 197.9 101.42 198 101.14 198C100.86 198 100.614 197.9 100.4 197.7C100.2 197.487 100.1 197.24 100.1 196.96V190.32L100.08 190.3H100.06L97.8405 194.38C97.5605 194.9 97.1205 195.16 96.5205 195.16C95.9338 195.16 95.5005 194.9 95.2205 194.38L92.9805 190.3H92.9605L92.9405 190.32V196.98C92.9405 197.26 92.8405 197.5 92.6405 197.7ZM112.002 192.8C112.002 190.267 111.082 189 109.242 189C107.402 189 106.482 190.267 106.482 192.8C106.482 195.333 107.402 196.6 109.242 196.6C111.082 196.6 112.002 195.333 112.002 192.8ZM112.842 196.8C111.975 197.733 110.775 198.2 109.242 198.2C107.708 198.2 106.508 197.733 105.642 196.8C104.775 195.853 104.342 194.52 104.342 192.8C104.342 191.08 104.775 189.753 105.642 188.82C106.508 187.873 107.708 187.4 109.242 187.4C110.775 187.4 111.975 187.873 112.842 188.82C113.708 189.753 114.142 191.08 114.142 192.8C114.142 194.52 113.708 195.853 112.842 196.8ZM116.571 198C116.331 198 116.157 197.9 116.051 197.7C115.944 197.5 115.957 197.307 116.091 197.12L118.831 192.74C118.897 192.647 118.897 192.553 118.831 192.46L116.211 188.48C116.077 188.293 116.057 188.1 116.151 187.9C116.257 187.7 116.431 187.6 116.671 187.6C117.377 187.6 117.924 187.893 118.311 188.48L120.351 191.66C120.417 191.753 120.504 191.8 120.611 191.8H121.211C121.317 191.8 121.371 191.747 121.371 191.64V188.6C121.371 188.32 121.464 188.087 121.651 187.9C121.851 187.7 122.091 187.6 122.371 187.6C122.651 187.6 122.884 187.7 123.071 187.9C123.271 188.087 123.371 188.32 123.371 188.6V191.64C123.371 191.747 123.431 191.8 123.551 191.8H124.131C124.224 191.8 124.311 191.753 124.391 191.66L126.431 188.48C126.804 187.893 127.351 187.6 128.071 187.6C128.297 187.6 128.457 187.7 128.551 187.9C128.657 188.1 128.651 188.293 128.531 188.48L125.911 192.46C125.831 192.553 125.831 192.647 125.911 192.74L128.651 197.12C128.771 197.307 128.777 197.5 128.671 197.7C128.564 197.9 128.397 198 128.171 198C127.464 198 126.931 197.7 126.571 197.1L124.391 193.6C124.311 193.493 124.224 193.44 124.131 193.44H123.551C123.431 193.44 123.371 193.5 123.371 193.62V197C123.371 197.28 123.271 197.52 123.071 197.72C122.884 197.907 122.651 198 122.371 198C122.091 198 121.851 197.907 121.651 197.72C121.464 197.52 121.371 197.28 121.371 197V193.62C121.371 193.5 121.317 193.44 121.211 193.44H120.611C120.517 193.44 120.431 193.493 120.351 193.6L118.171 197.1C117.797 197.7 117.264 198 116.571 198ZM134.96 188.96C133.44 188.96 132.586 189.86 132.4 191.66C132.373 191.78 132.426 191.84 132.56 191.84H137.04C137.146 191.84 137.2 191.78 137.2 191.66C137.12 189.86 136.373 188.96 134.96 188.96ZM135.46 198.2C133.793 198.2 132.506 197.747 131.6 196.84C130.706 195.933 130.26 194.587 130.26 192.8C130.26 191.013 130.66 189.667 131.46 188.76C132.273 187.853 133.44 187.4 134.96 187.4C137.733 187.4 139.166 189.027 139.26 192.28C139.273 192.6 139.16 192.867 138.92 193.08C138.68 193.293 138.4 193.4 138.08 193.4H132.54C132.433 193.4 132.38 193.453 132.38 193.56C132.54 195.613 133.633 196.64 135.66 196.64C136.366 196.64 137.06 196.527 137.74 196.3C137.94 196.233 138.126 196.26 138.3 196.38C138.473 196.5 138.56 196.667 138.56 196.88C138.56 197.133 138.48 197.36 138.32 197.56C138.16 197.76 137.953 197.893 137.7 197.96C136.966 198.12 136.22 198.2 135.46 198.2ZM141.745 189.22C141.532 189.22 141.345 189.147 141.185 189C141.025 188.84 140.945 188.647 140.945 188.42C140.945 188.193 141.025 188 141.185 187.84C141.345 187.68 141.532 187.6 141.745 187.6H149.185C149.399 187.6 149.585 187.68 149.745 187.84C149.919 188 150.005 188.193 150.005 188.42C150.005 188.633 149.925 188.82 149.765 188.98C149.605 189.14 149.412 189.22 149.185 189.22H146.725C146.605 189.22 146.545 189.28 146.545 189.4V196.92C146.545 197.213 146.439 197.467 146.225 197.68C146.012 197.893 145.759 198 145.465 198C145.172 198 144.919 197.893 144.705 197.68C144.492 197.467 144.385 197.213 144.385 196.92V189.4C144.385 189.28 144.325 189.22 144.205 189.22H141.745ZM156.288 188.96C154.768 188.96 153.914 189.86 153.728 191.66C153.701 191.78 153.754 191.84 153.888 191.84H158.368C158.474 191.84 158.528 191.78 158.528 191.66C158.448 189.86 157.701 188.96 156.288 188.96ZM156.788 198.2C155.121 198.2 153.834 197.747 152.928 196.84C152.034 195.933 151.588 194.587 151.588 192.8C151.588 191.013 151.988 189.667 152.788 188.76C153.601 187.853 154.768 187.4 156.288 187.4C159.061 187.4 160.494 189.027 160.588 192.28C160.601 192.6 160.488 192.867 160.248 193.08C160.008 193.293 159.728 193.4 159.408 193.4H153.868C153.761 193.4 153.708 193.453 153.708 193.56C153.868 195.613 154.961 196.64 156.988 196.64C157.694 196.64 158.388 196.527 159.068 196.3C159.268 196.233 159.454 196.26 159.628 196.38C159.801 196.5 159.888 196.667 159.888 196.88C159.888 197.133 159.808 197.36 159.648 197.56C159.488 197.76 159.281 197.893 159.028 197.96C158.294 198.12 157.548 198.2 156.788 198.2ZM175.38 192.8C175.38 190.267 174.46 189 172.62 189C170.78 189 169.86 190.267 169.86 192.8C169.86 195.333 170.78 196.6 172.62 196.6C174.46 196.6 175.38 195.333 175.38 192.8ZM176.22 196.8C175.354 197.733 174.154 198.2 172.62 198.2C171.087 198.2 169.887 197.733 169.02 196.8C168.154 195.853 167.72 194.52 167.72 192.8C167.72 191.08 168.154 189.753 169.02 188.82C169.887 187.873 171.087 187.4 172.62 187.4C174.154 187.4 175.354 187.873 176.22 188.82C177.087 189.753 177.52 191.08 177.52 192.8C177.52 194.52 177.087 195.853 176.22 196.8ZM179.93 197.84C179.69 197.787 179.49 197.66 179.33 197.46C179.183 197.26 179.11 197.033 179.11 196.78C179.11 196.58 179.19 196.42 179.35 196.3C179.523 196.18 179.71 196.147 179.91 196.2C180.83 196.467 181.75 196.6 182.67 196.6C184.563 196.6 185.51 196.047 185.51 194.94C185.51 194.407 185.216 194.007 184.63 193.74C184.056 193.473 183.043 193.333 181.59 193.32C181.376 193.32 181.196 193.24 181.05 193.08C180.903 192.92 180.83 192.733 180.83 192.52C180.83 192.307 180.903 192.127 181.05 191.98C181.196 191.82 181.383 191.74 181.61 191.74C184.116 191.727 185.37 191.247 185.37 190.3C185.37 189.393 184.436 188.94 182.57 188.94C181.783 188.94 180.936 189.08 180.03 189.36C179.843 189.413 179.67 189.387 179.51 189.28C179.35 189.16 179.27 189 179.27 188.8C179.27 188.547 179.343 188.327 179.49 188.14C179.636 187.94 179.83 187.813 180.07 187.76C180.99 187.52 181.89 187.4 182.77 187.4C184.25 187.4 185.403 187.647 186.23 188.14C187.056 188.633 187.47 189.253 187.47 190C187.47 190.547 187.25 191.053 186.81 191.52C186.383 191.973 185.79 192.293 185.03 192.48C185.003 192.48 184.99 192.487 184.99 192.5C184.99 192.527 185.003 192.54 185.03 192.54C185.816 192.673 186.443 192.987 186.91 193.48C187.39 193.973 187.63 194.547 187.63 195.2C187.63 196.107 187.21 196.833 186.37 197.38C185.53 197.927 184.33 198.2 182.77 198.2C181.836 198.2 180.89 198.08 179.93 197.84ZM191.725 197.7C191.525 197.9 191.278 198 190.985 198C190.692 198 190.438 197.9 190.225 197.7C190.012 197.487 189.905 197.233 189.905 196.94V188.66C189.905 188.367 190.012 188.12 190.225 187.92C190.438 187.707 190.692 187.6 190.985 187.6C191.278 187.6 191.525 187.707 191.725 187.92C191.938 188.12 192.045 188.367 192.045 188.66V191.56C192.045 191.667 192.098 191.72 192.205 191.72H196.445C196.552 191.72 196.605 191.667 196.605 191.56V188.66C196.605 188.367 196.705 188.12 196.905 187.92C197.118 187.707 197.372 187.6 197.665 187.6C197.958 187.6 198.212 187.707 198.425 187.92C198.638 188.12 198.745 188.367 198.745 188.66V196.94C198.745 197.233 198.638 197.487 198.425 197.7C198.212 197.9 197.958 198 197.665 198C197.372 198 197.118 197.9 196.905 197.7C196.705 197.487 196.605 197.233 196.605 196.94V193.4C196.605 193.293 196.552 193.24 196.445 193.24H192.205C192.098 193.24 192.045 193.293 192.045 193.4V196.94C192.045 197.233 191.938 197.487 191.725 197.7ZM206.524 192.76C205.43 192.76 204.604 192.947 204.044 193.32C203.497 193.68 203.224 194.173 203.224 194.8C203.224 195.293 203.37 195.7 203.664 196.02C203.957 196.34 204.31 196.5 204.724 196.5C205.604 196.5 206.304 196.227 206.824 195.68C207.357 195.12 207.624 194.36 207.624 193.4V192.92C207.624 192.813 207.564 192.76 207.444 192.76H206.524ZM204.224 198.2C203.317 198.2 202.57 197.907 201.984 197.32C201.41 196.733 201.124 195.96 201.124 195C201.124 193.827 201.57 192.92 202.464 192.28C203.357 191.627 204.71 191.3 206.524 191.3H207.444C207.564 191.3 207.624 191.24 207.624 191.12V190.9C207.624 190.193 207.457 189.7 207.124 189.42C206.79 189.14 206.19 189 205.324 189C204.55 189 203.63 189.16 202.564 189.48C202.364 189.547 202.17 189.52 201.984 189.4C201.81 189.267 201.724 189.093 201.724 188.88C201.724 188.613 201.804 188.373 201.964 188.16C202.124 187.947 202.33 187.813 202.584 187.76C203.544 187.52 204.457 187.4 205.324 187.4C207.004 187.4 208.157 187.7 208.784 188.3C209.41 188.9 209.724 190 209.724 191.6V197.02C209.724 197.287 209.624 197.52 209.424 197.72C209.237 197.907 209.01 198 208.744 198C208.477 198 208.244 197.907 208.044 197.72C207.857 197.52 207.757 197.287 207.744 197.02L207.724 196.52C207.724 196.507 207.717 196.5 207.704 196.5C207.677 196.5 207.664 196.507 207.664 196.52C206.89 197.64 205.744 198.2 204.224 198.2ZM214.283 197.7C214.083 197.9 213.836 198 213.543 198C213.249 198 213.003 197.9 212.803 197.7C212.603 197.5 212.503 197.253 212.503 196.96V188.64C212.503 188.347 212.603 188.1 212.803 187.9C213.003 187.7 213.249 187.6 213.543 187.6C213.836 187.6 214.083 187.7 214.283 187.9C214.496 188.1 214.603 188.347 214.603 188.64V192.18C214.603 192.193 214.609 192.2 214.623 192.2L214.663 192.18L218.223 188.42C218.743 187.873 219.383 187.6 220.143 187.6H220.363C220.576 187.6 220.723 187.7 220.803 187.9C220.896 188.1 220.869 188.273 220.723 188.42L216.823 192.48C216.756 192.547 216.756 192.627 216.823 192.72L220.743 197.16C220.889 197.32 220.916 197.5 220.823 197.7C220.743 197.9 220.589 198 220.363 198H220.143C219.396 198 218.769 197.713 218.263 197.14L214.663 193.02C214.649 193.007 214.636 193 214.623 193C214.609 193 214.603 193.007 214.603 193.02V196.96C214.603 197.253 214.496 197.5 214.283 197.7ZM230.127 192.8C230.127 190.267 229.207 189 227.367 189C225.527 189 224.607 190.267 224.607 192.8C224.607 195.333 225.527 196.6 227.367 196.6C229.207 196.6 230.127 195.333 230.127 192.8ZM230.967 196.8C230.1 197.733 228.9 198.2 227.367 198.2C225.833 198.2 224.633 197.733 223.767 196.8C222.9 195.853 222.467 194.52 222.467 192.8C222.467 191.08 222.9 189.753 223.767 188.82C224.633 187.873 225.833 187.4 227.367 187.4C228.9 187.4 230.1 187.873 230.967 188.82C231.833 189.753 232.267 191.08 232.267 192.8C232.267 194.52 231.833 195.853 230.967 196.8ZM236.176 197.7C235.989 197.9 235.756 198 235.476 198C235.196 198 234.956 197.9 234.756 197.7C234.556 197.5 234.456 197.26 234.456 196.98V188.74C234.456 188.433 234.562 188.167 234.776 187.94C235.002 187.713 235.269 187.6 235.576 187.6H235.636C236.396 187.6 236.956 187.933 237.316 188.6L240.036 193.64C240.036 193.653 240.042 193.66 240.056 193.66L240.076 193.64L242.816 188.6C243.176 187.933 243.729 187.6 244.476 187.6H244.576C244.882 187.6 245.142 187.713 245.356 187.94C245.582 188.167 245.696 188.433 245.696 188.74V196.96C245.696 197.24 245.596 197.487 245.396 197.7C245.196 197.9 244.956 198 244.676 198C244.396 198 244.149 197.9 243.936 197.7C243.736 197.487 243.636 197.24 243.636 196.96V190.32L243.616 190.3H243.596L241.376 194.38C241.096 194.9 240.656 195.16 240.056 195.16C239.469 195.16 239.036 194.9 238.756 194.38L236.516 190.3H236.496L236.476 190.32V196.98C236.476 197.26 236.376 197.5 236.176 197.7ZM249.677 198C249.37 198 249.11 197.893 248.897 197.68C248.683 197.467 248.577 197.213 248.577 196.92V188.64C248.577 188.347 248.677 188.1 248.877 187.9C249.09 187.7 249.343 187.6 249.637 187.6C249.93 187.6 250.177 187.7 250.377 187.9C250.577 188.1 250.677 188.347 250.677 188.64V195.14L250.697 195.16H250.717L254.737 188.52C255.123 187.907 255.677 187.6 256.397 187.6C256.703 187.6 256.963 187.707 257.177 187.92C257.39 188.133 257.497 188.387 257.497 188.68V196.96C257.497 197.253 257.39 197.5 257.177 197.7C256.977 197.9 256.73 198 256.437 198C256.143 198 255.897 197.9 255.697 197.7C255.497 197.5 255.397 197.253 255.397 196.96V190.46L255.377 190.44H255.357L251.337 197.08C250.95 197.693 250.397 198 249.677 198ZM260.574 189.22C260.36 189.22 260.174 189.147 260.014 189C259.854 188.84 259.774 188.647 259.774 188.42C259.774 188.193 259.854 188 260.014 187.84C260.174 187.68 260.36 187.6 260.574 187.6H268.014C268.227 187.6 268.414 187.68 268.574 187.84C268.747 188 268.834 188.193 268.834 188.42C268.834 188.633 268.754 188.82 268.594 188.98C268.434 189.14 268.24 189.22 268.014 189.22H265.554C265.434 189.22 265.374 189.28 265.374 189.4V196.92C265.374 197.213 265.267 197.467 265.054 197.68C264.84 197.893 264.587 198 264.294 198C264 198 263.747 197.893 263.534 197.68C263.32 197.467 263.214 197.213 263.214 196.92V189.4C263.214 189.28 263.154 189.22 263.034 189.22H260.574ZM273.116 192.42V196.28C273.116 196.387 273.176 196.453 273.296 196.48C273.709 196.56 274.129 196.6 274.556 196.6C275.582 196.6 276.336 196.407 276.816 196.02C277.309 195.62 277.556 195.013 277.556 194.2C277.556 193.533 277.302 193.02 276.796 192.66C276.289 192.287 275.529 192.1 274.516 192.1C274.062 192.1 273.649 192.14 273.276 192.22C273.169 192.247 273.116 192.313 273.116 192.42ZM272.236 198.08C271.916 198.04 271.649 197.893 271.436 197.64C271.222 197.387 271.116 197.093 271.116 196.76V188.6C271.116 188.32 271.209 188.087 271.396 187.9C271.596 187.7 271.836 187.6 272.116 187.6C272.396 187.6 272.629 187.7 272.816 187.9C273.016 188.087 273.116 188.32 273.116 188.6V190.48C273.116 190.6 273.169 190.647 273.276 190.62C273.729 190.54 274.242 190.5 274.816 190.5C276.336 190.5 277.496 190.833 278.296 191.5C279.109 192.153 279.516 193.053 279.516 194.2C279.516 195.547 279.096 196.553 278.256 197.22C277.429 197.873 276.149 198.2 274.416 198.2C273.656 198.2 272.929 198.16 272.236 198.08ZM286.002 198.2C284.402 198.2 283.168 197.747 282.302 196.84C281.435 195.92 281.002 194.573 281.002 192.8C281.002 191.053 281.422 189.72 282.262 188.8C283.102 187.867 284.282 187.4 285.802 187.4C286.508 187.4 287.182 187.447 287.822 187.54C288.075 187.58 288.282 187.7 288.442 187.9C288.615 188.1 288.702 188.333 288.702 188.6C288.702 188.827 288.608 189.007 288.422 189.14C288.248 189.273 288.048 189.313 287.822 189.26C287.235 189.127 286.615 189.06 285.962 189.06C285.042 189.06 284.348 189.36 283.882 189.96C283.428 190.547 283.202 191.493 283.202 192.8C283.202 194.133 283.442 195.093 283.922 195.68C284.415 196.267 285.162 196.56 286.162 196.56C286.788 196.56 287.388 196.473 287.962 196.3C288.175 196.233 288.368 196.267 288.542 196.4C288.715 196.52 288.802 196.687 288.802 196.9C288.802 197.167 288.715 197.407 288.542 197.62C288.368 197.833 288.155 197.967 287.902 198.02C287.262 198.14 286.628 198.2 286.002 198.2ZM295.805 188.98C293.885 188.98 292.925 189.533 292.925 190.64C292.925 191.76 293.938 192.32 295.965 192.32H296.985C297.105 192.32 297.165 192.267 297.165 192.16V189.24C297.165 189.133 297.105 189.067 296.985 189.04C296.585 189 296.191 188.98 295.805 188.98ZM293.545 193.14C292.785 192.953 292.158 192.633 291.665 192.18C291.171 191.713 290.925 191.133 290.925 190.44C290.925 188.453 292.525 187.46 295.725 187.46C296.471 187.46 297.278 187.493 298.145 187.56C298.465 187.587 298.725 187.72 298.925 187.96C299.138 188.2 299.245 188.48 299.245 188.8V196.96C299.245 197.253 299.145 197.5 298.945 197.7C298.745 197.9 298.498 198 298.205 198C297.911 198 297.665 197.9 297.465 197.7C297.265 197.5 297.165 197.253 297.165 196.96V193.98C297.165 193.86 297.105 193.8 296.985 193.8H296.045C295.418 193.8 294.985 193.88 294.745 194.04C294.518 194.187 294.251 194.573 293.945 195.2L293.105 197.06C292.971 197.34 292.771 197.567 292.505 197.74C292.238 197.913 291.945 198 291.625 198C291.385 198 291.198 197.9 291.065 197.7C290.945 197.5 290.938 197.287 291.045 197.06L291.985 195.08C292.265 194.493 292.518 194.067 292.745 193.8C292.971 193.52 293.238 193.313 293.545 193.18C293.571 193.18 293.585 193.173 293.585 193.16C293.585 193.147 293.571 193.14 293.545 193.14ZM62.74 228.2C61.14 228.2 59.9067 227.747 59.04 226.84C58.1733 225.92 57.74 224.573 57.74 222.8C57.74 221.053 58.16 219.72 59 218.8C59.84 217.867 61.02 217.4 62.54 217.4C63.2467 217.4 63.92 217.447 64.56 217.54C64.8133 217.58 65.02 217.7 65.18 217.9C65.3533 218.1 65.44 218.333 65.44 218.6C65.44 218.827 65.3467 219.007 65.16 219.14C64.9867 219.273 64.7867 219.313 64.56 219.26C63.9733 219.127 63.3533 219.06 62.7 219.06C61.78 219.06 61.0867 219.36 60.62 219.96C60.1667 220.547 59.94 221.493 59.94 222.8C59.94 224.133 60.18 225.093 60.66 225.68C61.1533 226.267 61.9 226.56 62.9 226.56C63.5267 226.56 64.1267 226.473 64.7 226.3C64.9133 226.233 65.1067 226.267 65.28 226.4C65.4533 226.52 65.54 226.687 65.54 226.9C65.54 227.167 65.4533 227.407 65.28 227.62C65.1067 227.833 64.8933 227.967 64.64 228.02C64 228.14 63.3667 228.2 62.74 228.2ZM75.9697 221.3V224.3C75.9697 224.913 76.223 225.453 76.7297 225.92C77.2497 226.373 77.863 226.6 78.5697 226.6C79.3697 226.6 80.003 226.28 80.4697 225.64C80.9364 225 81.1697 224.053 81.1697 222.8C81.1697 220.267 80.303 219 78.5697 219C77.863 219 77.2497 219.233 76.7297 219.7C76.223 220.153 75.9697 220.687 75.9697 221.3ZM75.6497 232.1C75.4497 232.3 75.203 232.4 74.9097 232.4C74.6164 232.4 74.3697 232.3 74.1697 232.1C73.9697 231.9 73.8697 231.653 73.8697 231.36V218.58C73.8697 218.313 73.963 218.087 74.1497 217.9C74.3497 217.7 74.583 217.6 74.8497 217.6C75.1164 217.6 75.3497 217.7 75.5497 217.9C75.7497 218.087 75.8564 218.313 75.8697 218.58V218.88C75.8697 218.893 75.8764 218.9 75.8897 218.9C75.903 218.9 75.9164 218.893 75.9297 218.88C76.423 218.333 76.9097 217.953 77.3897 217.74C77.8697 217.513 78.4297 217.4 79.0697 217.4C80.3364 217.4 81.3497 217.873 82.1097 218.82C82.883 219.767 83.2697 221.093 83.2697 222.8C83.2697 224.453 82.8697 225.767 82.0697 226.74C81.283 227.713 80.283 228.2 79.0697 228.2C77.883 228.2 76.8697 227.773 76.0297 226.92C76.0164 226.907 76.003 226.9 75.9897 226.9C75.9764 226.9 75.9697 226.907 75.9697 226.92V231.36C75.9697 231.653 75.863 231.9 75.6497 232.1ZM90.4494 222.76C89.356 222.76 88.5294 222.947 87.9694 223.32C87.4227 223.68 87.1494 224.173 87.1494 224.8C87.1494 225.293 87.296 225.7 87.5894 226.02C87.8827 226.34 88.236 226.5 88.6494 226.5C89.5294 226.5 90.2294 226.227 90.7494 225.68C91.2827 225.12 91.5494 224.36 91.5494 223.4V222.92C91.5494 222.813 91.4894 222.76 91.3694 222.76H90.4494ZM88.1494 228.2C87.2427 228.2 86.496 227.907 85.9094 227.32C85.336 226.733 85.0494 225.96 85.0494 225C85.0494 223.827 85.496 222.92 86.3894 222.28C87.2827 221.627 88.636 221.3 90.4494 221.3H91.3694C91.4894 221.3 91.5494 221.24 91.5494 221.12V220.9C91.5494 220.193 91.3827 219.7 91.0494 219.42C90.716 219.14 90.116 219 89.2494 219C88.476 219 87.556 219.16 86.4894 219.48C86.2894 219.547 86.096 219.52 85.9094 219.4C85.736 219.267 85.6494 219.093 85.6494 218.88C85.6494 218.613 85.7294 218.373 85.8894 218.16C86.0494 217.947 86.256 217.813 86.5094 217.76C87.4694 217.52 88.3827 217.4 89.2494 217.4C90.9294 217.4 92.0827 217.7 92.7094 218.3C93.336 218.9 93.6494 220 93.6494 221.6V227.02C93.6494 227.287 93.5494 227.52 93.3494 227.72C93.1627 227.907 92.936 228 92.6694 228C92.4027 228 92.1694 227.907 91.9694 227.72C91.7827 227.52 91.6827 227.287 91.6694 227.02L91.6494 226.52C91.6494 226.507 91.6427 226.5 91.6294 226.5C91.6027 226.5 91.5894 226.507 91.5894 226.52C90.816 227.64 89.6694 228.2 88.1494 228.2ZM100.728 228.2C99.1283 228.2 97.8949 227.747 97.0283 226.84C96.1616 225.92 95.7283 224.573 95.7283 222.8C95.7283 221.053 96.1483 219.72 96.9883 218.8C97.8283 217.867 99.0083 217.4 100.528 217.4C101.235 217.4 101.908 217.447 102.548 217.54C102.802 217.58 103.008 217.7 103.168 217.9C103.342 218.1 103.428 218.333 103.428 218.6C103.428 218.827 103.335 219.007 103.148 219.14C102.975 219.273 102.775 219.313 102.548 219.26C101.962 219.127 101.342 219.06 100.688 219.06C99.7683 219.06 99.0749 219.36 98.6083 219.96C98.1549 220.547 97.9283 221.493 97.9283 222.8C97.9283 224.133 98.1683 225.093 98.6483 225.68C99.1416 226.267 99.8883 226.56 100.888 226.56C101.515 226.56 102.115 226.473 102.688 226.3C102.902 226.233 103.095 226.267 103.268 226.4C103.442 226.52 103.528 226.687 103.528 226.9C103.528 227.167 103.442 227.407 103.268 227.62C103.095 227.833 102.882 227.967 102.628 228.02C101.988 228.14 101.355 228.2 100.728 228.2ZM108.011 227.72C107.824 227.907 107.591 228 107.311 228C107.031 228 106.791 227.907 106.591 227.72C106.404 227.52 106.311 227.28 106.311 227V218.74C106.311 218.433 106.418 218.167 106.631 217.94C106.858 217.713 107.124 217.6 107.431 217.6H113.791C114.098 217.6 114.358 217.713 114.571 217.94C114.798 218.167 114.911 218.433 114.911 218.74V227C114.911 227.28 114.811 227.52 114.611 227.72C114.424 227.907 114.191 228 113.911 228C113.631 228 113.391 227.907 113.191 227.72C113.004 227.52 112.911 227.28 112.911 227V219.42C112.911 219.3 112.858 219.24 112.751 219.24H108.471C108.364 219.24 108.311 219.3 108.311 219.42V227C108.311 227.28 108.211 227.52 108.011 227.72ZM118.895 228C118.589 228 118.329 227.893 118.115 227.68C117.902 227.467 117.795 227.213 117.795 226.92V218.64C117.795 218.347 117.895 218.1 118.095 217.9C118.309 217.7 118.562 217.6 118.855 217.6C119.149 217.6 119.395 217.7 119.595 217.9C119.795 218.1 119.895 218.347 119.895 218.64V225.14L119.915 225.16H119.935L123.955 218.52C124.342 217.907 124.895 217.6 125.615 217.6C125.922 217.6 126.182 217.707 126.395 217.92C126.609 218.133 126.715 218.387 126.715 218.68V226.96C126.715 227.253 126.609 227.5 126.395 227.7C126.195 227.9 125.949 228 125.655 228C125.362 228 125.115 227.9 124.915 227.7C124.715 227.5 124.615 227.253 124.615 226.96V220.46L124.595 220.44H124.575L120.555 227.08C120.169 227.693 119.615 228 118.895 228ZM133.892 228.2C132.292 228.2 131.059 227.747 130.192 226.84C129.326 225.92 128.892 224.573 128.892 222.8C128.892 221.053 129.312 219.72 130.152 218.8C130.992 217.867 132.172 217.4 133.692 217.4C134.399 217.4 135.072 217.447 135.712 217.54C135.966 217.58 136.172 217.7 136.332 217.9C136.506 218.1 136.592 218.333 136.592 218.6C136.592 218.827 136.499 219.007 136.312 219.14C136.139 219.273 135.939 219.313 135.712 219.26C135.126 219.127 134.506 219.06 133.852 219.06C132.932 219.06 132.239 219.36 131.772 219.96C131.319 220.547 131.092 221.493 131.092 222.8C131.092 224.133 131.332 225.093 131.812 225.68C132.306 226.267 133.052 226.56 134.052 226.56C134.679 226.56 135.279 226.473 135.852 226.3C136.066 226.233 136.259 226.267 136.432 226.4C136.606 226.52 136.692 226.687 136.692 226.9C136.692 227.167 136.606 227.407 136.432 227.62C136.259 227.833 136.046 227.967 135.792 228.02C135.152 228.14 134.519 228.2 133.892 228.2ZM144.375 222.76C143.282 222.76 142.455 222.947 141.895 223.32C141.348 223.68 141.075 224.173 141.075 224.8C141.075 225.293 141.222 225.7 141.515 226.02C141.808 226.34 142.162 226.5 142.575 226.5C143.455 226.5 144.155 226.227 144.675 225.68C145.208 225.12 145.475 224.36 145.475 223.4V222.92C145.475 222.813 145.415 222.76 145.295 222.76H144.375ZM142.075 228.2C141.168 228.2 140.422 227.907 139.835 227.32C139.262 226.733 138.975 225.96 138.975 225C138.975 223.827 139.422 222.92 140.315 222.28C141.208 221.627 142.562 221.3 144.375 221.3H145.295C145.415 221.3 145.475 221.24 145.475 221.12V220.9C145.475 220.193 145.308 219.7 144.975 219.42C144.642 219.14 144.042 219 143.175 219C142.402 219 141.482 219.16 140.415 219.48C140.215 219.547 140.022 219.52 139.835 219.4C139.662 219.267 139.575 219.093 139.575 218.88C139.575 218.613 139.655 218.373 139.815 218.16C139.975 217.947 140.182 217.813 140.435 217.76C141.395 217.52 142.308 217.4 143.175 217.4C144.855 217.4 146.008 217.7 146.635 218.3C147.262 218.9 147.575 220 147.575 221.6V227.02C147.575 227.287 147.475 227.52 147.275 227.72C147.088 227.907 146.862 228 146.595 228C146.328 228 146.095 227.907 145.895 227.72C145.708 227.52 145.608 227.287 145.595 227.02L145.575 226.52C145.575 226.507 145.568 226.5 145.555 226.5C145.528 226.5 145.515 226.507 145.515 226.52C144.742 227.64 143.595 228.2 142.075 228.2ZM152.174 227.7C151.974 227.9 151.727 228 151.434 228C151.141 228 150.887 227.9 150.674 227.7C150.461 227.487 150.354 227.233 150.354 226.94V218.66C150.354 218.367 150.461 218.12 150.674 217.92C150.887 217.707 151.141 217.6 151.434 217.6C151.727 217.6 151.974 217.707 152.174 217.92C152.387 218.12 152.494 218.367 152.494 218.66V221.56C152.494 221.667 152.547 221.72 152.654 221.72H156.894C157.001 221.72 157.054 221.667 157.054 221.56V218.66C157.054 218.367 157.154 218.12 157.354 217.92C157.567 217.707 157.821 217.6 158.114 217.6C158.407 217.6 158.661 217.707 158.874 217.92C159.087 218.12 159.194 218.367 159.194 218.66V226.94C159.194 227.233 159.087 227.487 158.874 227.7C158.661 227.9 158.407 228 158.114 228C157.821 228 157.567 227.9 157.354 227.7C157.154 227.487 157.054 227.233 157.054 226.94V223.4C157.054 223.293 157.001 223.24 156.894 223.24H152.654C152.547 223.24 152.494 223.293 152.494 223.4V226.94C152.494 227.233 152.387 227.487 152.174 227.7ZM163.173 228C162.866 228 162.606 227.893 162.393 227.68C162.179 227.467 162.073 227.213 162.073 226.92V218.64C162.073 218.347 162.173 218.1 162.373 217.9C162.586 217.7 162.839 217.6 163.133 217.6C163.426 217.6 163.673 217.7 163.873 217.9C164.073 218.1 164.173 218.347 164.173 218.64V225.14L164.193 225.16H164.213L168.233 218.52C168.619 217.907 169.173 217.6 169.893 217.6C170.199 217.6 170.459 217.707 170.673 217.92C170.886 218.133 170.993 218.387 170.993 218.68V226.96C170.993 227.253 170.886 227.5 170.673 227.7C170.473 227.9 170.226 228 169.933 228C169.639 228 169.393 227.9 169.193 227.7C168.993 227.5 168.893 227.253 168.893 226.96V220.46L168.873 220.44H168.853L164.833 227.08C164.446 227.693 163.893 228 163.173 228ZM177.87 218.96C176.35 218.96 175.496 219.86 175.31 221.66C175.283 221.78 175.336 221.84 175.47 221.84H179.95C180.056 221.84 180.11 221.78 180.11 221.66C180.03 219.86 179.283 218.96 177.87 218.96ZM178.37 228.2C176.703 228.2 175.416 227.747 174.51 226.84C173.616 225.933 173.17 224.587 173.17 222.8C173.17 221.013 173.57 219.667 174.37 218.76C175.183 217.853 176.35 217.4 177.87 217.4C180.643 217.4 182.076 219.027 182.17 222.28C182.183 222.6 182.07 222.867 181.83 223.08C181.59 223.293 181.31 223.4 180.99 223.4H175.45C175.343 223.4 175.29 223.453 175.29 223.56C175.45 225.613 176.543 226.64 178.57 226.64C179.276 226.64 179.97 226.527 180.65 226.3C180.85 226.233 181.036 226.26 181.21 226.38C181.383 226.5 181.47 226.667 181.47 226.88C181.47 227.133 181.39 227.36 181.23 227.56C181.07 227.76 180.863 227.893 180.61 227.96C179.876 228.12 179.13 228.2 178.37 228.2ZM186.176 227.7C185.989 227.9 185.756 228 185.476 228C185.196 228 184.956 227.9 184.756 227.7C184.556 227.5 184.456 227.26 184.456 226.98V218.74C184.456 218.433 184.562 218.167 184.776 217.94C185.002 217.713 185.269 217.6 185.576 217.6H185.636C186.396 217.6 186.956 217.933 187.316 218.6L190.036 223.64C190.036 223.653 190.042 223.66 190.056 223.66L190.076 223.64L192.816 218.6C193.176 217.933 193.729 217.6 194.476 217.6H194.576C194.882 217.6 195.142 217.713 195.356 217.94C195.582 218.167 195.696 218.433 195.696 218.74V226.96C195.696 227.24 195.596 227.487 195.396 227.7C195.196 227.9 194.956 228 194.676 228C194.396 228 194.149 227.9 193.936 227.7C193.736 227.487 193.636 227.24 193.636 226.96V220.32L193.616 220.3H193.596L191.376 224.38C191.096 224.9 190.656 225.16 190.056 225.16C189.469 225.16 189.036 224.9 188.756 224.38L186.516 220.3H186.496L186.476 220.32V226.98C186.476 227.26 186.376 227.5 186.176 227.7ZM211.084 222.8C211.084 220.267 210.164 219 208.324 219C206.484 219 205.564 220.267 205.564 222.8C205.564 225.333 206.484 226.6 208.324 226.6C210.164 226.6 211.084 225.333 211.084 222.8ZM211.924 226.8C211.057 227.733 209.857 228.2 208.324 228.2C206.79 228.2 205.59 227.733 204.724 226.8C203.857 225.853 203.424 224.52 203.424 222.8C203.424 221.08 203.857 219.753 204.724 218.82C205.59 217.873 206.79 217.4 208.324 217.4C209.857 217.4 211.057 217.873 211.924 218.82C212.79 219.753 213.224 221.08 213.224 222.8C213.224 224.52 212.79 225.853 211.924 226.8ZM217.233 227.7C217.033 227.9 216.786 228 216.493 228C216.199 228 215.946 227.9 215.733 227.7C215.519 227.487 215.413 227.233 215.413 226.94V218.66C215.413 218.367 215.519 218.12 215.733 217.92C215.946 217.707 216.199 217.6 216.493 217.6C216.786 217.6 217.033 217.707 217.233 217.92C217.446 218.12 217.553 218.367 217.553 218.66V221.56C217.553 221.667 217.606 221.72 217.713 221.72H221.953C222.059 221.72 222.113 221.667 222.113 221.56V218.66C222.113 218.367 222.213 218.12 222.413 217.92C222.626 217.707 222.879 217.6 223.173 217.6C223.466 217.6 223.719 217.707 223.933 217.92C224.146 218.12 224.253 218.367 224.253 218.66V226.94C224.253 227.233 224.146 227.487 223.933 227.7C223.719 227.9 223.466 228 223.173 228C222.879 228 222.626 227.9 222.413 227.7C222.213 227.487 222.113 227.233 222.113 226.94V223.4C222.113 223.293 222.059 223.24 221.953 223.24H217.713C217.606 223.24 217.553 223.293 217.553 223.4V226.94C217.553 227.233 217.446 227.487 217.233 227.7ZM226.951 228.12C226.738 228.147 226.545 228.087 226.371 227.94C226.211 227.793 226.131 227.607 226.131 227.38C226.131 227.153 226.211 226.953 226.371 226.78C226.531 226.607 226.731 226.5 226.971 226.46C227.665 226.327 228.131 225.993 228.371 225.46C228.611 224.927 228.731 223.973 228.731 222.6V218.74C228.731 218.433 228.845 218.167 229.071 217.94C229.298 217.713 229.565 217.6 229.871 217.6H235.691C235.998 217.6 236.265 217.713 236.491 217.94C236.718 218.167 236.831 218.433 236.831 218.74V227C236.831 227.28 236.731 227.52 236.531 227.72C236.345 227.907 236.111 228 235.831 228C235.551 228 235.311 227.907 235.111 227.72C234.925 227.52 234.831 227.28 234.831 227V219.42C234.831 219.3 234.778 219.24 234.671 219.24H230.851C230.745 219.24 230.691 219.3 230.691 219.42V222.96C230.691 224.773 230.425 226.047 229.891 226.78C229.371 227.5 228.391 227.947 226.951 228.12ZM244.61 222.76C243.516 222.76 242.69 222.947 242.13 223.32C241.583 223.68 241.31 224.173 241.31 224.8C241.31 225.293 241.456 225.7 241.75 226.02C242.043 226.34 242.396 226.5 242.81 226.5C243.69 226.5 244.39 226.227 244.91 225.68C245.443 225.12 245.71 224.36 245.71 223.4V222.92C245.71 222.813 245.65 222.76 245.53 222.76H244.61ZM242.31 228.2C241.403 228.2 240.656 227.907 240.07 227.32C239.496 226.733 239.21 225.96 239.21 225C239.21 223.827 239.656 222.92 240.55 222.28C241.443 221.627 242.796 221.3 244.61 221.3H245.53C245.65 221.3 245.71 221.24 245.71 221.12V220.9C245.71 220.193 245.543 219.7 245.21 219.42C244.876 219.14 244.276 219 243.41 219C242.636 219 241.716 219.16 240.65 219.48C240.45 219.547 240.256 219.52 240.07 219.4C239.896 219.267 239.81 219.093 239.81 218.88C239.81 218.613 239.89 218.373 240.05 218.16C240.21 217.947 240.416 217.813 240.67 217.76C241.63 217.52 242.543 217.4 243.41 217.4C245.09 217.4 246.243 217.7 246.87 218.3C247.496 218.9 247.81 220 247.81 221.6V227.02C247.81 227.287 247.71 227.52 247.51 227.72C247.323 227.907 247.096 228 246.83 228C246.563 228 246.33 227.907 246.13 227.72C245.943 227.52 245.843 227.287 245.83 227.02L245.81 226.52C245.81 226.507 245.803 226.5 245.79 226.5C245.763 226.5 245.75 226.507 245.75 226.52C244.976 227.64 243.83 228.2 242.31 228.2ZM251.688 228C251.382 228 251.122 227.893 250.908 227.68C250.695 227.467 250.588 227.213 250.588 226.92V218.64C250.588 218.347 250.688 218.1 250.888 217.9C251.102 217.7 251.355 217.6 251.648 217.6C251.942 217.6 252.188 217.7 252.388 217.9C252.588 218.1 252.688 218.347 252.688 218.64V225.14L252.708 225.16H252.728L256.748 218.52C257.135 217.907 257.688 217.6 258.408 217.6C258.715 217.6 258.975 217.707 259.188 217.92C259.402 218.133 259.508 218.387 259.508 218.68V226.96C259.508 227.253 259.402 227.5 259.188 227.7C258.988 227.9 258.742 228 258.448 228C258.155 228 257.908 227.9 257.708 227.7C257.508 227.5 257.408 227.253 257.408 226.96V220.46L257.388 220.44H257.368L253.348 227.08C252.962 227.693 252.408 228 251.688 228ZM256.968 213.88C257.328 213.36 257.702 213.1 258.088 213.1C258.328 213.1 258.528 213.187 258.688 213.36C258.848 213.533 258.895 213.727 258.828 213.94C258.615 214.633 258.168 215.2 257.488 215.64C256.808 216.08 255.995 216.3 255.048 216.3C254.102 216.3 253.288 216.08 252.608 215.64C251.928 215.2 251.482 214.633 251.268 213.94C251.202 213.727 251.248 213.533 251.408 213.36C251.568 213.187 251.768 213.1 252.008 213.1C252.422 213.1 252.795 213.36 253.128 213.88C253.542 214.493 254.182 214.8 255.048 214.8C255.915 214.8 256.555 214.493 256.968 213.88ZM264.205 227.7C264.005 227.9 263.759 228 263.465 228C263.172 228 262.919 227.9 262.705 227.7C262.492 227.487 262.385 227.233 262.385 226.94V218.66C262.385 218.367 262.492 218.12 262.705 217.92C262.919 217.707 263.172 217.6 263.465 217.6C263.759 217.6 264.005 217.707 264.205 217.92C264.419 218.12 264.525 218.367 264.525 218.66V221.56C264.525 221.667 264.579 221.72 264.685 221.72H268.925C269.032 221.72 269.085 221.667 269.085 221.56V218.66C269.085 218.367 269.185 218.12 269.385 217.92C269.599 217.707 269.852 217.6 270.145 217.6C270.439 217.6 270.692 217.707 270.905 217.92C271.119 218.12 271.225 218.367 271.225 218.66V226.94C271.225 227.233 271.119 227.487 270.905 227.7C270.692 227.9 270.439 228 270.145 228C269.852 228 269.599 227.9 269.385 227.7C269.185 227.487 269.085 227.233 269.085 226.94V223.4C269.085 223.293 269.032 223.24 268.925 223.24H264.685C264.579 223.24 264.525 223.293 264.525 223.4V226.94C264.525 227.233 264.419 227.487 264.205 227.7ZM275.044 223.04C274.817 223.04 274.617 222.96 274.444 222.8C274.284 222.627 274.204 222.427 274.204 222.2C274.204 221.973 274.284 221.78 274.444 221.62C274.617 221.447 274.817 221.36 275.044 221.36H279.764C279.991 221.36 280.184 221.447 280.344 221.62C280.517 221.78 280.604 221.973 280.604 222.2C280.604 222.427 280.517 222.627 280.344 222.8C280.184 222.96 279.991 223.04 279.764 223.04H275.044ZM287.877 228.2C286.277 228.2 285.043 227.747 284.177 226.84C283.31 225.92 282.877 224.573 282.877 222.8C282.877 221.053 283.297 219.72 284.137 218.8C284.977 217.867 286.157 217.4 287.677 217.4C288.383 217.4 289.057 217.447 289.697 217.54C289.95 217.58 290.157 217.7 290.317 217.9C290.49 218.1 290.577 218.333 290.577 218.6C290.577 218.827 290.483 219.007 290.297 219.14C290.123 219.273 289.923 219.313 289.697 219.26C289.11 219.127 288.49 219.06 287.837 219.06C286.917 219.06 286.223 219.36 285.757 219.96C285.303 220.547 285.077 221.493 285.077 222.8C285.077 224.133 285.317 225.093 285.797 225.68C286.29 226.267 287.037 226.56 288.037 226.56C288.663 226.56 289.263 226.473 289.837 226.3C290.05 226.233 290.243 226.267 290.417 226.4C290.59 226.52 290.677 226.687 290.677 226.9C290.677 227.167 290.59 227.407 290.417 227.62C290.243 227.833 290.03 227.967 289.777 228.02C289.137 228.14 288.503 228.2 287.877 228.2ZM297.46 218.96C295.94 218.96 295.086 219.86 294.9 221.66C294.873 221.78 294.926 221.84 295.06 221.84H299.54C299.646 221.84 299.7 221.78 299.7 221.66C299.62 219.86 298.873 218.96 297.46 218.96ZM297.96 228.2C296.293 228.2 295.006 227.747 294.1 226.84C293.206 225.933 292.76 224.587 292.76 222.8C292.76 221.013 293.16 219.667 293.96 218.76C294.773 217.853 295.94 217.4 297.46 217.4C300.233 217.4 301.666 219.027 301.76 222.28C301.773 222.6 301.66 222.867 301.42 223.08C301.18 223.293 300.9 223.4 300.58 223.4H295.04C294.933 223.4 294.88 223.453 294.88 223.56C295.04 225.613 296.133 226.64 298.16 226.64C298.866 226.64 299.56 226.527 300.24 226.3C300.44 226.233 300.626 226.26 300.8 226.38C300.973 226.5 301.06 226.667 301.06 226.88C301.06 227.133 300.98 227.36 300.82 227.56C300.66 227.76 300.453 227.893 300.2 227.96C299.466 228.12 298.72 228.2 297.96 228.2ZM305.765 227.7C305.579 227.9 305.345 228 305.065 228C304.785 228 304.545 227.9 304.345 227.7C304.145 227.5 304.045 227.26 304.045 226.98V218.74C304.045 218.433 304.152 218.167 304.365 217.94C304.592 217.713 304.859 217.6 305.165 217.6H305.225C305.985 217.6 306.545 217.933 306.905 218.6L309.625 223.64C309.625 223.653 309.632 223.66 309.645 223.66L309.665 223.64L312.405 218.6C312.765 217.933 313.319 217.6 314.065 217.6H314.165C314.472 217.6 314.732 217.713 314.945 217.94C315.172 218.167 315.285 218.433 315.285 218.74V226.96C315.285 227.24 315.185 227.487 314.985 227.7C314.785 227.9 314.545 228 314.265 228C313.985 228 313.739 227.9 313.525 227.7C313.325 227.487 313.225 227.24 313.225 226.96V220.32L313.205 220.3H313.185L310.965 224.38C310.685 224.9 310.245 225.16 309.645 225.16C309.059 225.16 308.625 224.9 308.345 224.38L306.105 220.3H306.085L306.065 220.32V226.98C306.065 227.26 305.965 227.5 305.765 227.7ZM319.267 228C318.96 228 318.7 227.893 318.487 227.68C318.273 227.467 318.167 227.213 318.167 226.92V218.64C318.167 218.347 318.267 218.1 318.467 217.9C318.68 217.7 318.933 217.6 319.227 217.6C319.52 217.6 319.767 217.7 319.967 217.9C320.167 218.1 320.267 218.347 320.267 218.64V225.14L320.287 225.16H320.307L324.327 218.52C324.713 217.907 325.267 217.6 325.987 217.6C326.293 217.6 326.553 217.707 326.767 217.92C326.98 218.133 327.087 218.387 327.087 218.68V226.96C327.087 227.253 326.98 227.5 326.767 227.7C326.567 227.9 326.32 228 326.027 228C325.733 228 325.487 227.9 325.287 227.7C325.087 227.5 324.987 227.253 324.987 226.96V220.46L324.967 220.44H324.947L320.927 227.08C320.54 227.693 319.987 228 319.267 228ZM331.783 227.7C331.583 227.9 331.337 228 331.043 228C330.75 228 330.497 227.9 330.283 227.7C330.07 227.487 329.963 227.233 329.963 226.94V218.66C329.963 218.367 330.07 218.12 330.283 217.92C330.497 217.707 330.75 217.6 331.043 217.6C331.337 217.6 331.583 217.707 331.783 217.92C331.997 218.12 332.103 218.367 332.103 218.66V221.56C332.103 221.667 332.157 221.72 332.263 221.72H336.503C336.61 221.72 336.663 221.667 336.663 221.56V218.66C336.663 218.367 336.763 218.12 336.963 217.92C337.177 217.707 337.43 217.6 337.723 217.6C338.017 217.6 338.27 217.707 338.483 217.92C338.697 218.12 338.803 218.367 338.803 218.66V226.94C338.803 227.233 338.697 227.487 338.483 227.7C338.27 227.9 338.017 228 337.723 228C337.43 228 337.177 227.9 336.963 227.7C336.763 227.487 336.663 227.233 336.663 226.94V223.4C336.663 223.293 336.61 223.24 336.503 223.24H332.263C332.157 223.24 332.103 223.293 332.103 223.4V226.94C332.103 227.233 331.997 227.487 331.783 227.7ZM346.582 222.76C345.489 222.76 344.662 222.947 344.102 223.32C343.556 223.68 343.282 224.173 343.282 224.8C343.282 225.293 343.429 225.7 343.722 226.02C344.016 226.34 344.369 226.5 344.782 226.5C345.662 226.5 346.362 226.227 346.882 225.68C347.416 225.12 347.682 224.36 347.682 223.4V222.92C347.682 222.813 347.622 222.76 347.502 222.76H346.582ZM344.282 228.2C343.376 228.2 342.629 227.907 342.042 227.32C341.469 226.733 341.182 225.96 341.182 225C341.182 223.827 341.629 222.92 342.522 222.28C343.416 221.627 344.769 221.3 346.582 221.3H347.502C347.622 221.3 347.682 221.24 347.682 221.12V220.9C347.682 220.193 347.516 219.7 347.182 219.42C346.849 219.14 346.249 219 345.382 219C344.609 219 343.689 219.16 342.622 219.48C342.422 219.547 342.229 219.52 342.042 219.4C341.869 219.267 341.782 219.093 341.782 218.88C341.782 218.613 341.862 218.373 342.022 218.16C342.182 217.947 342.389 217.813 342.642 217.76C343.602 217.52 344.516 217.4 345.382 217.4C347.062 217.4 348.216 217.7 348.842 218.3C349.469 218.9 349.782 220 349.782 221.6V227.02C349.782 227.287 349.682 227.52 349.482 227.72C349.296 227.907 349.069 228 348.802 228C348.536 228 348.302 227.907 348.102 227.72C347.916 227.52 347.816 227.287 347.802 227.02L347.782 226.52C347.782 226.507 347.776 226.5 347.762 226.5C347.736 226.5 347.722 226.507 347.722 226.52C346.949 227.64 345.802 228.2 344.282 228.2ZM354.661 221.3V224.3C354.661 224.913 354.914 225.453 355.421 225.92C355.941 226.373 356.554 226.6 357.261 226.6C358.061 226.6 358.694 226.28 359.161 225.64C359.628 225 359.861 224.053 359.861 222.8C359.861 220.267 358.994 219 357.261 219C356.554 219 355.941 219.233 355.421 219.7C354.914 220.153 354.661 220.687 354.661 221.3ZM354.341 232.1C354.141 232.3 353.894 232.4 353.601 232.4C353.308 232.4 353.061 232.3 352.861 232.1C352.661 231.9 352.561 231.653 352.561 231.36V218.58C352.561 218.313 352.654 218.087 352.841 217.9C353.041 217.7 353.274 217.6 353.541 217.6C353.808 217.6 354.041 217.7 354.241 217.9C354.441 218.087 354.548 218.313 354.561 218.58V218.88C354.561 218.893 354.568 218.9 354.581 218.9C354.594 218.9 354.608 218.893 354.621 218.88C355.114 218.333 355.601 217.953 356.081 217.74C356.561 217.513 357.121 217.4 357.761 217.4C359.028 217.4 360.041 217.873 360.801 218.82C361.574 219.767 361.961 221.093 361.961 222.8C361.961 224.453 361.561 225.767 360.761 226.74C359.974 227.713 358.974 228.2 357.761 228.2C356.574 228.2 355.561 227.773 354.721 226.92C354.708 226.907 354.694 226.9 354.681 226.9C354.668 226.9 354.661 226.907 354.661 226.92V231.36C354.661 231.653 354.554 231.9 354.341 232.1ZM371.201 222.8C371.201 220.267 370.281 219 368.441 219C366.601 219 365.681 220.267 365.681 222.8C365.681 225.333 366.601 226.6 368.441 226.6C370.281 226.6 371.201 225.333 371.201 222.8ZM372.041 226.8C371.174 227.733 369.974 228.2 368.441 228.2C366.907 228.2 365.707 227.733 364.841 226.8C363.974 225.853 363.541 224.52 363.541 222.8C363.541 221.08 363.974 219.753 364.841 218.82C365.707 217.873 366.907 217.4 368.441 217.4C369.974 217.4 371.174 217.873 372.041 218.82C372.907 219.753 373.341 221.08 373.341 222.8C373.341 224.52 372.907 225.853 372.041 226.8ZM377.63 223.32V226.48C377.63 226.6 377.677 226.667 377.77 226.68C378.25 226.733 378.623 226.76 378.89 226.76C380.797 226.76 381.75 226.127 381.75 224.86C381.75 223.713 380.757 223.14 378.77 223.14H377.79C377.683 223.14 377.63 223.2 377.63 223.32ZM377.63 219.12V221.64C377.63 221.76 377.683 221.82 377.79 221.82H378.73C379.543 221.82 380.17 221.687 380.61 221.42C381.063 221.14 381.29 220.753 381.29 220.26C381.29 219.313 380.463 218.84 378.81 218.84C378.557 218.84 378.217 218.867 377.79 218.92C377.683 218.947 377.63 219.013 377.63 219.12ZM376.67 228.04C376.35 228.013 376.077 227.88 375.85 227.64C375.637 227.4 375.53 227.113 375.53 226.78V218.82C375.53 218.487 375.637 218.2 375.85 217.96C376.063 217.707 376.33 217.567 376.65 217.54C377.223 217.487 377.883 217.46 378.63 217.46C381.71 217.46 383.25 218.313 383.25 220.02C383.25 220.62 383.043 221.127 382.63 221.54C382.217 221.953 381.637 222.233 380.89 222.38L380.87 222.4H380.89C381.81 222.533 382.517 222.833 383.01 223.3C383.517 223.753 383.77 224.32 383.77 225C383.77 227.093 382.117 228.14 378.81 228.14C378.157 228.14 377.443 228.107 376.67 228.04Z" fill="white"/>
<path fill-rule="evenodd" clip-rule="evenodd" d="M706.916 670.267C707.524 664.952 708.051 659.614 708.495 654.287C709.004 648.112 709.375 642.138 709.607 636.369C709.846 636.225 710.084 636.075 710.319 635.92C711.924 634.852 743.856 612.498 783.67 578.383C798.979 565.265 815.456 550.408 831.828 534.352L831.811 534.351C850.72 515.801 867.961 497.228 883.517 478.659C887.399 494.748 888.477 507.028 888.491 507.365C888.552 509.571 888.977 511.68 889.72 513.641L924.245 484.057L924.246 484.041C922.102 472.979 918.414 458.455 912.086 441.941C943.1 398.767 964.916 355.724 977.3 313.181L949.455 280.685L949.437 280.7C946.478 283.235 944.259 286.689 943.259 290.757C933.598 330.063 914.927 367.58 892.64 401.537C879.571 379.259 861.574 355.739 836.795 333.47C837.349 332.818 837.892 332.17 838.424 331.526L838.431 331.535C860.866 304.445 880.263 266.513 896.223 218.545L866.487 183.842C827.041 319.785 775.498 339.03 755.149 340.995C730.241 343.394 712.292 326.463 704.489 311.224C692.104 287.061 702.939 242.76 734.978 186.009C777.889 181.292 823.571 177.02 859.343 175.505L827.672 138.543C806.5 140.001 783.661 142.035 760.869 144.329C773.949 124.925 786.131 108.863 793.837 99.0577L768.186 69.1218C758.462 81.1686 734.394 112.047 711.456 149.67C650.976 156.612 600.53 163.752 596.704 164.297C596.303 164.349 595.908 164.426 595.514 164.503C594.286 164.756 564.986 170.888 533.228 183.243C508.14 193.017 488.478 203.996 474.348 216.104C462.458 226.292 454.496 237.279 450.532 248.987C444.099 268.035 444.168 297.199 481.12 328.023C501.543 345.062 526.591 357.062 538.632 362.831C539.069 363.041 539.488 363.242 539.89 363.433C540.692 363.817 541.42 364.165 542.063 364.485C545.14 365.996 549.68 367.852 555.969 370.422C570.512 376.367 592.489 385.375 612.32 396.577C641.061 412.833 647.899 424.167 649.501 428.295C650.495 430.854 650.453 432.687 649.353 435.043C645.92 442.333 627.427 449.852 585.845 449.039C547.824 448.293 502.722 441.2 466.482 435.486C454.35 433.575 442.897 431.774 433.218 430.465C428.976 429.89 424.449 429.789 419.611 430.186L456.362 473.074L456.947 473.166C458.105 473.347 459.274 473.53 460.449 473.72C497.85 479.606 544.408 486.927 585.072 487.727C613.286 488.289 650.191 486.442 671.781 467.941L671.789 467.95C676.98 463.502 681.286 458.091 684.374 451.528C689.986 439.574 690.409 426.69 685.566 414.261C672.29 380.174 622.477 355.839 570.635 334.624L570.363 334.513C565.515 332.527 560.967 330.662 559.088 329.738C558.036 329.227 556.775 328.616 555.347 327.935C519.749 310.885 479.043 285.507 487.19 261.395C495.893 235.654 559.808 211.554 602.769 202.52C607.824 201.811 642.987 196.896 688.347 191.405C659.466 250.039 653.299 296.188 670.048 328.875C687.612 363.144 722.47 383.025 758.858 379.516C777.901 377.682 794.531 369.862 808.413 359.939C808.766 360.305 809.137 360.661 809.524 361.005C834.818 383.421 854.421 408.579 867.987 436.007C847.198 462.875 825.139 486.647 805.245 506.198C764.525 546.221 726.109 575.43 707.747 588.674C707.239 585.102 706.642 581.675 705.954 578.398C700.012 550.072 687.148 531.365 667.725 522.81C652.809 516.232 636.727 516.184 621.211 522.659C613.149 526.017 605.52 531.064 598.371 537.19C581.644 551.523 567.579 571.795 556.901 590.425L583.926 621.964C596.859 596.946 616.357 566.626 636.115 558.377C641.92 555.954 646.855 555.904 652.12 558.229C667.525 565.018 674.174 599.745 669.925 651.107C668.294 670.773 665.326 690.709 662.042 708.734L706.923 670.275L706.916 670.267Z" fill="white"/>
<path d="M748.22 163.355C748.53 163.089 748.925 162.905 749.375 162.857C754.981 162.263 760.603 161.686 766.223 161.127C767.382 161.009 768.417 161.858 768.534 163.018C768.652 164.177 767.803 165.212 766.643 165.329C761.032 165.881 755.419 166.467 749.821 167.053C748.662 167.17 747.618 166.329 747.501 165.17C747.424 164.452 747.724 163.78 748.229 163.347L748.22 163.355ZM793.138 158.99C793.457 158.716 793.868 158.533 794.327 158.494C800.016 157.997 805.655 157.513 811.208 157.073C812.374 156.98 813.391 157.845 813.483 159.01C813.575 160.176 812.711 161.193 811.545 161.285C806.009 161.728 800.379 162.204 794.706 162.701C793.548 162.803 792.521 161.946 792.413 160.779C792.343 160.07 792.642 159.415 793.147 158.982L793.138 158.99ZM838.125 155.565C838.461 155.276 838.889 155.094 839.371 155.065C845.282 154.701 850.982 154.396 856.296 154.16C857.466 154.11 858.456 155.013 858.499 156.175C858.541 157.337 857.645 158.335 856.484 158.378C851.186 158.615 845.512 158.914 839.617 159.279C838.453 159.355 837.446 158.466 837.379 157.294C837.341 156.605 837.63 155.973 838.117 155.556L838.125 155.565Z" fill="#0C7BBB"/>
<path d="M624.722 178.203C625.024 177.945 625.393 177.767 625.82 177.709C630.853 177.038 636.47 176.296 642.596 175.502C643.758 175.351 644.812 176.169 644.962 177.331C645.113 178.492 644.295 179.546 643.133 179.697C637.007 180.491 631.39 181.233 626.366 181.896C625.212 182.055 624.141 181.237 623.991 180.075C623.898 179.34 624.185 178.634 624.707 178.186L624.722 178.203ZM669.475 172.443C669.776 172.185 670.162 172.008 670.589 171.95C676.003 171.275 681.616 170.583 687.387 169.894C688.547 169.76 689.601 170.577 689.735 171.738C689.869 172.898 689.052 173.952 687.891 174.086C682.128 174.784 676.514 175.477 671.11 176.144C669.957 176.287 668.895 175.46 668.752 174.307C668.66 173.572 668.961 172.884 669.475 172.443Z" fill="#0C7BBB"/>
<path d="M481.026 233.258C481.859 232.544 483.122 232.584 483.913 233.381C484.734 234.214 484.722 235.545 483.89 236.366C479.653 240.549 476.276 244.857 473.859 249.171C473.284 250.186 471.998 250.55 470.975 249.983C469.951 249.416 469.596 248.123 470.163 247.099C472.773 242.435 476.39 237.799 480.912 233.34C480.948 233.31 480.992 233.272 481.028 233.242L481.026 233.258ZM503.571 216.445C503.659 216.369 503.757 216.285 503.877 216.228C508.497 213.498 513.571 210.795 518.969 208.182C520.025 207.676 521.282 208.121 521.797 209.17C522.312 210.219 521.866 211.492 520.818 211.99C515.524 214.545 510.555 217.19 506.045 219.871C505.039 220.472 503.75 220.132 503.149 219.126C502.622 218.225 502.825 217.099 503.587 216.446L503.571 216.445ZM544.496 197.54C544.682 197.38 544.898 197.256 545.138 197.159C550.307 195.249 555.714 193.382 561.236 191.615C562.348 191.262 563.542 191.867 563.895 192.978C564.248 194.089 563.643 195.284 562.532 195.637C557.076 197.392 551.722 199.23 546.611 201.12C545.513 201.524 544.298 200.967 543.895 199.868C543.58 199.016 543.849 198.094 544.505 197.532L544.496 197.54ZM465.857 273.758C466.132 273.523 466.476 273.351 466.862 273.281C468.011 273.08 469.111 273.843 469.312 274.992C470.202 279.976 472.146 285.024 475.081 289.992C475.682 290.998 475.334 292.295 474.337 292.888C473.331 293.489 472.041 293.15 471.44 292.144C468.25 286.735 466.135 281.218 465.151 275.731C465.019 274.968 465.308 274.229 465.857 273.758ZM490.392 310.567C491.171 309.899 492.339 309.881 493.139 310.563C497.09 313.938 501.562 317.327 506.436 320.648C507.403 321.31 507.649 322.62 506.996 323.579C506.334 324.546 505.024 324.793 504.058 324.131C499.05 320.725 494.462 317.235 490.394 313.761C489.509 312.997 489.397 311.665 490.16 310.78C490.232 310.703 490.313 310.619 490.393 310.55L490.392 310.567ZM528.13 335.154C528.768 334.607 529.697 334.472 530.484 334.889C536.274 337.916 541.485 340.412 545.291 342.236L545.595 342.375C546.648 342.886 547.097 344.146 546.586 345.198C546.083 346.243 544.815 346.7 543.762 346.189L543.458 346.049C539.628 344.215 534.369 341.7 528.523 338.643C527.49 338.1 527.091 336.828 527.627 335.785C527.753 335.539 527.927 335.329 528.121 335.162L528.13 335.154Z" fill="#0C7BBB"/>
<path d="M581.794 359.231C582.388 358.723 583.252 358.566 584.013 358.897C588.288 360.749 592.231 362.518 596.091 364.296C597.153 364.784 597.619 366.044 597.124 367.098C596.637 368.161 595.376 368.627 594.322 368.132C590.503 366.365 586.575 364.614 582.34 362.773C581.267 362.31 580.784 361.065 581.247 359.992C581.378 359.696 581.58 359.43 581.811 359.232L581.794 359.231ZM473.613 454.818C474.065 454.431 474.683 454.239 475.314 454.328C480.742 455.177 486.336 456.039 492.038 456.883C493.199 457.056 493.985 458.134 493.822 459.288C493.649 460.45 492.571 461.235 491.417 461.072C485.707 460.218 480.105 459.364 474.669 458.507C473.516 458.327 472.73 457.249 472.903 456.087C472.984 455.572 473.242 455.12 473.614 454.802L473.613 454.818ZM518.292 461.29C518.734 460.91 519.32 460.716 519.943 460.797C525.711 461.539 531.36 462.215 536.725 462.81C537.882 462.941 538.728 463.982 538.598 465.139C538.467 466.295 537.426 467.142 536.261 467.003C530.88 466.406 525.207 465.72 519.406 464.975C518.25 464.828 517.431 463.764 517.578 462.609C517.652 462.068 517.912 461.6 518.293 461.274L518.292 461.29ZM619.007 377.324C619.663 376.762 620.616 376.637 621.417 377.088C626.685 380.026 631.603 382.986 636.037 385.902C637.014 386.539 637.284 387.859 636.646 388.836C636.001 389.804 634.688 390.084 633.712 389.446C629.356 386.586 624.525 383.674 619.352 380.793C618.329 380.226 617.964 378.94 618.532 377.916C618.657 377.686 618.82 377.5 619.006 377.341L619.007 377.324ZM563.208 465.853C563.616 465.503 564.153 465.305 564.728 465.349C570.581 465.742 576.244 466.022 581.56 466.183C582.724 466.215 583.642 467.196 583.61 468.36C583.578 469.524 582.597 470.442 581.433 470.41C576.067 470.244 570.355 469.961 564.453 469.564C563.293 469.483 562.402 468.48 562.492 467.312C562.529 466.727 562.809 466.211 563.225 465.854L563.208 465.853ZM655.416 403.712C656.266 402.983 657.544 403.04 658.325 403.862C659.221 404.8 660.066 405.75 660.863 406.68C664.135 410.499 666.693 414.345 668.478 418.132C668.984 419.188 668.524 420.444 667.467 420.95C666.402 421.447 665.155 420.995 664.649 419.938C663.027 416.503 660.669 412.962 657.647 409.436C656.896 408.559 656.087 407.669 655.246 406.777C654.442 405.929 654.479 404.591 655.327 403.788C655.354 403.765 655.38 403.742 655.407 403.72L655.416 403.712ZM608.317 466.318C608.654 466.029 609.082 465.847 609.547 465.817C615.519 465.416 621.111 464.788 626.157 463.953C627.313 463.76 628.395 464.539 628.587 465.695C628.78 466.852 628.001 467.934 626.845 468.126C621.665 468.985 615.939 469.635 609.817 470.041C608.653 470.116 607.637 469.236 607.561 468.071C607.516 467.373 607.805 466.741 608.292 466.324L608.317 466.318ZM664.039 444.383C664.721 443.798 665.722 443.693 666.519 444.193C667.515 444.8 667.82 446.106 667.213 447.102C664.298 451.858 659.938 455.932 654.239 459.233C653.234 459.817 651.937 459.469 651.353 458.464C650.768 457.459 651.108 456.17 652.122 455.578C657.205 452.635 661.064 449.052 663.611 444.888C663.734 444.69 663.871 444.527 664.039 444.383Z" fill="#0C7BBB"/>
<path d="M772.538 91.5385C773.282 90.9008 774.394 90.8541 775.199 91.4705C776.129 92.1793 776.299 93.5081 775.591 94.4381C772.216 98.8199 768.805 103.356 765.441 107.929C764.747 108.877 763.425 109.073 762.486 108.371C761.547 107.67 761.342 106.355 762.036 105.408C765.418 100.82 768.848 96.2517 772.241 91.8383C772.325 91.7207 772.433 91.6131 772.539 91.522L772.538 91.5385ZM746.041 128.071C746.75 127.464 747.799 127.379 748.608 127.93C749.575 128.592 749.822 129.901 749.16 130.868C745.96 135.561 742.816 140.283 739.803 144.908C739.165 145.885 737.853 146.165 736.876 145.527C735.899 144.889 735.62 143.576 736.258 142.599C739.289 137.943 742.452 133.189 745.662 128.472C745.774 128.315 745.9 128.176 746.033 128.062L746.041 128.071Z" fill="#0C7BBB"/>
<path d="M698.379 210.981C698.981 210.465 699.846 210.308 700.621 210.658C701.693 211.137 702.168 212.39 701.68 213.453C699.313 218.723 697.132 223.942 695.197 228.964C694.782 230.058 693.557 230.6 692.456 230.176C691.372 229.753 690.829 228.528 691.244 227.435C693.208 222.357 695.419 217.066 697.817 211.724C697.947 211.428 698.14 211.186 698.37 210.989L698.379 210.981ZM683.21 253.417C683.715 252.985 684.416 252.799 685.098 252.967C686.234 253.253 686.924 254.399 686.638 255.535C685.217 261.193 684.13 266.702 683.407 271.901C683.243 273.055 682.18 273.858 681.017 273.703C679.863 273.539 679.052 272.467 679.216 271.313C679.959 265.959 681.074 260.303 682.539 254.499C682.648 254.053 682.891 253.691 683.219 253.41L683.21 253.417ZM679.617 298.103C679.909 297.852 680.278 297.674 680.688 297.615C681.843 297.455 682.914 298.258 683.082 299.404C683.889 305.043 685.317 310.35 687.328 315.171C687.775 316.248 687.273 317.492 686.196 317.939C685.12 318.385 683.884 317.877 683.429 316.807C681.277 311.66 679.76 306.016 678.899 300.009C678.799 299.265 679.085 298.558 679.617 298.103ZM699.725 337.582C700.558 336.869 701.821 336.908 702.612 337.705C706.502 341.654 710.785 345.129 715.352 348.037C716.338 348.668 716.626 349.972 715.996 350.958C715.365 351.944 714.061 352.232 713.075 351.602C708.24 348.523 703.7 344.839 699.587 340.666C698.766 339.833 698.777 338.502 699.61 337.681C699.645 337.651 699.69 337.613 699.725 337.582ZM883.907 186.905C884.43 186.457 885.164 186.274 885.876 186.478C887.001 186.804 887.648 187.971 887.321 189.096C885.73 194.608 884.067 200.073 882.404 205.34C882.053 206.455 880.856 207.066 879.741 206.715C878.626 206.364 878.015 205.167 878.366 204.052C880.027 198.819 881.669 193.402 883.25 187.913C883.373 187.501 883.598 187.154 883.9 186.896L883.907 186.905ZM869.816 229.739C870.383 229.253 871.19 229.083 871.938 229.365C873.032 229.78 873.592 230.99 873.177 232.083C871.155 237.487 869.048 242.811 866.928 247.885C866.481 248.959 865.242 249.468 864.168 249.021C863.094 248.574 862.585 247.335 863.024 246.252C865.117 241.217 867.203 235.942 869.212 230.594C869.347 230.249 869.552 229.95 869.809 229.73L869.816 229.739ZM738.988 358.175C739.44 357.788 740.059 357.595 740.689 357.685C746.044 358.52 751.535 358.67 757.013 358.124C758.172 358.007 759.207 358.856 759.325 360.015C759.443 361.174 758.593 362.21 757.434 362.327C751.605 362.912 745.751 362.75 740.044 361.864C738.891 361.684 738.106 360.606 738.278 359.444C738.359 358.929 738.617 358.477 738.989 358.158L738.988 358.175ZM851.852 271.083C852.481 270.544 853.393 270.407 854.181 270.807C855.216 271.334 855.64 272.599 855.112 273.651C852.487 278.835 849.773 283.88 847.031 288.641C846.449 289.647 845.156 290.003 844.15 289.42C843.144 288.838 842.788 287.545 843.379 286.531C846.083 281.833 848.767 276.86 851.362 271.748C851.497 271.494 851.663 271.275 851.876 271.093L851.852 271.083ZM828.44 309.566C829.175 308.935 830.263 308.879 831.078 309.471C832.017 310.172 832.213 311.495 831.512 312.434C828.003 317.161 824.374 321.622 820.718 325.693C819.931 326.567 818.602 326.63 817.726 325.859C816.851 325.088 816.789 323.743 817.56 322.868C821.135 318.882 824.682 314.522 828.116 309.905C828.208 309.779 828.317 309.655 828.432 309.557L828.44 309.566ZM782.689 350.596C782.813 350.49 782.962 350.394 783.117 350.307C787.843 347.932 792.577 345.012 797.191 341.628C798.13 340.93 799.454 341.132 800.143 342.079C800.831 343.025 800.631 344.334 799.692 345.031C794.894 348.558 789.959 351.603 785.019 354.085C783.977 354.609 782.71 354.189 782.179 353.138C781.734 352.26 781.964 351.202 782.691 350.58L782.689 350.596Z" fill="#0C7BBB"/>
</g>
<defs>
<linearGradient id="paint0_linear_104_3115" x1="1.67124" y1="197.782" x2="1131.34" y2="197.782" gradientUnits="userSpaceOnUse">
<stop stop-color="#0E85C8"/>
<stop offset="1" stop-color="#004E84"/>
</linearGradient>
<clipPath id="clip0_104_3115">
<rect width="760" height="427.5" rx="18" fill="white"/>
</clipPath>
</defs>
</svg>
